<?xml version="1.0" encoding="utf-8"?>
<!-- Generator: Adobe Illustrator 23.0.0, SVG Export Plug-In . SVG Version: 6.00 Build 0)  -->
<svg version="1.1" xmlns="http://www.w3.org/2000/svg" xmlns:xlink="http://www.w3.org/1999/xlink" x="0px" y="0px"
	 viewBox="0 0 500 500" style="enable-background:new 0 0 500 500;" xml:space="preserve">
<style type="text/css">
	.st0{clip-path:url(#SVGID_2_);}
	.st1{fill:url(#SVGID_3_);}
	.st2{clip-path:url(#SVGID_5_);}
	.st3{fill:url(#SVGID_6_);}
	.st4{fill:url(#SVGID_7_);}
	.st5{opacity:0.4;fill:url(#SVGID_8_);}
	.st6{opacity:0.4;fill:url(#SVGID_9_);}
	.st7{fill:url(#SVGID_10_);}
	.st8{fill:url(#SVGID_11_);}
	.st9{opacity:0.4;fill:url(#SVGID_12_);}
	.st10{opacity:0.4;fill:url(#SVGID_13_);}
	.st11{opacity:0.4;fill:url(#SVGID_14_);}
	.st12{opacity:0.4;fill:url(#SVGID_15_);}
</style>
<g id="BACKGROUND_2">
</g>
<g id="BACKGROUND_1">
	<g>
		<defs>
			<rect id="SVGID_1_" width="500" height="500"/>
		</defs>
		<clipPath id="SVGID_2_">
			<use xlink:href="#SVGID_1_"  style="overflow:visible;"/>
		</clipPath>
		<g class="st0">
			<radialGradient id="SVGID_3_" cx="395.2897" cy="-95" r="656.985" gradientUnits="userSpaceOnUse">
				<stop  offset="0" style="stop-color:#B50C8B"/>
				<stop  offset="0.1257" style="stop-color:#A10C81"/>
				<stop  offset="0.5371" style="stop-color:#650E64"/>
				<stop  offset="0.8402" style="stop-color:#400F52"/>
				<stop  offset="1" style="stop-color:#320F4B"/>
			</radialGradient>
			<rect x="-105.7" class="st1" width="750" height="500"/>
			<g>
				<defs>
					<rect id="SVGID_4_" x="-105.7" width="750" height="500"/>
				</defs>
				<clipPath id="SVGID_5_">
					<use xlink:href="#SVGID_4_"  style="overflow:visible;"/>
				</clipPath>
				<g class="st2">
					
						<radialGradient id="SVGID_6_" cx="1381.9469" cy="11.3322" r="412.3928" gradientTransform="matrix(-0.9547 0.2977 -0.3345 -1.0728 1385.391 -61.9454)" gradientUnits="userSpaceOnUse">
						<stop  offset="0" style="stop-color:#B50C8B"/>
						<stop  offset="0.1672" style="stop-color:#B10C89"/>
						<stop  offset="0.3435" style="stop-color:#A40C83"/>
						<stop  offset="0.5242" style="stop-color:#8F0D78"/>
						<stop  offset="0.7077" style="stop-color:#710E6A"/>
						<stop  offset="0.8917" style="stop-color:#4C0E58"/>
						<stop  offset="1" style="stop-color:#320F4B"/>
					</radialGradient>
					<path class="st3" d="M-142,170.1C-143.2,83.5-59.9,106.3,26.9-56C85.4-165.5,232.8-130.6,267-10.7
						c42.3,148.3-57,220.9-145.9,257.1C-49.2,315.9-141.1,239.4-142,170.1z"/>
					
						<radialGradient id="SVGID_7_" cx="655.5073" cy="-222.9617" r="522.0646" gradientTransform="matrix(0.921 -0.3895 0.3895 0.921 -55.744 626.2452)" gradientUnits="userSpaceOnUse">
						<stop  offset="0" style="stop-color:#B50C8B"/>
						<stop  offset="0.1672" style="stop-color:#B10C89"/>
						<stop  offset="0.3435" style="stop-color:#A40C83"/>
						<stop  offset="0.5242" style="stop-color:#8F0D78"/>
						<stop  offset="0.7077" style="stop-color:#710E6A"/>
						<stop  offset="0.8917" style="stop-color:#4C0E58"/>
						<stop  offset="1" style="stop-color:#320F4B"/>
					</radialGradient>
					<path class="st4" d="M694.4,530.5c-53.5,159.7-271.3,162.8-376.1,60.1c-74.1-72.6-11.6-237.9,110.1-321.2
						C583.1,163.6,775.4,288.5,694.4,530.5z"/>
					
						<radialGradient id="SVGID_8_" cx="1151.4554" cy="247.9595" r="639.5522" gradientTransform="matrix(-6.890000e-02 0.6317 -0.7387 -8.060000e-02 626.8463 -189.7843)" gradientUnits="userSpaceOnUse">
						<stop  offset="0" style="stop-color:#B50C8B"/>
						<stop  offset="0.1257" style="stop-color:#A10C81"/>
						<stop  offset="0.5371" style="stop-color:#650E64"/>
						<stop  offset="0.8402" style="stop-color:#400F52"/>
						<stop  offset="1" style="stop-color:#320F4B"/>
					</radialGradient>
					<path class="st5" d="M-38.4,513.5c-90.7-85.4-21.6-215.7,89.8-219.8c145.3-5.3,230.9,71.4,243.2,170.6
						C310.2,590.4,98.9,642.9-38.4,513.5z"/>
					
						<radialGradient id="SVGID_9_" cx="1053.1581" cy="141.5693" r="604.7137" gradientTransform="matrix(0.2647 0.825 -1.3166 0.4225 639.3957 -712.7387)" gradientUnits="userSpaceOnUse">
						<stop  offset="0" style="stop-color:#B50C8B"/>
						<stop  offset="0.1257" style="stop-color:#A10C81"/>
						<stop  offset="0.5371" style="stop-color:#650E64"/>
						<stop  offset="0.8402" style="stop-color:#400F52"/>
						<stop  offset="1" style="stop-color:#320F4B"/>
					</radialGradient>
					<path class="st6" d="M104.4,543.1C-153.4,463.8,47.7-82.7,450.5-57c222.5,14.2-98.2,268.7,9.2,374.5
						C562.3,418.5,350.6,618.9,104.4,543.1z"/>
					
						<radialGradient id="SVGID_10_" cx="1307.9901" cy="-288.1539" r="342.2926" gradientTransform="matrix(-0.849 0.7057 -0.4879 -0.587 1049.861 -896.0815)" gradientUnits="userSpaceOnUse">
						<stop  offset="0" style="stop-color:#DE2E98"/>
						<stop  offset="0.1982" style="stop-color:#DF368E"/>
						<stop  offset="0.5393" style="stop-color:#E14C72"/>
						<stop  offset="0.9797" style="stop-color:#E57045"/>
						<stop  offset="1" style="stop-color:#E57243"/>
					</radialGradient>
					<path class="st7" d="M-72.1,16.8c56.3-100.2,230.6-109.5,251-51.7c14.7,41.7-109.4,14.1-148,200.4
						C7.9,276-166.8,185.2-72.1,16.8z"/>
					
						<radialGradient id="SVGID_11_" cx="-345.4459" cy="-763.9604" r="425.9035" gradientTransform="matrix(1.2318 -0.6435 0.303 0.58 1098.3534 494.3815)" gradientUnits="userSpaceOnUse">
						<stop  offset="0" style="stop-color:#DE2E98"/>
						<stop  offset="0.1982" style="stop-color:#DF368E"/>
						<stop  offset="0.5393" style="stop-color:#E14C72"/>
						<stop  offset="0.9797" style="stop-color:#E57045"/>
						<stop  offset="1" style="stop-color:#E57243"/>
					</radialGradient>
					<path class="st8" d="M584.1,473.9c-46.7,94.4-235.5,128.7-239,28.6c-2.1-58.9,102.6,14.2,126.4-167.8
						C485.5,227.8,657.9,324.7,584.1,473.9z"/>
					
						<radialGradient id="SVGID_12_" cx="804.5143" cy="419.6863" r="340.2829" gradientTransform="matrix(0.5348 0.6816 -1.0365 0.8133 193.6579 -712.1042)" gradientUnits="userSpaceOnUse">
						<stop  offset="0" style="stop-color:#B50C8B"/>
						<stop  offset="0.1257" style="stop-color:#A10C81"/>
						<stop  offset="0.5371" style="stop-color:#650E64"/>
						<stop  offset="0.8402" style="stop-color:#400F52"/>
						<stop  offset="1" style="stop-color:#320F4B"/>
					</radialGradient>
					<path class="st9" d="M-74.2,436.2c-124.2,17.4-139.2-115.7-67.4-212.6c50.7-68.5,179.7-82.2,249.8-33.5
						C197.5,252,114,409.8-74.2,436.2z"/>
					
						<radialGradient id="SVGID_13_" cx="970.2872" cy="149.8043" r="142.7928" gradientTransform="matrix(0.5348 0.6816 -1.0365 0.8133 193.6579 -712.1042)" gradientUnits="userSpaceOnUse">
						<stop  offset="0" style="stop-color:#B50C8B"/>
						<stop  offset="0.1257" style="stop-color:#A10C81"/>
						<stop  offset="0.5371" style="stop-color:#650E64"/>
						<stop  offset="0.8402" style="stop-color:#400F52"/>
						<stop  offset="1" style="stop-color:#320F4B"/>
					</radialGradient>
					<path class="st10" d="M446.9,179.6c-52.1,7.3-58.4-48.6-28.3-89.2c21.3-28.7,75.4-34.5,104.8-14
						C560.9,102.3,525.8,168.5,446.9,179.6z"/>
					
						<radialGradient id="SVGID_14_" cx="967.7363" cy="570.4929" r="224.1827" gradientTransform="matrix(0.7302 0.9305 -1.0365 0.8133 -34.0705 -1003.3015)" gradientUnits="userSpaceOnUse">
						<stop  offset="0" style="stop-color:#B50C8B"/>
						<stop  offset="0.1257" style="stop-color:#A10C81"/>
						<stop  offset="0.5371" style="stop-color:#650E64"/>
						<stop  offset="0.8402" style="stop-color:#400F52"/>
						<stop  offset="1" style="stop-color:#320F4B"/>
					</radialGradient>
					<path class="st11" d="M-86,539.3c-91.2-0.4-118-109.7-75.4-179.6c30.1-49.4,125.3-45.4,183.6,2.2C96.4,422.3,52.1,540-86,539.3
						z"/>
					
						<radialGradient id="SVGID_15_" cx="1176.6952" cy="5.9961" r="364.1169" gradientTransform="matrix(0.5348 0.6816 -1.0365 0.8133 193.6579 -712.1042)" gradientUnits="userSpaceOnUse">
						<stop  offset="0" style="stop-color:#B50C8B"/>
						<stop  offset="0.1257" style="stop-color:#A10C81"/>
						<stop  offset="0.5371" style="stop-color:#650E64"/>
						<stop  offset="0.8402" style="stop-color:#400F52"/>
						<stop  offset="1" style="stop-color:#320F4B"/>
					</radialGradient>
					<path class="st12" d="M535.2,371.6c-132.9,18.6-148.9-123.8-72.1-227.5c54.3-73.3,192.3-87.9,267.3-35.8
						C825.9,174.5,736.6,343.3,535.2,371.6z"/>
				</g>
			</g>
		</g>
	</g>
</g>
<g id="DESIGNED_BY_FREEPIK">
</g>
</svg>
