<?xml version="1.0" encoding="utf-8"?>
<!-- Generator: Adobe Illustrator 23.0.0, SVG Export Plug-In . SVG Version: 6.00 Build 0)  -->
<svg version="1.1" xmlns="http://www.w3.org/2000/svg" xmlns:xlink="http://www.w3.org/1999/xlink" x="0px" y="0px"
	 viewBox="0 0 145.39 104.2" style="enable-background:new 0 0 145.39 104.2;" xml:space="preserve">
<style type="text/css">
	.st0{fill:url(#SVGID_1_);}
	.st1{opacity:0.2;fill:url(#SVGID_2_);}
	.st2{opacity:0.5;clip-path:url(#SVGID_4_);}
	.st3{opacity:0.5;fill:none;stroke:#FDFDFD;stroke-width:0.765;stroke-linecap:round;stroke-linejoin:round;stroke-miterlimit:10;}
	.st4{fill:url(#SVGID_5_);}
	.st5{opacity:0.5;clip-path:url(#SVGID_7_);}
	.st6{opacity:0.2;fill:url(#SVGID_8_);}
	.st7{fill:#1A0A5D;}
</style>
<g id="OBJECTS">
	<g>
		<g>
			<linearGradient id="SVGID_1_" gradientUnits="userSpaceOnUse" x1="69.168" y1="56.4837" x2="141.3399" y2="56.4837">
				<stop  offset="0.0108" style="stop-color:#3D29D5"/>
				<stop  offset="0.9946" style="stop-color:#4D60DE"/>
			</linearGradient>
			<path class="st0" d="M141.34,104.2h-28.6c-12.52-11.26-21.45-24.62-27.83-37.73c-4.18-8.58-7.26-17.05-9.51-24.74
				c-0.13-0.43-0.26-0.88-0.38-1.3c-0.23-0.78-0.44-1.56-0.64-2.32c-0.29-1.03-0.55-2.06-0.8-3.06c-0.18-0.72-0.36-1.43-0.52-2.13
				c-0.1-0.43-0.2-0.85-0.3-1.27c-0.09-0.41-0.18-0.81-0.27-1.2c-0.21-0.96-0.41-1.9-0.6-2.82c-0.13-0.63-0.25-1.23-0.36-1.82
				c-0.08-0.4-0.16-0.8-0.23-1.18c-0.02-0.1-0.03-0.18-0.05-0.27c-1.77-9.5-2.07-15.61-2.07-15.61c0.39,0.09,0.78,0.18,1.16,0.28
				c0.53,0.13,1.04,0.26,1.56,0.4c0.44,0.11,0.89,0.23,1.33,0.37c0.44,0.12,0.88,0.25,1.31,0.38c1.75,0.52,3.44,1.09,5.1,1.71
				c25.52,9.54,40.64,30.06,49.53,49.37C138.54,81.7,140.97,100.78,141.34,104.2z"/>
			<linearGradient id="SVGID_2_" gradientUnits="userSpaceOnUse" x1="69.1767" y1="56.488" x2="124.3701" y2="56.488">
				<stop  offset="0.0108" style="stop-color:#3D29D5"/>
				<stop  offset="0.9946" style="stop-color:#4D60DE"/>
			</linearGradient>
			<path class="st1" d="M124.37,104.2h-11.63c-12.52-11.26-21.45-24.62-27.83-37.73c-4.18-8.58-7.26-17.05-9.51-24.74
				c-0.13-0.43-0.26-0.88-0.38-1.3c-0.23-0.78-0.44-1.56-0.64-2.32c-0.29-1.03-0.55-2.06-0.8-3.06c-0.18-0.72-0.36-1.43-0.52-2.13
				c-0.1-0.43-0.2-0.85-0.3-1.27c-0.09-0.41-0.18-0.81-0.27-1.2c-0.21-0.96-0.41-1.9-0.6-2.82c-0.13-0.63-0.25-1.23-0.36-1.82
				c-0.08-0.4-0.16-0.8-0.23-1.18c-0.02-0.1-0.03-0.18-0.05-0.27c-1.76-9.5-2.06-15.6-2.06-15.6c0.39,0.09,0.77,0.18,1.16,0.27
				c0.53,0.13,1.04,0.26,1.56,0.4c0.44,0.11,0.89,0.23,1.33,0.37c0.44,0.12,0.88,0.25,1.31,0.38c1.75,0.52,3.44,1.09,5.1,1.71
				c0.96,8.59,4.05,28.34,13.56,49.37C99.89,76.11,109.79,91.57,124.37,104.2z"/>
			<g>
				<defs>
					<path id="SVGID_3_" d="M141.94,104.2c0,0-7.8-80.53-72.77-95.43c0,0,2.35,58.21,43.57,95.43H141.94z"/>
				</defs>
				<clipPath id="SVGID_4_">
					<use xlink:href="#SVGID_3_"  style="overflow:visible;"/>
				</clipPath>
				<g class="st2">
					<path class="st3" d="M69.17,8.77c0,0,37.47,35.93,58.94,97.79"/>
					<path class="st3" d="M90.61,34.49c0,0-9.61-1.6-17.51-1.34"/>
					<path class="st3" d="M100.41,49.04c0,0-0.46-19.49-2.49-27.39"/>
					<path class="st3" d="M108.12,62.04c0,0-11.63-0.04-24.63,1.43"/>
					<path class="st3" d="M115.88,76.99c0,0,6.29-20.93,2.09-35.08"/>
					<path class="st3" d="M122.65,92.13c0,0-9.33-2.22-24.45-3.85"/>
					<path class="st3" d="M125.8,100.15c0,0,8.51-17.03,7.95-27.59"/>
				</g>
			</g>
		</g>
		<g>
			
				<linearGradient id="SVGID_5_" gradientUnits="userSpaceOnUse" x1="664.0356" y1="71.1404" x2="738.5641" y2="71.1404" gradientTransform="matrix(-1 0 0 1 773.0704 0)">
				<stop  offset="0.0108" style="stop-color:#3D29D5"/>
				<stop  offset="0.9946" style="stop-color:#4D60DE"/>
			</linearGradient>
			<path class="st4" d="M109.03,104.07c0,0,0-67.76-74.53-65.82c0,0,11.29,44.21,49.04,65.82H109.03z"/>
			<g>
				<defs>
					<path id="SVGID_6_" d="M109.03,104.07c0,0,0-67.76-74.53-65.82c0,0,11.29,44.21,49.04,65.82H109.03z"/>
				</defs>
				<clipPath id="SVGID_7_">
					<use xlink:href="#SVGID_6_"  style="overflow:visible;"/>
				</clipPath>
				<g class="st5">
					<path class="st3" d="M34.51,38.25c0,0,47.43,21.62,62.27,65.82"/>
					<path class="st3" d="M58,52.97c0,0-8.47-0.82-17.84,0.62"/>
					<path class="st3" d="M70.3,63.58c0,0-0.68-15.49-5.41-21.46"/>
					<path class="st3" d="M81.39,75.92c0,0-16.18-1.54-27.42,1.37"/>
					<path class="st3" d="M88.66,86.52c0,0,3.22-17.16-1.35-31.74"/>
					<path class="st3" d="M94.35,97.69c0,0-10.18-2.99-23.32-2.3"/>
				</g>
			</g>
			
				<linearGradient id="SVGID_8_" gradientUnits="userSpaceOnUse" x1="679.1995" y1="71.1418" x2="738.5608" y2="71.1418" gradientTransform="matrix(-1 0 0 1 773.0704 0)">
				<stop  offset="0.0108" style="stop-color:#3D29D5"/>
				<stop  offset="0.9946" style="stop-color:#4D60DE"/>
			</linearGradient>
			<path class="st6" d="M34.51,38.25c0,0,11.29,44.2,49.03,65.82h10.33c-36.26-20.76-48.1-62.35-49-65.61
				C41.58,38.23,38.14,38.16,34.51,38.25z"/>
		</g>
		<g>
			<g>
				<path class="st7" d="M112.77,104.07c0,0-21.36-65.23-66.04-77.26c0,0,42.11,15.72,60.95,77.26H112.77z"/>
				<path class="st7" d="M56.65,30.5c0,0-25.16-15.47-52.65,5.16C4,35.65,36.88,44.98,56.65,30.5z"/>
				<path class="st7" d="M76.93,47.29c0,0-20.39-14.56-6.64-47.29C70.29,0,86.76,19.52,76.93,47.29z"/>
			</g>
			<g>
				<path class="st7" d="M113.52,104.07c0,0-13.14-40.11-40.61-47.51c0,0,25.89,9.67,37.48,47.51H113.52z"/>
				<path class="st7" d="M76.63,57.45c0,0-17.3-5.51-30.67,10.87C45.97,68.32,66.97,69.03,76.63,57.45z"/>
				<path class="st7" d="M94.21,72.42c0,0-8.78-12.66,5.97-28.75C100.18,43.67,105.66,58.38,94.21,72.42z"/>
			</g>
		</g>
	</g>
</g>
<g id="DESIGNED_BY_FREEPIK">
</g>
</svg>
