<?xml version="1.0" encoding="utf-8"?>
<!-- Generator: Adobe Illustrator 23.0.0, SVG Export Plug-In . SVG Version: 6.00 Build 0)  -->
<svg version="1.1" xmlns="http://www.w3.org/2000/svg" xmlns:xlink="http://www.w3.org/1999/xlink" x="0px" y="0px"
	 viewBox="0 0 130.08 120.76" style="enable-background:new 0 0 130.08 120.76;" xml:space="preserve">
<style type="text/css">
	.st0{fill:url(#SVGID_1_);}
	.st1{opacity:0.2;fill:url(#SVGID_2_);}
	.st2{opacity:0.5;clip-path:url(#SVGID_4_);}
	.st3{opacity:0.5;fill:none;stroke:#FDFDFD;stroke-width:0.6868;stroke-linecap:round;stroke-linejoin:round;stroke-miterlimit:10;}
	.st4{fill:url(#SVGID_5_);}
	.st5{opacity:0.5;clip-path:url(#SVGID_7_);}
	.st6{opacity:0.2;fill:url(#SVGID_8_);}
	.st7{fill:url(#SVGID_9_);}
	
		.st8{opacity:0.25;fill:none;stroke:#FDFDFD;stroke-width:0.6868;stroke-linecap:round;stroke-linejoin:round;stroke-miterlimit:10;}
	.st9{opacity:0.2;fill:url(#SVGID_10_);}
	.st10{fill:#1A0A5D;}
</style>
<g id="OBJECTS">
	<g>
		<g>
			<linearGradient id="SVGID_1_" gradientUnits="userSpaceOnUse" x1="25.6917" y1="69.744" x2="78.5432" y2="69.744">
				<stop  offset="0.0108" style="stop-color:#3D29D5"/>
				<stop  offset="0.9946" style="stop-color:#4D60DE"/>
			</linearGradient>
			<path class="st0" d="M25.73,116.82c0,0-3.4-72.99,52.58-94.14c0,0,4.92,56.47-30.7,94.14H25.73z"/>
			<linearGradient id="SVGID_2_" gradientUnits="userSpaceOnUse" x1="38.4872" y1="69.7462" x2="78.5406" y2="69.7462">
				<stop  offset="0.0108" style="stop-color:#3D29D5"/>
				<stop  offset="0.9946" style="stop-color:#4D60DE"/>
			</linearGradient>
			<path class="st1" d="M47.61,116.82h-9.12c29.9-31.62,31.24-76.48,30.9-90.08c2.79-1.5,5.76-2.87,8.92-4.06
				C78.31,22.68,83.24,79.15,47.61,116.82z"/>
			<g>
				<defs>
					<path id="SVGID_3_" d="M25.73,116.82c0,0-3.4-72.99,52.58-94.14c0,0,4.92,56.47-30.7,94.14H25.73z"/>
				</defs>
				<clipPath id="SVGID_4_">
					<use xlink:href="#SVGID_3_"  style="overflow:visible;"/>
				</clipPath>
				<g class="st2">
					<path class="st3" d="M78.31,22.67c0,0-28.96,36.51-40.55,94.14"/>
					<path class="st3" d="M62.37,48.16c0,0,8.36-2.59,15.41-3.32"/>
					<path class="st3" d="M55.42,62.29c0,0-1.96-17.39-1.12-24.66"/>
					<path class="st3" d="M50.14,74.79c0,0,10.34-1.45,22.08-1.72"/>
					<path class="st3" d="M45.05,89.03c0,0-8.14-17.85-6.12-30.95"/>
					<path class="st3" d="M40.87,103.32c0,0,8.03-3.11,21.28-6.39"/>
					<path class="st3" d="M39.05,110.83c0,0-9.64-14.11-10.42-23.58"/>
				</g>
			</g>
		</g>
		<g>
			<linearGradient id="SVGID_5_" gradientUnits="userSpaceOnUse" x1="44.4248" y1="87.2524" x2="111.331" y2="87.2524">
				<stop  offset="0.0108" style="stop-color:#3D29D5"/>
				<stop  offset="0.9946" style="stop-color:#4D60DE"/>
			</linearGradient>
			<path class="st4" d="M44.42,116.82c0,0,0-60.83,66.91-59.09c0,0-10.14,39.69-44.02,59.09H44.42z"/>
			<g>
				<defs>
					<path id="SVGID_6_" d="M44.42,116.82c0,0,0-60.83,66.91-59.09c0,0-10.14,39.69-44.02,59.09H44.42z"/>
				</defs>
				<clipPath id="SVGID_7_">
					<use xlink:href="#SVGID_6_"  style="overflow:visible;"/>
				</clipPath>
				<g class="st5">
					<path class="st3" d="M111.33,57.73c0,0-42.58,19.41-55.9,59.09"/>
					<path class="st3" d="M90.24,70.94c0,0,7.61-0.74,16.02,0.55"/>
					<path class="st3" d="M79.2,80.46c0,0,0.61-13.9,4.86-19.26"/>
					<path class="st3" d="M69.24,91.54c0,0,14.53-1.38,24.62,1.23"/>
					<path class="st3" d="M62.72,101.06c0,0-2.89-15.4,1.21-28.5"/>
					<path class="st3" d="M57.61,111.09c0,0,9.14-2.69,20.93-2.06"/>
				</g>
			</g>
			<linearGradient id="SVGID_8_" gradientUnits="userSpaceOnUse" x1="58.0377" y1="87.2537" x2="111.3281" y2="87.2537">
				<stop  offset="0.0108" style="stop-color:#3D29D5"/>
				<stop  offset="0.9946" style="stop-color:#4D60DE"/>
			</linearGradient>
			<path class="st6" d="M111.33,57.73c0,0-10.13,39.68-44.02,59.09h-9.27c32.55-18.64,43.18-55.98,43.98-58.9
				C104.98,57.71,108.07,57.64,111.33,57.73z"/>
		</g>
		<g>
			<linearGradient id="SVGID_9_" gradientUnits="userSpaceOnUse" x1="24.7507" y1="109.7877" x2="30.2538" y2="46.0674">
				<stop  offset="0.0108" style="stop-color:#3D29D5"/>
				<stop  offset="0.9946" style="stop-color:#4D60DE"/>
			</linearGradient>
			<path class="st7" d="M46.67,108.86c0.08,3.02-1.31,6.1-3.56,7.95H12.36c-3.39-2.97-5.56-7.38-6.82-11.76
				C4,99.72,4.61,93.81,7.2,88.9c1.34-2.54,3.2-4.85,3.94-7.61c0.67-2.45,0.41-4.92-0.23-7.39c-0.38-1.52-0.9-3.05-1.43-4.58
				c-1.43-4.09-2.93-8.19-1.96-12.28c1.12-4.72,5.25-8.05,7.7-12.24c3.02-5.17,3.37-11.43,3.73-17.4c0.37-5.99,0.9-12.26,4.21-17.26
				c3.3-5,10.32-8.07,15.49-5.04c4.04,2.37,5.6,7.59,5.2,12.27c-0.4,4.67-2.35,9.04-3.8,13.49c-1.45,4.47-2.38,9.38-0.74,13.78
				c1.39,3.71,4.49,6.64,5.66,10.43c1.37,4.42-0.1,9.19-1.95,13.44c-0.11,0.27-0.23,0.54-0.35,0.81c-0.68,1.52-1.38,3.04-2.01,4.58
				c-1.01,2.49-1.82,5.04-1.95,7.72c-0.23,4.77,1.73,9.35,3.72,13.69C44.44,99.63,46.55,104.09,46.67,108.86z"/>
			<path class="st8" d="M25.33,117.95c4.65-2.18,6.7-7.91,6.29-13.03c-0.41-5.12-2.73-9.85-4.7-14.59
				c-1.97-4.74-3.64-9.89-2.68-14.94c0.73-3.83,2.94-7.28,3.46-11.14c0.76-5.64-2.16-11.35-1.13-16.94
				c0.91-4.91,4.73-8.91,5.63-13.83c0.77-4.24-0.72-8.51-1.53-12.74c-0.81-4.23-0.7-9.18,2.47-12.11"/>
			<linearGradient id="SVGID_10_" gradientUnits="userSpaceOnUse" x1="33.2075" y1="116.6338" x2="42.8822" y2="4.6102">
				<stop  offset="0.0108" style="stop-color:#3D29D5"/>
				<stop  offset="0.9946" style="stop-color:#4D60DE"/>
			</linearGradient>
			<path class="st9" d="M46.67,108.86c0.08,3.02-1.31,6.1-3.56,7.95h-7.8c2.25-1.85,3.64-4.94,3.56-7.95
				c-0.12-4.78-2.23-9.24-4.23-13.57c-1.99-4.34-3.95-8.92-3.72-13.69c0.13-2.68,0.94-5.22,1.95-7.72c0.63-1.54,1.33-3.06,2.01-4.58
				c0.11-0.27,0.23-0.54,0.35-0.81c1.84-4.25,3.32-9.02,1.95-13.44c-1.16-3.79-4.27-6.72-5.66-10.43c-1.64-4.4-0.71-9.31,0.74-13.78
				c1.44-4.46,3.4-8.83,3.8-13.49c0.4-4.67-1.16-9.9-5.2-12.27c-0.27-0.16-0.55-0.3-0.83-0.43c2.86-1.08,5.99-1.12,8.63,0.43
				c4.04,2.37,5.6,7.59,5.2,12.27c-0.4,4.67-2.35,9.04-3.8,13.49c-1.45,4.47-2.38,9.38-0.74,13.78c1.39,3.71,4.49,6.64,5.66,10.43
				c1.37,4.42-0.1,9.19-1.95,13.44c-0.11,0.27-0.23,0.54-0.35,0.81c-0.68,1.52-1.38,3.04-2.01,4.58c-1.01,2.49-1.82,5.04-1.95,7.72
				c-0.23,4.77,1.73,9.35,3.72,13.69C44.44,99.63,46.55,104.09,46.67,108.86z"/>
		</g>
		<g>
			<g>
				<path class="st10" d="M47.04,116.82c0,0,15.42-47.09,47.68-55.78c0,0-30.4,11.35-44,55.78H47.04z"/>
				<path class="st10" d="M87.55,63.7c0,0,18.16-11.17,38.01,3.72C125.56,67.42,101.82,74.16,87.55,63.7z"/>
				<path class="st10" d="M72.91,75.82c0,0,14.72-10.51,4.79-34.14C77.7,41.68,65.81,55.77,72.91,75.82z"/>
			</g>
			<g>
				<path class="st10" d="M47.04,116.82c0,0,10.51-32.09,32.49-38.01c0,0-20.71,7.73-29.98,38.01H47.04z"/>
				<path class="st10" d="M76.55,79.52c0,0,13.84-4.41,24.53,8.69C101.08,88.21,84.27,88.78,76.55,79.52z"/>
				<path class="st10" d="M62.48,91.49c0,0,7.02-10.13-4.78-23C57.71,68.49,53.32,80.27,62.48,91.49z"/>
			</g>
		</g>
	</g>
</g>
<g id="DESIGNED_BY_FREEPIK">
</g>
</svg>
