<?xml version="1.0" encoding="utf-8"?>
<!-- Generator: Adobe Illustrator 23.0.0, SVG Export Plug-In . SVG Version: 6.00 Build 0)  -->
<svg version="1.1" id="layer_1" xmlns="http://www.w3.org/2000/svg" xmlns:xlink="http://www.w3.org/1999/xlink" x="0px" y="0px"
	 viewBox="0 0 1234.4 675" style="enable-background:new 0 0 1234.4 675;" xml:space="preserve">
<style type="text/css">
	.st0{opacity:0.3;fill:url(#SVGID_1_);}
	.st1{opacity:0.3;fill:url(#SVGID_2_);}
	.st2{opacity:0.3;fill:url(#SVGID_3_);}
	.st3{opacity:0.3;fill:url(#SVGID_4_);}
	.st4{fill-rule:evenodd;clip-rule:evenodd;fill:url(#SVGID_5_);}
	.st5{fill:#FFFFFF;}
	.st6{fill:#F0F0F0;}
	.st7{fill:#D5DBE0;}
	.st8{fill:#53D6F2;}
	.st9{fill:url(#SVGID_6_);}
	.st10{fill:url(#SVGID_7_);}
	.st11{fill-rule:evenodd;clip-rule:evenodd;fill:#4D3782;}
	.st12{fill-rule:evenodd;clip-rule:evenodd;fill:#F0F0F0;}
	.st13{fill-rule:evenodd;clip-rule:evenodd;fill:url(#SVGID_8_);}
	.st14{fill-rule:evenodd;clip-rule:evenodd;fill:url(#SVGID_9_);}
	.st15{fill:#4D3782;}
	.st16{fill:url(#SVGID_10_);}
	.st17{fill:#FCD2C5;}
	.st18{fill:url(#SVGID_11_);}
	.st19{fill:url(#SVGID_12_);}
	.st20{fill:url(#SVGID_13_);}
	.st21{fill:url(#SVGID_14_);}
	.st22{fill:url(#SVGID_15_);}
	.st23{fill:url(#SVGID_16_);}
	.st24{fill:url(#SVGID_17_);}
	.st25{fill:url(#SVGID_18_);}
	.st26{fill:url(#SVGID_19_);}
	.st27{fill:#CE61D4;}
	.st28{fill-rule:evenodd;clip-rule:evenodd;fill:#D5DBE0;}
	.st29{fill-rule:evenodd;clip-rule:evenodd;fill:#FFFFFF;}
</style>
<linearGradient id="SVGID_1_" gradientUnits="userSpaceOnUse" x1="-1529.8054" y1="1991.5417" x2="-1270.152" y2="1991.5417">
	<stop  offset="0" style="stop-color:#C66FD7"/>
	<stop  offset="1" style="stop-color:#5937E5"/>
</linearGradient>
<path class="st0" d="M-1356.5,1884c-91.7-5.1-170.7,77-173.3,122.7c-2.5,45.8,69.7,87,161.3,92.1c91.7,5.1,168-27.9,170.6-73.6
	C-1195.3,1979.4-1264.8,1889.1-1356.5,1884z"/>
<linearGradient id="SVGID_2_" gradientUnits="userSpaceOnUse" x1="-355.1806" y1="1475.5121" x2="-114.2421" y2="1475.5121">
	<stop  offset="0" style="stop-color:#C66FD7"/>
	<stop  offset="1" style="stop-color:#5937E5"/>
</linearGradient>
<path class="st1" d="M-282.3,1383.6c-83,34.1-136.6,95.4-119.5,136.9s116.5,91.9,199.5,57.8c83-34.1,118.3-139.9,101.2-181.4
	C-118.1,1355.4-199.2,1349.5-282.3,1383.6z"/>
<linearGradient id="SVGID_3_" gradientUnits="userSpaceOnUse" x1="-1529.072" y1="1418.6067" x2="-1298.6282" y2="1418.6067">
	<stop  offset="0" style="stop-color:#52C5F1"/>
	<stop  offset="1" style="stop-color:#5457E2"/>
</linearGradient>
<path class="st2" d="M-1437.3,1349.9c-62.1,25.5-102.1,71.4-89.4,102.4c12.7,31,87.1,68.7,149.2,43.2
	c62.1-25.5,88.5-104.7,75.7-135.7C-1314.5,1328.8-1375.2,1324.4-1437.3,1349.9z"/>
<linearGradient id="SVGID_4_" gradientUnits="userSpaceOnUse" x1="-498.7845" y1="1936.6973" x2="-24.1959" y2="1936.6973">
	<stop  offset="0" style="stop-color:#52C5F1"/>
	<stop  offset="1" style="stop-color:#5457E2"/>
</linearGradient>
<path class="st3" d="M-361.5,1736.5c-165.7,47.5-255.3,241.9-231.6,324.6c23.7,82.7,177.3,111.2,343,63.7
	c165.7-47.5,280.8-153.1,257.1-235.8S-195.8,1689-361.5,1736.5z"/>
<g>
	<g>
		<linearGradient id="SVGID_5_" gradientUnits="userSpaceOnUse" x1="123.044" y1="506.9417" x2="174.9757" y2="506.9417">
			<stop  offset="0" style="stop-color:#C66FD7"/>
			<stop  offset="1" style="stop-color:#5937E5"/>
		</linearGradient>
		<path class="st4" d="M164.3,496.3h-30.6c-5.9,0-10.7,4.8-10.7,10.7c0,5.9,4.8,10.7,10.7,10.7h30.6c5.9,0,10.7-4.8,10.7-10.7
			C175,501,170.2,496.3,164.3,496.3z"/>
	</g>
	<g>
		<path class="st5" d="M140,506.5c0.5-0.2,0.9-0.6,1.2-1c0.3-0.5,0.4-1,0.4-1.5c0-0.5-0.1-1-0.4-1.4c-0.2-0.4-0.5-0.7-0.9-1
			c-0.4-0.2-0.8-0.4-1.2-0.5c-0.5-0.1-1.1-0.1-2.1-0.1h-4.6v11.6h4c1.5,0,2.4,0,2.8-0.1c0.6-0.1,1.1-0.3,1.6-0.6
			c0.4-0.3,0.8-0.7,1-1.2c0.2-0.5,0.4-1,0.4-1.5c0-0.7-0.2-1.3-0.6-1.8C141.2,507,140.7,506.7,140,506.5z M134.8,503h1.3
			c1.1,0,1.8,0,2,0c0.4,0,0.7,0.2,0.9,0.4c0.2,0.2,0.3,0.5,0.3,0.9c0,0.4-0.1,0.7-0.3,0.9c-0.2,0.2-0.5,0.4-0.9,0.4
			c-0.2,0-0.8,0-1.7,0h-1.5V503z M139.4,510.2c-0.2,0.2-0.5,0.4-0.9,0.5c-0.2,0-0.8,0.1-1.6,0.1h-2.2v-3.1h1.9
			c1.1,0,1.8,0.1,2.1,0.2c0.3,0.1,0.6,0.3,0.7,0.5c0.2,0.2,0.3,0.5,0.3,0.9C139.8,509.6,139.7,509.9,139.4,510.2z"/>
		<path class="st5" d="M151.1,507.5c0,0.9,0,1.6-0.1,2c-0.1,0.4-0.3,0.7-0.6,1c-0.3,0.3-0.8,0.4-1.5,0.4c-0.7,0-1.2-0.1-1.6-0.4
			c-0.4-0.3-0.6-0.7-0.7-1.1c-0.1-0.3-0.1-0.9-0.1-1.9V501h-2.3v6.2c0,1.3,0.1,2.3,0.2,2.9c0.1,0.4,0.3,0.9,0.7,1.3
			c0.3,0.4,0.8,0.7,1.4,1c0.6,0.3,1.4,0.4,2.5,0.4c0.9,0,1.7-0.1,2.2-0.4c0.6-0.2,1-0.6,1.4-0.9c0.3-0.4,0.6-0.9,0.7-1.5
			s0.2-1.6,0.2-3V501h-2.3V507.5z"/>
		<polygon class="st5" points="160.2,505.6 157.4,501 154.7,501 159,507.8 159,512.7 161.3,512.7 161.3,507.8 165.6,501 162.9,501 
					"/>
	</g>
	<g>
		<g>
			<rect x="110.9" y="516" class="st5" width="49" height="42"/>
		</g>
		<g>
			<rect x="159.9" y="516" class="st6" width="18" height="42"/>
		</g>
	</g>
	<g>
		<polygon class="st7" points="110.9,542 151.8,542 159.9,516 110.9,516 		"/>
	</g>
	<g>
		<polygon class="st7" points="160.1,517.1 168,551 177.9,551 177.9,516 159.9,516 		"/>
	</g>
	<g>
		<polygon class="st5" points="101.5,533.1 151.8,533.1 160,515.9 111.2,515.9 		"/>
	</g>
	<g>
		<polygon class="st6" points="160.1,515.9 167.5,536.6 185.3,536.6 177.9,515.9 		"/>
	</g>
</g>
<g>
	<g>
		<path class="st8" d="M61.3,464.3c-0.9,4.4,0.4,9.6-0.3,14.2c-1,5.7-4.6,7.3-7,10.9c-2.9,4.2-4.2,12.2-3.1,18.9
			c0.7,4.2,2.1,7.7,3.1,11.5c1.1,3.8,1.8,8.5,0.9,12.5c-1.4,6-8.7,10.7-8.7,36.2c0,23.3,16.6,32.3,21.3,38V455.6l-2.1,2.1
			C63.7,459.2,62,461,61.3,464.3z"/>
		<path class="st8" d="M80.7,519.7c1.1-3.8,2.5-7.3,3.1-11.5c1.1-6.8-0.3-14.7-3.1-18.9c-2.4-3.6-6-5.2-7-10.9
			c-0.8-4.5,0.6-9.7-0.3-14.2c-0.7-3.3-2.4-5.1-4-6.6l-2.1-2.1v150.9c4.7-5.7,21.3-14.7,21.3-38c0-25.5-7.3-30.2-8.7-36.2
			C79,528.3,79.7,523.6,80.7,519.7z"/>
	</g>
	<g>
		<linearGradient id="SVGID_6_" gradientUnits="userSpaceOnUse" x1="67.3449" y1="580.0446" x2="93.7646" y2="580.0446">
			<stop  offset="0" style="stop-color:#C66FD7"/>
			<stop  offset="1" style="stop-color:#5937E5"/>
		</linearGradient>
		<path class="st9" d="M88.5,554.4c-1.1,1.4-0.6,3.6-1.6,5.1c-1.2,1.9-4,1.8-6.1,2.7c-2.5,1-4.2,3.7-4.1,6.3
			c0.1,1.7,0.8,3.2,1.2,4.8c0.4,1.6,0.5,3.5-0.6,4.8c-1.6,1.9-7.3,2.3-9.7,11.6c-2.2,8.5,8.9,15,11.7,17.9l14.4-55.3l-1.7,0.4
			C90.7,553,89.3,553.4,88.5,554.4z"/>
		<linearGradient id="SVGID_7_" gradientUnits="userSpaceOnUse" x1="79.1583" y1="579.9918" x2="101.4654" y2="579.9918">
			<stop  offset="0" style="stop-color:#C66FD7"/>
			<stop  offset="1" style="stop-color:#5937E5"/>
		</linearGradient>
		<path class="st10" d="M96.1,561.9c-0.1-1.8,1.4-3.5,1.1-5.3c-0.2-1.3-1.3-2.3-2.3-3.2l-1.3-1.2l-14.4,55.3
			c3.9-1.2,16.8-1.4,19-9.9c2.4-9.3-2.4-12.4-2.8-14.9c-0.3-1.6,0.7-3.2,1.8-4.4c1.1-1.2,2.5-2.2,3.4-3.6c1.4-2.3,1.2-5.4-0.5-7.5
			C98.7,565.5,96.2,564.2,96.1,561.9z"/>
	</g>
	<path class="st5" d="M40,602.7c0,0,10.4,11.1,10.4,18.6c0,2-0.7,5-1.8,8.5c-3.4,10.9,4.6,21.9,16,21.9H92c11.4,0,19.4-11.1,16-21.9
		c-1.1-3.4-1.8-6.5-1.8-8.5c0-7.5,10.4-18.6,10.4-18.6H40z"/>
</g>
<g>
	<polygon class="st7" points="244.9,196.5 254.3,196.5 255.5,186.3 240.4,186.3 	"/>
	<g>
		<path class="st7" d="M220.5,159.8l-10.6-1.6l7,12.7l8.9-2.9c0-0.1,0-4.7,0-4.7C225.8,160.5,223.4,159.8,220.5,159.8z"/>
		<path class="st7" d="M216.9,175.7l-7,12.7l10.6-1.6c2.9,0,5.2-0.6,5.2-3.5c0,0,0-4.5,0-4.7L216.9,175.7z"/>
	</g>
	<path class="st6" d="M207.9,173.9c0,0,72.5-0.1,72.6,0C272,143.9,211.9,160.6,207.9,173.9z"/>
	<path class="st7" d="M207.9,173.9c4,13.3,64.1,30,72.6,0C280.3,174,207.9,173.9,207.9,173.9z"/>
	<path class="st7" d="M251,163.9c-26.3,0-42.9,9.8-43.1,9.9h72.6C280.3,173.7,277.2,163.9,251,163.9z"/>
	<path class="st6" d="M251,183.8c26.2,0,29.3-9.8,29.5-9.9h-72.6C208.1,174,224.7,183.8,251,183.8z"/>
	<polygon class="st7" points="280.5,173.9 280.5,173.9 280.5,173.9 	"/>
</g>
<g>
	<path class="st6" d="M1122.3,153.9c-2.9,0-5.4,1.5-7,3.5h14.1C1127.7,155.3,1125.2,153.9,1122.3,153.9z"/>
	<path class="st6" d="M1087.8,150c-3,0-5.3,3.6-8,2.9c-5.9-1.4-8.4-9-14.9-9c-5,0-7.9,6.2-12.6,5.8c-7.3-0.7-10.7-10.6-18.6-10.6
		c-7.3,0-10.9,8.5-17.7,9.2c-4,0.4-6.9-4.3-11.2-4.3c-8.2,0-8.9,3.2-16.4,5.6c-2.2,0.7-3.8,4.9-6.2,4.9c-2.9,0-5.4,0.9-7,2.9h124.8
		C1098,153.3,1093.3,150,1087.8,150z"/>
</g>
<g>
	<path class="st6" d="M110.5,122.5c-2.9,0-5.4,1.5-7,3.5h14.1C115.9,124,113.3,122.5,110.5,122.5z"/>
	<path class="st6" d="M250.5,123.1c-2.4,0-0.3-4-6.2-4.9c-10.1-1.5-8.2-5.6-16.4-5.6c-4.3,0-7.2,4.8-11.2,4.3
		c-6.8-0.8-10.3-9.2-17.7-9.2c-7.9,0-11.2,9.9-18.6,10.6c-4.6,0.4-7.5-5.8-12.6-5.8c-6.5,0-8.9,7.6-14.9,9c-2.7,0.6-5-2.9-8-2.9
		c-5.5,0-10.2,3.4-12.2,7.4h124.8C255.9,124,253.3,123.1,250.5,123.1z"/>
</g>
<g>
	<g id="XMLID_76_">
		<g>
			<g>
				<polygon class="st11" points="1073.5,553 1074.5,560.2 1078.6,559.6 1077.2,548.6 				"/>
			</g>
			<g>
				<polygon class="st11" points="1094.6,546.3 1096,557.3 1100.2,556.7 1099.2,549.5 				"/>
			</g>
			<g>
				<polygon class="st12" points="1077.2,548.6 1073.5,553 1099.2,549.5 1094.6,546.3 				"/>
			</g>
			<g>
				<polygon class="st12" points="1065.6,559.7 1070.4,628.8 1122.3,621.8 1108.6,553.9 				"/>
			</g>
		</g>
		<g>
			<g>
				<polygon class="st11" points="1099,566.2 1100.5,576.8 1105,576.2 1102.8,560 				"/>
			</g>
			<g>
				<polygon class="st11" points="1121.8,557.5 1124,573.7 1128.5,573 1127.1,562.4 				"/>
			</g>
			<g>
				<linearGradient id="SVGID_8_" gradientUnits="userSpaceOnUse" x1="1099.036" y1="561.8318" x2="1127.0793" y2="561.8318">
					<stop  offset="0" style="stop-color:#C66FD7"/>
					<stop  offset="1" style="stop-color:#5937E5"/>
				</linearGradient>
				<polygon class="st13" points="1102.8,560 1099,566.2 1127.1,562.4 1121.8,557.5 				"/>
			</g>
			<g>
				<linearGradient id="SVGID_9_" gradientUnits="userSpaceOnUse" x1="1090.7059" y1="597.5991" x2="1149.1157" y2="597.5991">
					<stop  offset="0" style="stop-color:#C66FD7"/>
					<stop  offset="1" style="stop-color:#5937E5"/>
				</linearGradient>
				<polygon class="st14" points="1090.7,575.7 1092.5,625.8 1149.1,618.2 1137.6,569.4 				"/>
			</g>
		</g>
		<g>
			<g>
				<polygon class="st6" points="1131.8,579 1131.3,578.7 1130.9,579.1 1130.4,578.8 1130,579.2 1129.5,578.9 1129.1,579.3 
					1128.6,579 1128.2,579.5 1127.7,579.2 1127.3,579.6 1126.8,579.3 1126.4,579.7 1125.8,579.4 1125.4,579.8 1124.9,579.5 
					1124.5,580 1124,579.6 1123.6,580.1 1123.1,579.8 1122.7,580.2 1122.2,579.9 1121.8,580.3 1121.3,580 1120.9,580.4 
					1120.4,580.1 1120,580.6 1119.5,580.3 1119.1,580.7 1118.6,580.4 1118.2,580.8 1117.7,580.5 1117.3,580.9 1116.8,580.6 
					1116.4,581.1 1115.9,580.7 1115.5,581.2 1115,580.9 1114.6,581.3 1114.1,581 1113.7,581.4 1113.2,581.1 1112.8,581.5 
					1112.3,581.2 1111.9,581.7 1111.4,581.3 1111,581.8 1110.5,581.5 1110,581.9 1109.5,581.6 1109.1,582 1108.6,581.7 
					1108.2,582.1 1107.7,581.8 1107.3,582.3 1106.8,582 1106.4,582.4 1105.9,582.1 1105.5,582.5 1105,582.2 1104.6,582.6 
					1104.1,582.3 1103.7,582.8 1103.2,582.4 1102.8,582.9 1102.3,582.6 1101.9,583 1101.9,583.1 1107.4,623.8 1137.3,619.8 
					1131.8,579 				"/>
			</g>
			<g>
				<polygon class="st7" points="1137.3,619.8 1149.1,618.2 1142.7,615.5 				"/>
			</g>
			<g>
				<polygon class="st15" points="1143.6,577.5 1143.6,577.4 1143.6,577.4 1143.1,577.1 1142.7,577.6 1142.7,577.6 1142.2,577.2 
					1141.8,577.7 1141.8,577.7 1141.3,577.3 1140.9,577.8 1140.9,577.8 1140.4,577.4 1140,577.9 1140,577.9 1139.5,577.6 
					1139.1,578.1 1139.1,578.1 1139.1,578.1 1138.6,577.7 1138.2,578.2 1138.2,578.2 1138.2,578.2 1137.7,577.8 1137.7,577.8 
					1137.7,578.2 1142.7,615.5 1149.1,618.2 1143.6,577.5 				"/>
			</g>
			<g>
				<polygon class="st7" points="1137.7,577.8 1137.7,577.8 1137.3,578.2 1136.8,577.9 1136.4,578.4 1135.9,578.1 1135.5,578.5 
					1135,578.2 1134.6,578.6 1134.1,578.3 1133.7,578.7 1133.2,578.4 1132.8,578.9 1132.3,578.5 1131.8,579 1137.3,619.8 
					1142.7,615.5 1137.7,578.2 				"/>
			</g>
		</g>
		<g id="XMLID_77_">
			<g>
				<polygon class="st15" points="1045,650.6 1045,654.8 1072.9,650.3 1137.2,654.8 1137.2,650.6 1072.9,646.1 				"/>
			</g>
			<g id="XMLID_85_">
				<path class="st5" d="M1137.3,645.3c-3.9,0-7,3.2-7,7.1c0,3.9,3.2,7,7.1,7c3.9,0,7-3.2,7-7.1
					C1144.3,648.4,1141.2,645.3,1137.3,645.3z"/>
			</g>
			<g id="XMLID_78_">
				<path class="st5" d="M1044.9,645.3c-3.9,0-7,3.2-7,7.1c0,3.9,3.2,7,7.1,7c3.9,0,7-3.2,7-7.1
					C1052,648.4,1048.8,645.3,1044.9,645.3z"/>
			</g>
			<g>
				<g>
					<path class="st5" d="M1145.7,580.1l-23.8-2.6v0l0,0l-14.2-1.6l-0.1-0.3l-0.6,0.2l-27.4-3l0,0l-0.1,0l-28.7-3.1
						c-2.5-7.3-4.2-12.1-4.2-12.1l-4.4,1.5l28.4,83.8c-1.5,0.7-2.6,2.2-2.6,4c0,2.4,2,4.3,4.4,4.3c1.1,0,2.2-0.5,2.9-1.2
						c0.8-0.8,1.4-1.9,1.4-3.2c0-0.5-1.8-6.2-4.6-14.4c5.5-0.7,76.2-9.7,76.2-9.8c1.6-0.9,2.7-2.6,2.7-4.5l0.4-31.4
						C1151.4,583.3,1149,580.5,1145.7,580.1z M1132.9,582.2l5.3,17.1l-9.7,0.1l-5.5-18.2C1126.6,581.5,1130,581.9,1132.9,582.2z
						 M1119,580.8l5.7,18.6l-9.7,0.1l-6.1-19.7C1112.4,580.1,1115.8,580.5,1119,580.8z M1104.9,579.4l6.3,20.1l-9.7,0.1l-6.6-21.2
						C1098.2,578.7,1101.6,579.1,1104.9,579.4z M1090.9,578l6.7,21.6l-9.7,0.1l-7.1-22.7C1084.1,577.3,1087.4,577.7,1090.9,578z
						 M1076.9,576.6l7.2,23.2l-9.7,0.1l-7.6-24.2C1069.9,575.9,1073.3,576.3,1076.9,576.6z M1052.3,574.2c0.6,0.1,4.6,0.5,10.6,1
						l7.7,24.7l-9.4,0.1C1058,590.7,1054.9,581.6,1052.3,574.2z M1070.9,628.8c-2.5-7.4-5.5-16.3-8.5-25.2l9.3-0.1l7.5,24.2
						C1075.4,628.2,1072.5,628.6,1070.9,628.8z M1082.9,627.2l-7.4-23.7l9.7-0.1l7,22.6C1088.9,626.4,1085.8,626.8,1082.9,627.2z
						 M1096,625.5l-6.9-22.1l9.7-0.1l6.5,21C1102.1,624.6,1099,625.1,1096,625.5z M1109,623.7l-6.4-20.5l9.7-0.1l6,19.4
						C1115.3,622.9,1112.1,623.3,1109,623.7z M1122,622l-5.9-18.9l9.7-0.1l5.4,17.8C1128.3,621.1,1125.2,621.6,1122,622z
						 M1134.9,620.3l-5.3-17.3l9.7-0.1l5,16.1C1142.1,619.3,1138.8,619.7,1134.9,620.3z M1147.7,616.7c0,0.1,0,0.3,0,0.4l-4.4-14.2
						l4.6,0L1147.7,616.7z M1147.9,599.2l-5.8,0.1l-5.2-16.7c4.9,0.5,7.9,0.8,7.9,0.8c2.7,0.8,3.2,4.7,3.1,7.6L1147.9,599.2z"/>
				</g>
			</g>
			<g>
				<g>
					<linearGradient id="SVGID_10_" gradientUnits="userSpaceOnUse" x1="1022.2287" y1="558.8091" x2="1048.6162" y2="558.8091">
						<stop  offset="0" style="stop-color:#C66FD7"/>
						<stop  offset="1" style="stop-color:#5937E5"/>
					</linearGradient>
					<path class="st16" d="M1045.1,555.2C1045.1,555.2,1045.1,555.2,1045.1,555.2l-19.5,0.2c-0.9,0-1.8,0.4-2.4,1
						c-0.7,0.7-1,1.5-1,2.5c0,0.9,0.4,1.8,1,2.4c0.7,0.7,1.6,1,2.5,1l19.4-0.2c1.9,0,3.5-1.6,3.4-3.5
						C1048.6,556.8,1047,555.2,1045.1,555.2z"/>
				</g>
			</g>
		</g>
	</g>
	<g id="XMLID_2204_">
		<g id="XMLID_2205_">
			<g id="XMLID_2215_">
				<g id="XMLID_2216_">
					<g id="XMLID_75_">
						
							<ellipse transform="matrix(0.7071 -0.7071 0.7071 0.7071 -124.6902 904.4823)" class="st5" cx="1029.5" cy="602.8" rx="15.5" ry="15.5"/>
					</g>
				</g>
			</g>
		</g>
	</g>
	<g id="XMLID_2202_">
		<g>
			<g>
				<path class="st7" d="M1036.3,596.4c-0.3-0.2-0.6-0.3-0.9-0.2c-0.3,0-0.6,0.2-0.8,0.5l-6.5,8.3c-0.2,0.3-0.6,0.5-1,0.4
					c-0.4,0-0.7-0.2-0.9-0.5l-1.9-2.9c-0.2-0.3-0.5-0.5-0.9-0.5c-0.1,0-0.1,0-0.2,0c-0.3,0-0.6,0.1-0.8,0.3
					c-0.5,0.4-0.6,1.1-0.2,1.6l3.8,5.7l1,0.5c0.4,0,0.8-0.2,1-0.5l8.5-10.9C1037,597.5,1036.9,596.8,1036.3,596.4L1036.3,596.4z"/>
			</g>
		</g>
	</g>
	<g id="XMLID_2156_">
		
			<ellipse transform="matrix(0.1602 -0.9871 0.9871 0.1602 391.3899 1665.8683)" class="st6" cx="1174.7" cy="602.9" rx="15.5" ry="15.5"/>
	</g>
	<g>
		<g>
			<path class="st5" d="M1175.3,593.5c-0.3,0-0.6,0.1-0.9,0.3c-0.5,0.4-0.6,1.2-0.1,1.7l3.6,4.3c0.3,0.3,0.4,0.8,0.2,1.2
				c-0.2,0.4-0.6,0.7-1,0.7h-9.2c-0.7,0-1.2,0.5-1.2,1.2c0,0.7,0.5,1.2,1.2,1.2h8.6c0.4,0,0.8,0.2,1,0.6c0.2,0.4,0.2,0.8-0.1,1.2
				l-3.2,4.5c-0.4,0.5-0.3,1.3,0.3,1.7c0.5,0.4,1.3,0.2,1.7-0.3l6.4-8.9c0.3-0.5,0.3-1.1-0.1-1.5L1175.3,593.5z"/>
		</g>
	</g>
</g>
<g>
	<path class="st17" d="M246.4,586.3c0.1,2.7,11.3,59.4,11.3,59.4c0.1,0.1,2.3,0.1,3.6-1.2c0,0-2.6-56.4-2.6-57.5
		C257.8,587.9,248,587.3,246.4,586.3z"/>
	<path class="st15" d="M255.6,558.9c-5.1,1.3-10.2,2.5-15.4,3.4l0.4,3.5c1.6,1,3,18.5,7.5,36.6c5.3,21,9,41.4,9,41.4
		c1.3-1.3,3.3-1.4,4.6-0.6c0,0-0.9-57.2-1.8-85.5C258.5,558.2,257.1,558.5,255.6,558.9z"/>
	<linearGradient id="SVGID_11_" gradientUnits="userSpaceOnUse" x1="257.4955" y1="647.5378" x2="268.7665" y2="647.5378">
		<stop  offset="0" style="stop-color:#C66FD7"/>
		<stop  offset="1" style="stop-color:#5937E5"/>
	</linearGradient>
	<path class="st18" d="M262.1,644.3c-0.6-0.6-0.8-0.9-0.8-0.9s-2.9-0.7-3.8,1.4c0,0,0,2.5,0.7,3.4c0.4,0.5,2.6,2.8,3.7,3.3
		c0.9,0.4,2.2,0.3,3.7,0.1c1.5-0.2,3.3-1.2,3.2-2.1C268.6,647.8,263.3,645.4,262.1,644.3z"/>
	<linearGradient id="SVGID_12_" gradientUnits="userSpaceOnUse" x1="258.4734" y1="648.5548" x2="267.9789" y2="648.5548">
		<stop  offset="0" style="stop-color:#C66FD7"/>
		<stop  offset="1" style="stop-color:#5937E5"/>
	</linearGradient>
	<path class="st19" d="M261.4,645.6c-1.5-1-4,0.8-2.3,3.1c0.3,0.4,2.2,2.4,3.1,2.8c0.7,0.3,1.9,0.3,3.1,0.1c1.3-0.2,2.8-1,2.7-1.8
		C267.8,648.4,262.9,646.7,261.4,645.6z"/>
	<g>
		<path class="st17" d="M172.9,527.9c-0.2,0.3,0.8,1.6,1.1,1.8c0.9,0.1,1-0.5,1.9-0.3c-0.7-0.3-1.4-0.8-2.1-1.3
			C173.5,527.8,173.3,527.4,172.9,527.9z"/>
		<path class="st17" d="M173.8,529.1c-1.1-0.1-3.6-0.1-3.8-0.1c-0.5,0-1.8,0-2.2,0.1c-0.2,0.1-0.8,0.6-0.9,0.9
			c-0.1,0.4,0.3,0.7,0.3,0.7c-0.3,0.5,1.1,0.9,1,1c-0.4,0.4,0.1,1.1,2.1,1c0.1,0,5,0.8,6.6,0.9c0.2-1-0.2-4-0.3-4
			C175.7,529.3,174.8,529.2,173.8,529.1z"/>
		<path class="st17" d="M204.6,526.7c-0.3-0.1-0.6-0.1-0.9-0.1c-4.8,0.1-22.4,3.6-27.4,2.9c0.1,1.6,0.1,3-0.1,4c8.2,1,29,1,30.3-2
			C207.7,528.7,206,527.2,204.6,526.7z"/>
		<path class="st17" d="M221,507.3c-3.6,2.6-12.6,13.6-17.9,18.1c-6.5,5.5-0.4,8.1,2.1,7.1c6.6-2.7,23.5-13.2,22.5-16.8
			C227.3,514.1,221.7,506.8,221,507.3z"/>
		<linearGradient id="SVGID_13_" gradientUnits="userSpaceOnUse" x1="176.0961" y1="519.623" x2="228.7211" y2="519.623">
			<stop  offset="0" style="stop-color:#5937E5"/>
			<stop  offset="1" style="stop-color:#C66FD7"/>
		</linearGradient>
		<path class="st20" d="M221.2,504.2c-3.7,4.7-5.8,7.1-9.2,10.8c-3.4,3.7-6.9,7.5-9.5,9.7c-0.5,0.4-0.9,0.8-1.2,1.1
			c-2,0.2-4.8,0.6-7.7,1c-6.3,0.9-14.2,2.1-17.1,1.7l-0.3,6c7.3,0.8,24.4,1,29.6-1.1c5.4-2.2,18.1-9.2,22.9-11.9
			C230,520.6,221.4,503.9,221.2,504.2z"/>
	</g>
	<path class="st17" d="M226.3,588.8c0.1,1.2,3.4,57.5,3.4,57.5c1.4,1.2,3.7,0.9,3.7,0.8c0,0,5.3-57.5,5.1-60.2
		C237,588.1,227.3,589.7,226.3,588.8z"/>
	<path class="st15" d="M221.3,544.6c-0.6,4,7.9,100.5,7.9,100.5c1.2-0.9,3.2-1,4.6,0.1c0,0,1.6-20.7,4.7-42.2
		c2.6-18.5,2.2-36.1,3.7-37.2v-19.6C234.7,546.8,223.8,545.7,221.3,544.6z"/>
	<path class="st6" d="M248.1,549c-7.5,0.9-15,1-22.5,1.1c-1.7,0-3.4,0.1-5.1,0c0.2,6.3-0.3,10.1,0.5,15.6c14.8,2.5,31,3.5,37.2,1.4
		c1.1-0.4,4.1-1.7,4.3-2.1c0.2-5.8-0.5-12.7-1.5-19.6C257,547.3,252.7,548.4,248.1,549z"/>
	<path class="st17" d="M240.5,486.7c-0.5,0.4-5.9,3.4-7.5,3.2c0,0.4,1.2,4,0.2,6.4c0.4,2.3,6.8,4.2,8.6,0.3
		C241.1,495.5,240.1,488.8,240.5,486.7z"/>
	<path class="st17" d="M234.8,479.2c-2.8-0.2-5.6,0.5-6.2,3.2c-0.2,1,0.2,9.7,4.8,11c2,0.6,5.7-2.8,5.9-5.1c0,0,0.2-3.1,0.2-3.1
		C239.7,482,237.8,479.4,234.8,479.2z"/>
	<linearGradient id="SVGID_14_" gradientUnits="userSpaceOnUse" x1="219.2711" y1="530.2028" x2="262.1829" y2="530.2028">
		<stop  offset="0" style="stop-color:#C66FD7"/>
		<stop  offset="1" style="stop-color:#5937E5"/>
	</linearGradient>
	<path class="st21" d="M241.6,496.1c0,0-1.6,1.7-4.3,1.5c-3-0.2-4.1-1.3-4.1-1.3s-5.5,2-7.1,2.6c-4.6,1.8-5.6,5.7-5.2,9.9
		c0.1,1-3.4,34-0.4,55.4c0.7-0.1,2.6-0.1,3.5-0.1l0.7-13.9l3,13.9c9.5,0.1,23.8,0.7,30.2-0.9l0.3-12.6l2,11.8c0.5-0.3,1.9-0.8,2-1.2
		c0.6-19.7-4.1-48.4-4.7-50.8C253.8,496.1,241.6,496.1,241.6,496.1z"/>
	<linearGradient id="SVGID_15_" gradientUnits="userSpaceOnUse" x1="222.7944" y1="649.4302" x2="233.5694" y2="649.4302">
		<stop  offset="0" style="stop-color:#C66FD7"/>
		<stop  offset="1" style="stop-color:#5937E5"/>
	</linearGradient>
	<path class="st22" d="M229.6,645.2c0,0-0.2,0.3-0.7,1c-1.1,1.2-6.1,4.2-6.1,5.9c0,0.9,1.9,1.7,3.4,1.8c1.5,0.1,2.9,0,3.7-0.5
		c1-0.6,3-3.1,3.3-3.7c0.6-1,0.3-3.4,0.3-3.4C232.4,644.2,229.6,645.2,229.6,645.2z"/>
	<linearGradient id="SVGID_16_" gradientUnits="userSpaceOnUse" x1="223.6147" y1="650.4557" x2="232.7969" y2="650.4557">
		<stop  offset="0" style="stop-color:#C66FD7"/>
		<stop  offset="1" style="stop-color:#5937E5"/>
	</linearGradient>
	<path class="st23" d="M229.8,647.4c-1.4,1.2-6.1,3.5-6.1,4.9c0,0.8,1.6,1.4,2.9,1.5c1.3,0.1,2.4,0,3.1-0.4c0.9-0.5,2.5-2.6,2.8-3.1
		C233.8,647.8,231.1,646.3,229.8,647.4z"/>
	<linearGradient id="SVGID_17_" gradientUnits="userSpaceOnUse" x1="223.9972" y1="483.5201" x2="243.6155" y2="483.5201">
		<stop  offset="0" style="stop-color:#A1D8F6"/>
		<stop  offset="1" style="stop-color:#9E90F2"/>
	</linearGradient>
	<path class="st24" d="M240.8,475.7c-4.4-3.5-12-0.2-14,4.4c-1.5,3.4-2.8,1-2.7,0.1c-0.5,2.3,0.5,4.2,4.9,3.9c0.9-0.1-2,0.8-2,0.8
		s4.6,9.7,11.9,7.4c2.1-0.7,4-2.8,4-2.8s-2.3,0.4-1.1-1.5C244.1,484.4,244.7,478.8,240.8,475.7z"/>
</g>
<g>
	<g>
		<path class="st17" d="M1022.3,550c-0.9,0-1.9-0.1-2.8-0.4c0.9,0.4,0.6,1,1.5,1.6c0.4,0.1,2.3-0.3,2.3-0.8
			C1023.3,549.7,1022.8,549.9,1022.3,550z"/>
		<path class="st17" d="M1025.1,553.6c-0.2-0.1-2.4-2-3.5-2.7c-0.9-0.6-1.9-1.2-2.8-1.6c-0.1,0-2.6,2.4-3.2,3.4c1.5,1,6.5,3.9,6.6,4
			c1.7,1.5,2.6,1.3,2.6,0.6c0-0.2,1.5,0.4,1.6-0.2c0,0,0.5,0,0.7-0.4c0.1-0.3,0-1.2-0.1-1.5C1026.7,554.8,1025.5,554,1025.1,553.6z"
			/>
		<path class="st17" d="M995.2,497c-0.2-0.9-10.6,1.6-12.1,2.7c-3.5,2.5,4,24.2,7.9,31.4c1.5,2.7,8.9,4.9,7-4.8
			C996.5,518.4,996.5,501.9,995.2,497z"/>
		<path class="st17" d="M996.7,526.9c-0.2-0.2-0.5-0.4-0.9-0.5c-1.6-0.6-4.2-0.5-5.2,2.8c-1.1,3.7,17.6,18.7,25.7,23.9
			c0.6-1.1,1.6-2.3,2.9-3.7C1014.1,546.4,1000.9,530.4,996.7,526.9z"/>
		<path class="st8" d="M1004.7,533.9c-2.2-2.5-4.3-4.8-5.9-6.4c0-0.6-0.1-1.2-0.2-1.9c-0.7-3.8-1-9.6-1.2-15.2
			c-0.3-5.6-0.5-10.9-1.2-13.4c-0.1-0.4-0.4-0.7-0.8-0.9c-1.7-0.7-11.2,1.6-12.7,2.6c-4.7,3.2,3.8,26.3,6.9,32.1
			c2.9,5.6,17.8,17.8,24.7,22.3l4-5.4C1015.5,545.9,1009.5,539.3,1004.7,533.9z"/>
	</g>
	<path class="st15" d="M907.3,632.7c0,0-1.4,0-2.1,1.1c-0.4,0.6-0.1,2.9-0.3,4.3c-0.1,1.1,0.4,2.6,1.1,4.2c0.8,1.6,2.5,3.2,3.4,2.8
		c1.9-0.8,0.6-6.6,1.4-8.2c0.4-0.9,1.2-2,1.2-2l-3.2-2.5C908.7,632.1,908.2,632,907.3,632.7z"/>
	<path class="st17" d="M907.3,632.7c0,0,0.1,2.4,0.8,2.9c1.2,1,2.7,1.1,2.7,1.1c0.7-1.3,1.4-2,1.4-2l-3.3-3
		C908.9,631.7,908.2,632,907.3,632.7z"/>
	<linearGradient id="SVGID_18_" gradientUnits="userSpaceOnUse" x1="945.8802" y1="635.541" x2="945.8802" y2="537.4081">
		<stop  offset="0" style="stop-color:#C66FD7"/>
		<stop  offset="1" style="stop-color:#5937E5"/>
	</linearGradient>
	<path class="st25" d="M940.8,596.2c-3.4,8.6-33.2,36.3-33.2,36.3c0.8,2.5,3.8,3.2,3.9,3.1c0,0,36.9-20.2,43.7-33
		c14.2-26.8,28.3-54.8,29-57.1c-3.1,0-15.2-4-22.8-8C961.3,537.4,948.8,576.1,940.8,596.2z"/>
	<path class="st17" d="M978.1,582.1c-0.2,3.1,5.8,71.8,5.8,71.8c0,0.1,2.7,0.4,4.3-1c0,0,3.8-67.3,3.9-68.6
		C991,585.4,979.8,583.5,978.1,582.1z"/>
	<path class="st15" d="M989.1,652.8c-0.6-0.7-1.4-1.9-1.4-1.9l-3.6,2c0,0-0.3,0.4-0.1,1.5c0,0-0.5,1.3,0.1,2.4
		c0.4,0.6,2.8,1.6,3.8,1.9c1,0.3,2.5,0.7,4.3,0.6c1.8-0.1,3.9-1,3.9-2C996.2,655.3,990.3,654.3,989.1,652.8z"/>
	<path class="st17" d="M983.8,652.6c0,0,0.1,0.8,0.3,1.9c0,0,2.2,0.8,3,0.4c1.4-0.8,2.1-2,2.1-2c-0.9-1.1-1.3-2.1-1.3-2.1
		L983.8,652.6z"/>
	<linearGradient id="SVGID_19_" gradientUnits="userSpaceOnUse" x1="985.8423" y1="652.6295" x2="985.8423" y2="533.3096">
		<stop  offset="0" style="stop-color:#C66FD7"/>
		<stop  offset="1" style="stop-color:#5937E5"/>
	</linearGradient>
	<path class="st26" d="M973.8,535.3v22.6c1.7,1.3,1.2,21.6,4.3,42.9c3.5,24.7,5.4,50.9,5.4,50.9c1.8,1.9,5.3,0,5.3-0.2
		c0,0,9.8-113.7,9.2-118.3C995,534.6,982.4,535.9,973.8,535.3z"/>
	<path class="st27" d="M955.1,535.9c0,0-1.9,11.9-2.3,19.6c0,0,14.7,4.4,32.8,1.6l1.8-3.8l1.3,3.8c4-0.1,6.4-0.4,8.9-2.7
		c1.3-1.2,0.2-13.5,0.2-13.5L955.1,535.9z"/>
	<g>
		<g>
			<g>
				<polygon class="st28" points="985.7,552.4 989.3,559.7 992,558.3 989.7,553.6 				"/>
			</g>
			<g>
				<polygon class="st28" points="972.7,562 975.1,566.8 977.8,565.4 974.2,558.2 				"/>
			</g>
			<g>
				<polygon class="st12" points="974.2,558.2 972.7,562 989.7,553.6 985.7,552.4 				"/>
			</g>
			<g>
				<polygon class="st12" points="968.8,568.6 988.5,615.2 1022.7,598.1 997.2,554.4 				"/>
			</g>
		</g>
		<g>
			<g>
				<polygon class="st12" points="987.4,567 990.7,567.7 992.3,560.1 989.9,555.4 				"/>
			</g>
			<g>
				<polygon class="st12" points="970.7,563.4 973.9,564.1 976.4,552.5 972.3,555.8 				"/>
			</g>
			<g>
				<polygon class="st29" points="976.4,552.5 972.3,555.8 992.3,560.1 989.9,555.4 				"/>
			</g>
			<g>
				<polygon class="st29" points="953.3,594.8 993.7,603.5 997.8,567.4 964.3,560.2 				"/>
			</g>
		</g>
	</g>
	<path class="st17" d="M983.5,479.1c-1.8,0.3-8.1-3-8.7-3.5c0.4,2.4-0.1,9.1-0.9,10.4c2.1,4.4,9.3,4.2,9.8,1.6
		C982.4,484.8,983.5,479.6,983.5,479.1z"/>
	<path class="st8" d="M996.2,500.6c0.5-3.6-0.5-8-5.1-10.5c-1.2-0.6-7.6-2.4-7.6-2.4s-1.5,1.9-3.2,1.8c-2.6-0.1-6.6-3.4-6.6-3.4
		s-5.5,1.6-7.3,2.1c-5.5,1.5-7.1,5.8-7.4,10.6c-0.1,1.8-9.2,37.4-3.5,43.1c4.3,4.3,37.3,4.5,42.4,2
		C1001.7,542,994.4,513.2,996.2,500.6z"/>
	<g>
		<path class="st17" d="M984.5,553.7c-0.9-0.3-1.8-0.7-2.5-1.2c0.8,0.7,0.2,1.1,0.9,2c0.4,0.3,2.3,0.4,2.4,0
			C985.5,553.8,985,553.8,984.5,553.7z"/>
		<path class="st17" d="M986,558c-0.1-0.2-1.7-2.6-2.5-3.6c-0.7-0.9-1.4-1.7-2.2-2.4c0,0-3.2,1.5-4.1,2.3c1.1,1.5,4.9,5.7,5,5.8
			c1.2,2,2.1,2,2.3,1.4c0-0.2,1.3,0.9,1.6,0.3c0,0,0.5,0.2,0.8-0.2c0.2-0.3,0.4-1.1,0.3-1.4C987.2,559.7,986.3,558.5,986,558z"/>
		<path class="st17" d="M962.8,493.7c-4.1,1.2-3.7,24.2-2.2,32.3c0.6,3.1,7,7.4,8.2-2.4c1-8,6.1-23.6,6.3-28.7
			C975.2,494,964.6,493.2,962.8,493.7z"/>
		<path class="st17" d="M966.6,523c-1.3-1.1-3.9-1.8-5.8,1.1c-2.1,3.2,10.9,23.3,17,30.7c0.9-0.8,2.2-1.7,3.9-2.6
			c-3.8-4.4-11.5-23.7-14.3-28.4C967.2,523.5,966.9,523.3,966.6,523z"/>
		<path class="st8" d="M968.8,524.7c0.1-0.6,0.3-1.2,0.4-1.8c0.5-3.8,6.4-25.4,6.6-28c0-0.4-0.1-0.8-0.5-1.1
			c-1.4-1.2-11.1-2-12.9-1.4c-5.5,1.6-4.5,26.2-3.4,32.6c1,6.2,11.4,22.5,16.5,28.9l5.5-3.9c-2.1-2.5-5.7-10.7-8.6-17.3
			C971,529.6,969.8,526.8,968.8,524.7z"/>
	</g>
	<path class="st15" d="M989.6,483.3c0.6-3.7,0-7.2-1.2-10.1c-1.7-2.3-7.8,5.1-7.9,5.1c1,2.3,3.5,4.6,3.1,7.7
		c-0.3,3-1.4,4.3,0.9,11.1c3.2,9.7-1.2,20.7,1,21.7c2,0.9,8.1-4.9,8.1-15.9c0-1.9-0.4-5.9-2.1-8.6
		C990.4,492.6,988.7,488.7,989.6,483.3z"/>
	<path class="st17" d="M981.7,466.2c-3.5,0.3-6.1,4-5.8,7.5c0,0,0.3,3.6,0.3,3.6c0.2,2.6,4.7,6.4,6.9,5.7c5.3-1.6,5.6-11.7,5.3-12.8
		C987.6,467.2,984.9,465.9,981.7,466.2z"/>
	<path class="st15" d="M986.6,463.3c-1.8-0.9-3.4-0.4-3.4-0.4s-0.1-0.6-3.3-1.7c-2.6-0.9-7.2-0.6-10.3,3.5c-3.2,4-4.9,9.9-2.6,15.9
		c2.3,5.9,0.4,10.7-0.9,12.7c-2.2,3.4-2.1,8-1.7,10.1c2,12.4,12.5,17.9,15.4,16.5c3.2-1.5-5.7-13.1-2.4-24.6
		c2.3-8-0.5-10.3-1.5-13.6c-1.3-4.3,0.1-10.1,1.8-12.4c1.9-2.5,5.9-3.1,5.9-3.1s5.9,1.1,4.4,10.5
		C990.7,473.8,990.5,465.2,986.6,463.3z"/>
	<path class="st17" d="M974.2,474.5c0,0.9,1,2.2,1.9,2.4c0.4-0.9,1.1-2.9,1.4-4.1c-0.5-0.3-1.1-0.5-1.5-0.5
		C975.1,472.3,974.2,473.5,974.2,474.5z"/>
</g>
</svg>
