<?xml version="1.0" encoding="utf-8"?>
<!-- Generator: Adobe Illustrator 22.0.0, SVG Export Plug-In . SVG Version: 6.00 Build 0)  -->
<svg version="1.1" id="Capa_1" xmlns="http://www.w3.org/2000/svg" xmlns:xlink="http://www.w3.org/1999/xlink" x="0px" y="0px"
	 viewBox="0 0 116.8 122.3" style="enable-background:new 0 0 116.8 122.3;" xml:space="preserve">
<style type="text/css">
	.st0{fill-rule:evenodd;clip-rule:evenodd;fill:#4A57AC;}
</style>
<path id="XMLID_188_" class="st0" d="M38.2,12.1c0.6-0.4,1.1-0.8,1.7-1.2c0.2-0.1,0.4-0.2,0.6-0.3c1.4-0.9,2.9-1.7,4.4-2.3
	c4.6-1.9,9.3-2.4,14.2-1.5c3.5,0.7,6.8,2,9.9,3.7c3.8,2.1,7.1,4.7,10.3,7.6c2.6,2.4,5,4.9,7.3,7.5c1.8,2.1,3.6,4.3,5.3,6.5
	c1.7,2.2,3.3,4.5,4.9,6.7c0.1,0.1,0.2,0.2,0.3,0.3c0.3,0.4,0.5,0.8,0.8,1.2c0.1,0.2,0.2,0.4,0.3,0.5c1.9,2.9,3.8,5.9,5.6,9
	c2.1,3.7,4.1,7.5,5.8,11.4c1.6,3.7,3,7.6,3.8,11.5c0.8,3.7,1.3,7.4,1,11.2c-0.4,5.4-2.2,10.3-5.7,14.6c-1.4,1.6-2.9,3.1-4.6,4.4
	c-0.4,0.3-0.7,0.6-1,0.9c-0.6,0.4-1.2,0.8-1.8,1.2c-0.3,0.1-0.6,0.2-0.8,0.4c-2.9,1.8-6.1,3.2-9.3,4.4c-4.4,1.6-8.9,2.7-13.5,3.6
	c-6.7,1.3-13.5,2-20.3,2.3c-6.6,0.4-13.2,0.4-19.7-0.3c-4.4-0.4-8.8-1.2-13.1-2.5c-3.4-1-6.7-2.4-9.8-4.3c-2.5-1.6-4.7-3.4-6.6-5.7
	c-0.3-0.4-0.6-0.7-0.9-1.1c-0.3-0.5-0.6-0.9-1-1.4c-0.1-0.1-0.1-0.3-0.2-0.4c-0.4-0.7-0.8-1.5-1.2-2.2c-1.4-3-2.2-6.2-2.6-9.5
	C2,84.4,2.2,80.1,2.9,75.9c0.8-4.5,2-9,3.5-13.3c3.5-10.1,8-19.6,13.4-28.8c2.9-4.9,6.1-9.6,9.9-13.9c2.4-2.8,5-5.4,8-7.5
	C37.9,12.4,38,12.3,38.2,12.1L38.2,12.1z"/>
</svg>
