<?xml version="1.0" encoding="utf-8"?>
<!-- Generator: Adobe Illustrator 23.0.0, SVG Export Plug-In . SVG Version: 6.00 Build 0)  -->
<svg version="1.1" id="layer_1" xmlns="http://www.w3.org/2000/svg" xmlns:xlink="http://www.w3.org/1999/xlink" x="0px" y="0px"
	 viewBox="0 0 267.7 219" style="enable-background:new 0 0 267.7 219;" xml:space="preserve">
<style type="text/css">
	.st0{opacity:0.3;fill:url(#SVGID_1_);}
	.st1{opacity:0.3;fill:url(#SVGID_2_);}
	.st2{opacity:0.3;fill:url(#SVGID_3_);}
	.st3{opacity:0.3;fill:url(#SVGID_4_);}
	.st4{fill-rule:evenodd;clip-rule:evenodd;fill:#4D3782;}
	.st5{fill-rule:evenodd;clip-rule:evenodd;fill:#F0F0F0;}
	.st6{fill-rule:evenodd;clip-rule:evenodd;fill:url(#SVGID_5_);}
	.st7{fill-rule:evenodd;clip-rule:evenodd;fill:url(#SVGID_6_);}
	.st8{fill:#F0F0F0;}
	.st9{fill:#D5DBE0;}
	.st10{fill:#4D3782;}
	.st11{fill:#53D6F2;}
	.st12{fill:url(#SVGID_7_);}
	.st13{fill:#F15A24;}
	.st14{fill:#FFFFFF;}
	.st15{fill:#FCD2C5;}
	.st16{fill:#FF6F43;}
	.st17{fill:url(#SVGID_8_);}
	.st18{fill:url(#SVGID_9_);}
	.st19{fill:#4756EA;}
	.st20{fill-rule:evenodd;clip-rule:evenodd;fill:#D5DBE0;}
	.st21{fill-rule:evenodd;clip-rule:evenodd;fill:#FFFFFF;}
</style>
<linearGradient id="SVGID_1_" gradientUnits="userSpaceOnUse" x1="-1529.8054" y1="1991.5417" x2="-1270.152" y2="1991.5417">
	<stop  offset="0" style="stop-color:#C66FD7"/>
	<stop  offset="1" style="stop-color:#5937E5"/>
</linearGradient>
<path class="st0" d="M-1356.5,1884c-91.7-5.1-170.7,77-173.3,122.7c-2.5,45.8,69.7,87,161.3,92.1c91.7,5.1,168-27.9,170.6-73.6
	C-1195.3,1979.4-1264.8,1889.1-1356.5,1884z"/>
<linearGradient id="SVGID_2_" gradientUnits="userSpaceOnUse" x1="-355.1806" y1="1475.5121" x2="-114.2421" y2="1475.5121">
	<stop  offset="0" style="stop-color:#C66FD7"/>
	<stop  offset="1" style="stop-color:#5937E5"/>
</linearGradient>
<path class="st1" d="M-282.3,1383.6c-83,34.1-136.6,95.4-119.5,136.9s116.5,91.9,199.5,57.8c83-34.1,118.3-139.9,101.2-181.4
	C-118.1,1355.4-199.2,1349.5-282.3,1383.6z"/>
<linearGradient id="SVGID_3_" gradientUnits="userSpaceOnUse" x1="-1529.072" y1="1418.6067" x2="-1298.6282" y2="1418.6067">
	<stop  offset="0" style="stop-color:#52C5F1"/>
	<stop  offset="1" style="stop-color:#5457E2"/>
</linearGradient>
<path class="st2" d="M-1437.3,1349.9c-62.1,25.5-102.1,71.4-89.4,102.4c12.7,31,87.1,68.7,149.2,43.2
	c62.1-25.5,88.5-104.7,75.7-135.7C-1314.5,1328.8-1375.2,1324.4-1437.3,1349.9z"/>
<linearGradient id="SVGID_4_" gradientUnits="userSpaceOnUse" x1="-498.7845" y1="1936.6973" x2="-24.1959" y2="1936.6973">
	<stop  offset="0" style="stop-color:#52C5F1"/>
	<stop  offset="1" style="stop-color:#5457E2"/>
</linearGradient>
<path class="st3" d="M-361.5,1736.5c-165.7,47.5-255.3,241.9-231.6,324.6c23.7,82.7,177.3,111.2,343,63.7
	c165.7-47.5,280.8-153.1,257.1-235.8S-195.8,1689-361.5,1736.5z"/>
<g>
	<g>
		<polygon class="st4" points="181.1,97 182.1,104.2 186.3,103.6 184.8,92.7 		"/>
	</g>
	<g>
		<polygon class="st4" points="202.2,90.3 203.7,101.3 207.8,100.7 206.9,93.5 		"/>
	</g>
	<g>
		<polygon class="st5" points="184.8,92.7 181.1,97 206.9,93.5 202.2,90.3 		"/>
	</g>
	<g>
		<polygon class="st5" points="173.3,103.7 178,172.8 229.9,165.8 216.2,97.9 		"/>
	</g>
</g>
<g>
	<g>
		<polygon class="st4" points="206.7,110.2 208.1,120.8 212.6,120.2 210.4,104 		"/>
	</g>
	<g>
		<polygon class="st4" points="229.4,101.5 231.6,117.7 236.1,117.1 234.7,106.5 		"/>
	</g>
	<g>
		<linearGradient id="SVGID_5_" gradientUnits="userSpaceOnUse" x1="206.6663" y1="105.8528" x2="234.7096" y2="105.8528">
			<stop  offset="0" style="stop-color:#C66FD7"/>
			<stop  offset="1" style="stop-color:#5937E5"/>
		</linearGradient>
		<polygon class="st6" points="210.4,104 206.7,110.2 234.7,106.5 229.4,101.5 		"/>
	</g>
	<g>
		<linearGradient id="SVGID_6_" gradientUnits="userSpaceOnUse" x1="198.3362" y1="141.6202" x2="256.746" y2="141.6202">
			<stop  offset="0" style="stop-color:#C66FD7"/>
			<stop  offset="1" style="stop-color:#5937E5"/>
		</linearGradient>
		<polygon class="st7" points="198.3,119.7 200.1,169.8 256.7,162.2 245.2,113.4 		"/>
	</g>
</g>
<g>
	<g>
		<polygon class="st8" points="239.4,123 238.9,122.7 238.5,123.1 238,122.8 237.6,123.2 237.1,122.9 236.7,123.4 236.2,123.1 
			235.8,123.5 235.3,123.2 234.9,123.6 234.4,123.3 234,123.7 233.5,123.4 233.1,123.9 232.6,123.5 232.2,124 231.7,123.7 
			231.3,124.1 230.8,123.8 230.4,124.2 229.9,123.9 229.5,124.3 229,124 228.6,124.5 228,124.1 227.6,124.6 227.1,124.3 
			226.7,124.7 226.2,124.4 225.8,124.8 225.3,124.5 224.9,125 224.4,124.6 224,125.1 223.5,124.8 223.1,125.2 222.6,124.9 
			222.2,125.3 221.7,125 221.3,125.4 220.8,125.1 220.4,125.6 219.9,125.2 219.5,125.7 219,125.4 218.6,125.8 218.1,125.5 
			217.7,125.9 217.2,125.6 216.8,126 216.3,125.7 215.9,126.2 215.4,125.9 215,126.3 214.5,126 214.1,126.4 213.5,126.1 
			213.1,126.5 212.6,126.2 212.2,126.7 211.7,126.3 211.3,126.8 210.8,126.5 210.4,126.9 209.9,126.6 209.5,127 209.5,127.1 
			215,167.8 244.9,163.8 239.4,123.1 		"/>
	</g>
	<g>
		<polygon class="st9" points="244.9,163.8 256.7,162.2 250.4,159.5 		"/>
	</g>
	<g>
		<polygon class="st10" points="251.3,121.5 251.3,121.5 251.2,121.5 250.8,121.1 250.4,121.6 250.3,121.6 249.8,121.2 249.5,121.7 
			249.4,121.7 248.9,121.3 248.6,121.8 248.5,121.8 248,121.5 247.7,122 247.6,122 247.1,121.6 246.8,122.1 246.7,122.1 
			246.7,122.1 246.2,121.7 245.8,122.2 245.8,122.2 245.8,122.2 245.3,121.8 245.3,121.9 245.3,122.3 250.4,159.5 256.7,162.2 
			251.3,121.5 		"/>
	</g>
	<g>
		<polygon class="st9" points="245.3,121.9 245.3,121.9 244.9,122.3 244.4,122 244,122.4 243.5,122.1 243.1,122.5 242.6,122.2 
			242.2,122.6 241.7,122.3 241.3,122.8 240.8,122.4 240.4,122.9 239.9,122.6 239.4,123.1 244.9,163.8 250.4,159.5 245.3,122.3 		"/>
	</g>
</g>
<g>
	<polygon class="st10" points="152.6,194.7 152.6,198.9 180.5,194.3 244.8,198.9 244.8,194.7 180.5,190.1 	"/>
</g>
<g id="XMLID_85_">
	<path class="st11" d="M244.9,189.3c-3.9,0-7,3.2-7,7.1c0,3.9,3.2,7,7.1,7c3.9,0,7-3.2,7-7.1C252,192.4,248.8,189.3,244.9,189.3z"/>
</g>
<g id="XMLID_78_">
	<path class="st11" d="M152.5,189.3c-3.9,0-7,3.2-7,7.1c0,3.9,3.2,7,7.1,7c3.9,0,7-3.2,7-7.1C159.6,192.4,156.4,189.3,152.5,189.3z"
		/>
</g>
<g>
	<g>
		<path class="st11" d="M253.3,124.1l-23.8-2.6v0l0,0l-14.2-1.6l-0.1-0.3l-0.6,0.2l-27.4-3l0,0l-0.1,0l-28.7-3.1
			c-2.5-7.3-4.2-12.1-4.2-12.1l-4.4,1.5l28.4,83.8c-1.5,0.7-2.6,2.2-2.6,4c0,2.4,2,4.3,4.4,4.3c1.1,0,2.2-0.5,2.9-1.2
			c0.8-0.8,1.4-1.9,1.4-3.2c0-0.5-1.8-6.2-4.6-14.4c5.5-0.7,76.2-9.7,76.2-9.8c1.6-0.9,2.7-2.6,2.7-4.5l0.4-31.4
			C259.1,127.3,256.6,124.5,253.3,124.1z M240.5,126.2l5.3,17.1l-9.7,0.1l-5.5-18.2C234.3,125.6,237.6,125.9,240.5,126.2z
			 M226.6,124.8l5.7,18.6l-9.7,0.1l-6.1-19.7C220,124.1,223.4,124.5,226.6,124.8z M212.5,123.4l6.3,20.1l-9.7,0.1l-6.6-21.2
			C205.8,122.7,209.2,123.1,212.5,123.4z M198.5,122l6.7,21.6l-9.7,0.1l-7.1-22.7C191.7,121.3,195.1,121.7,198.5,122z M184.5,120.6
			l7.2,23.2l-9.7,0.1l-7.6-24.2C177.5,119.9,180.9,120.3,184.5,120.6z M159.9,118.2c0.6,0.1,4.6,0.5,10.6,1l7.7,24.7l-9.4,0.1
			C165.6,134.7,162.5,125.6,159.9,118.2z M178.6,172.8c-2.5-7.4-5.5-16.3-8.5-25.2l9.3-0.1l7.5,24.2
			C183,172.2,180.1,172.6,178.6,172.8z M190.6,171.2l-7.4-23.7l9.7-0.1l7,22.6C196.5,170.4,193.4,170.9,190.6,171.2z M203.6,169.5
			l-6.9-22.1l9.7-0.1l6.5,21C209.7,168.7,206.6,169.1,203.6,169.5z M216.6,167.7l-6.4-20.5l9.7-0.1l6,19.4
			C222.9,166.9,219.8,167.3,216.6,167.7z M229.6,166l-5.9-18.9l9.7-0.1l5.4,17.8C236,165.2,232.9,165.6,229.6,166z M242.5,164.3
			l-5.3-17.3l9.7-0.1l5,16.1C249.7,163.3,246.5,163.8,242.5,164.3z M255.3,160.7c0,0.1,0,0.3,0,0.4l-4.4-14.2l4.6,0L255.3,160.7z
			 M255.5,143.2l-5.8,0.1l-5.2-16.7c4.9,0.5,7.9,0.8,7.9,0.8c2.7,0.8,3.2,4.7,3.1,7.6L255.5,143.2z"/>
	</g>
</g>
<g>
	<g>
		<linearGradient id="SVGID_7_" gradientUnits="userSpaceOnUse" x1="129.859" y1="102.8302" x2="156.2465" y2="102.8302">
			<stop  offset="0" style="stop-color:#C66FD7"/>
			<stop  offset="1" style="stop-color:#5937E5"/>
		</linearGradient>
		<path class="st12" d="M152.8,99.3C152.8,99.3,152.8,99.3,152.8,99.3l-19.5,0.2c-0.9,0-1.8,0.4-2.4,1c-0.7,0.7-1,1.5-1,2.5
			c0,0.9,0.4,1.8,1,2.4c0.7,0.7,1.6,1,2.5,1l19.4-0.2c1.9,0,3.5-1.6,3.4-3.5C156.2,100.8,154.7,99.3,152.8,99.3z"/>
	</g>
</g>
<g id="XMLID_2204_">
	<g id="XMLID_2205_">
		<g id="XMLID_2215_">
			<g id="XMLID_2216_">
				<g id="XMLID_75_">
					
						<ellipse transform="matrix(0.7071 -0.7071 0.7071 0.7071 -63.6334 139.9285)" class="st13" cx="137.1" cy="146.8" rx="15.5" ry="15.5"/>
				</g>
			</g>
		</g>
	</g>
</g>
<g id="XMLID_2202_">
	<g>
		<g>
			<path class="st14" d="M144,140.4c-0.3-0.2-0.6-0.3-0.9-0.2c-0.3,0-0.6,0.2-0.8,0.5l-6.5,8.3c-0.2,0.3-0.6,0.5-1,0.4
				c-0.4,0-0.7-0.2-0.9-0.5l-1.9-2.9c-0.2-0.3-0.5-0.5-0.9-0.5c-0.1,0-0.1,0-0.2,0c-0.3,0-0.6,0.1-0.8,0.3c-0.5,0.4-0.6,1.1-0.2,1.6
				l3.8,5.7l1,0.5c0.4,0,0.8-0.2,1-0.5l8.5-10.9C144.6,141.6,144.5,140.8,144,140.4L144,140.4z"/>
		</g>
	</g>
</g>
<path class="st15" d="M129.9,94c-0.9,0-1.9-0.1-2.8-0.4c0.9,0.4,0.6,1,1.5,1.6c0.4,0.1,2.3-0.3,2.3-0.8
	C130.9,93.8,130.4,93.9,129.9,94z"/>
<path class="st15" d="M132.7,97.6c-0.2-0.1-2.4-2-3.5-2.7c-0.9-0.6-1.9-1.2-2.8-1.6c-0.1,0-2.6,2.4-3.2,3.4c1.5,1,6.5,3.9,6.6,4
	c1.7,1.5,2.6,1.3,2.6,0.6c0-0.2,1.5,0.4,1.6-0.2c0,0,0.5,0,0.7-0.4c0.1-0.3,0-1.2-0.1-1.5C134.4,98.8,133.2,98,132.7,97.6z"/>
<path class="st15" d="M102.8,41c-0.2-0.9-10.6,1.6-12.1,2.7c-3.5,2.5,4,24.2,7.9,31.4c1.5,2.7,8.9,4.9,7-4.8
	C104.2,62.4,104.1,45.9,102.8,41z"/>
<path class="st15" d="M104.3,70.9c-0.2-0.2-0.5-0.4-0.9-0.5c-1.6-0.6-4.2-0.5-5.2,2.8c-1.1,3.7,17.6,18.7,25.7,23.9
	c0.6-1.1,1.6-2.3,2.9-3.7C121.8,90.4,108.5,74.5,104.3,70.9z"/>
<path class="st16" d="M112.3,77.9c-2.2-2.5-4.3-4.8-5.9-6.4c0-0.6-0.1-1.2-0.2-1.9c-0.7-3.8-1-9.6-1.2-15.2
	c-0.3-5.6-0.5-10.9-1.2-13.4c-0.1-0.4-0.4-0.7-0.8-0.9c-1.7-0.7-11.2,1.6-12.7,2.6c-4.7,3.2,3.8,26.3,6.9,32.1
	c2.9,5.6,17.8,17.8,24.7,22.3l4-5.4C123.1,90,117.1,83.3,112.3,77.9z"/>
<path class="st10" d="M14.9,176.7c0,0-1.4,0-2.1,1.1c-0.4,0.6-0.1,2.9-0.3,4.3c-0.1,1.1,0.4,2.6,1.1,4.2s2.5,3.2,3.4,2.8
	c1.9-0.8,0.6-6.6,1.4-8.2c0.4-0.9,1.2-2,1.2-2l-3.2-2.5C16.3,176.2,15.9,176.1,14.9,176.7z"/>
<path class="st15" d="M14.9,176.7c0,0,0.1,2.4,0.8,2.9c1.2,1,2.7,1.1,2.7,1.1c0.7-1.3,1.4-2,1.4-2l-3.3-3
	C16.5,175.7,15.9,176.1,14.9,176.7z"/>
<linearGradient id="SVGID_8_" gradientUnits="userSpaceOnUse" x1="53.5105" y1="179.5621" x2="53.5105" y2="81.4292">
	<stop  offset="0" style="stop-color:#C66FD7"/>
	<stop  offset="1" style="stop-color:#5937E5"/>
</linearGradient>
<path class="st17" d="M48.5,140.2c-3.4,8.6-33.2,36.3-33.2,36.3c0.8,2.5,3.8,3.2,3.9,3.1c0,0,36.9-20.2,43.7-33
	c14.2-26.8,28.3-54.8,29-57.1c-3.1,0-15.2-4-22.8-8C68.9,81.4,56.5,120.2,48.5,140.2z"/>
<path class="st15" d="M85.7,126.1c-0.2,3.1,5.8,71.8,5.8,71.8c0,0.1,2.7,0.4,4.3-1c0,0,3.8-67.3,3.9-68.6
	C98.6,129.4,87.5,127.5,85.7,126.1z"/>
<path class="st10" d="M96.8,196.9c-0.6-0.7-1.4-1.9-1.4-1.9l-3.6,2c0,0-0.3,0.4-0.1,1.5c0,0-0.5,1.3,0.1,2.4
	c0.4,0.6,2.8,1.6,3.8,1.9c1,0.3,2.5,0.7,4.3,0.6c1.8-0.1,3.9-1,3.9-2C103.8,199.3,98,198.3,96.8,196.9z"/>
<path class="st15" d="M91.4,196.6c0,0,0.1,0.8,0.3,1.9c0,0,2.2,0.8,3,0.4c1.4-0.8,2.1-2,2.1-2c-0.9-1.1-1.3-2.1-1.3-2.1L91.4,196.6z
	"/>
<linearGradient id="SVGID_9_" gradientUnits="userSpaceOnUse" x1="93.4726" y1="196.6506" x2="93.4726" y2="77.3307">
	<stop  offset="0" style="stop-color:#C66FD7"/>
	<stop  offset="1" style="stop-color:#5937E5"/>
</linearGradient>
<path class="st18" d="M81.4,79.3v22.6c1.7,1.3,1.2,21.6,4.3,42.9c3.5,24.7,5.4,50.9,5.4,50.9c1.8,1.9,5.3,0,5.3-0.2
	c0,0,9.8-113.7,9.2-118.3C102.6,78.6,90.1,79.9,81.4,79.3z"/>
<path class="st19" d="M62.7,80c0,0-1.9,11.9-2.3,19.6c0,0,14.7,4.4,32.8,1.6l1.8-3.8l1.3,3.8c4-0.1,6.4-0.4,8.9-2.7
	c1.3-1.2,0.2-13.5,0.2-13.5L62.7,80z"/>
<g>
	<g>
		<g>
			<polygon class="st20" points="93.3,96.5 96.9,103.7 99.7,102.3 97.3,97.6 			"/>
		</g>
		<g>
			<polygon class="st20" points="80.3,106 82.7,110.8 85.4,109.4 81.8,102.2 			"/>
		</g>
		<g>
			<polygon class="st5" points="81.8,102.2 80.3,106 97.3,97.6 93.3,96.5 			"/>
		</g>
		<g>
			<polygon class="st5" points="76.5,112.6 96.1,159.2 130.3,142.1 104.8,98.4 			"/>
		</g>
	</g>
	<g>
		<g>
			<polygon class="st5" points="95.1,111 98.3,111.7 99.9,104.1 97.6,99.4 			"/>
		</g>
		<g>
			<polygon class="st5" points="78.3,107.4 81.5,108.1 84,96.5 79.9,99.8 			"/>
		</g>
		<g>
			<polygon class="st21" points="84,96.5 79.9,99.8 99.9,104.1 97.6,99.4 			"/>
		</g>
		<g>
			<polygon class="st21" points="60.9,138.8 101.3,147.5 105.4,111.4 71.9,104.3 			"/>
		</g>
	</g>
</g>
<path class="st15" d="M91.1,23.1c-1.8,0.3-8.1-3-8.7-3.5c0.4,2.4-0.1,9.1-0.9,10.4c2.1,4.4,9.3,4.2,9.8,1.6
	C90,28.9,91.1,23.6,91.1,23.1z"/>
<path class="st13" d="M103.9,44.6c0.5-3.6-0.5-8-5.1-10.5c-1.2-0.6-7.6-2.4-7.6-2.4s-1.5,1.9-3.2,1.8c-2.6-0.1-6.6-3.4-6.6-3.4
	s-5.5,1.6-7.3,2.1c-5.5,1.5-7.1,5.8-7.4,10.6c-0.1,1.8-9.2,37.4-3.5,43.1c4.3,4.3,37.3,4.5,42.4,2C109.3,86.1,102,57.2,103.9,44.6z"
	/>
<path class="st15" d="M92.1,97.7c-0.9-0.3-1.8-0.7-2.5-1.2c0.8,0.7,0.2,1.1,0.9,2c0.4,0.3,2.3,0.4,2.4,0
	C93.2,97.8,92.6,97.8,92.1,97.7z"/>
<path class="st15" d="M93.7,102c-0.1-0.2-1.7-2.6-2.5-3.6c-0.7-0.9-1.4-1.7-2.2-2.4c0,0-3.2,1.5-4.1,2.3c1.1,1.5,4.9,5.7,5,5.8
	c1.2,2,2.1,2,2.3,1.4c0-0.2,1.3,0.9,1.6,0.3c0,0,0.5,0.2,0.8-0.2c0.2-0.3,0.4-1.1,0.3-1.4C94.9,103.7,94,102.5,93.7,102z"/>
<path class="st15" d="M70.5,37.7C66.4,39,66.7,61.9,68.3,70c0.6,3.1,7,7.4,8.2-2.4c1-8,6.1-23.6,6.3-28.7
	C82.8,38,72.3,37.2,70.5,37.7z"/>
<path class="st15" d="M74.2,67c-1.3-1.1-3.9-1.8-5.8,1.1c-2.1,3.2,10.9,23.3,17,30.7c0.9-0.8,2.2-1.7,3.9-2.6
	c-3.8-4.4-11.5-23.7-14.3-28.4C74.8,67.6,74.5,67.3,74.2,67z"/>
<path class="st16" d="M76.4,68.7c0.1-0.6,0.3-1.2,0.4-1.8c0.5-3.8,6.4-25.4,6.6-28c0-0.4-0.1-0.8-0.5-1.1c-1.4-1.2-11.1-2-12.9-1.4
	c-5.5,1.6-4.5,26.2-3.4,32.6c1,6.2,11.4,22.5,16.5,28.9l5.5-3.9c-2.1-2.5-5.7-10.7-8.6-17.3C78.7,73.7,77.4,70.8,76.4,68.7z"/>
<path class="st10" d="M97.2,27.3c0.6-3.7,0-7.2-1.2-10.1c-1.7-2.3-7.8,5.1-7.9,5.1c1,2.3,3.5,4.6,3.1,7.7c-0.3,3-1.4,4.3,0.9,11.1
	c3.2,9.7-1.2,20.7,1,21.7c2,0.9,8.1-4.9,8.1-15.9c0-1.9-0.4-5.9-2.1-8.6C98.1,36.6,96.3,32.7,97.2,27.3z"/>
<path class="st15" d="M89.3,10.3c-3.5,0.3-6.1,4-5.8,7.5c0,0,0.3,3.6,0.3,3.6c0.2,2.6,4.7,6.4,6.9,5.7c5.3-1.6,5.6-11.7,5.3-12.8
	C95.3,11.2,92.6,10,89.3,10.3z"/>
<path class="st10" d="M94.2,7.3c-1.8-0.9-3.4-0.4-3.4-0.4s-0.1-0.6-3.3-1.7c-2.6-0.9-7.2-0.6-10.3,3.5c-3.2,4-4.9,9.9-2.6,15.9
	c2.3,5.9,0.4,10.7-0.9,12.7c-2.2,3.4-2.1,8-1.7,10.1c2,12.4,12.5,17.9,15.4,16.5c3.2-1.5-5.7-13.1-2.4-24.6c2.3-8-0.5-10.3-1.5-13.6
	c-1.3-4.3,0.1-10.1,1.8-12.4c1.9-2.5,5.9-3.1,5.9-3.1s5.9,1.1,4.4,10.5C98.3,17.8,98.1,9.2,94.2,7.3z"/>
<path class="st15" d="M81.8,18.5c0,0.9,1,2.2,1.9,2.4c0.4-0.9,1.1-2.9,1.4-4.1c-0.5-0.3-1.1-0.5-1.5-0.5
	C82.7,16.4,81.8,17.6,81.8,18.5z"/>
</svg>
