<?xml version="1.0" encoding="iso-8859-1"?>
<!-- Generator: Adobe Illustrator 22.0.0, SVG Export Plug-In . SVG Version: 6.00 Build 0)  -->
<svg version="1.1" id="Capa_1" xmlns="http://www.w3.org/2000/svg" xmlns:xlink="http://www.w3.org/1999/xlink" x="0px" y="0px"
	 viewBox="0 0 200 200" style="enable-background:new 0 0 200 200;" xml:space="preserve">
<g>
	<path style="fill:#62D464;" d="M100,2.279c-53.879,0-97.719,43.84-97.719,97.723c0,53.879,43.84,97.719,97.719,97.719
		s97.719-43.84,97.719-97.719C197.719,46.119,153.879,2.279,100,2.279L100,2.279z M100,181.959
		c-45.191,0-81.974-36.766-81.974-81.957c0-45.213,36.783-81.978,81.974-81.978c45.195,0,81.961,36.783,81.961,81.978
		C181.961,145.193,145.195,181.959,100,181.959L100,181.959z M100,181.959"/>
	<path style="fill:#62D464;" d="M131.148,68.837L85.54,114.462L68.839,97.757c-3.066-3.066-8.052-3.066-11.118,0
		c-3.083,3.083-3.083,8.07,0,11.136l22.253,22.271c1.539,1.526,3.544,2.298,5.565,2.298c2.004,0,4.026-0.772,5.57-2.298
		l51.173-51.191c3.083-3.083,3.083-8.052,0-11.135C139.217,65.772,134.231,65.772,131.148,68.837L131.148,68.837z M131.148,68.837"
		/>
</g>
<g>
</g>
<g>
</g>
<g>
</g>
<g>
</g>
<g>
</g>
<g>
</g>
<g>
</g>
<g>
</g>
<g>
</g>
<g>
</g>
<g>
</g>
<g>
</g>
<g>
</g>
<g>
</g>
<g>
</g>
</svg>
