<?xml version="1.0" encoding="utf-8"?>
<!-- Generator: Adobe Illustrator 23.0.0, SVG Export Plug-In . SVG Version: 6.00 Build 0)  -->
<svg version="1.1" id="layer_1" xmlns="http://www.w3.org/2000/svg" xmlns:xlink="http://www.w3.org/1999/xlink" x="0px" y="0px"
	 viewBox="0 0 160.1 219" style="enable-background:new 0 0 160.1 219;" xml:space="preserve">
<style type="text/css">
	.st0{opacity:0.3;fill:url(#SVGID_1_);}
	.st1{opacity:0.3;fill:url(#SVGID_2_);}
	.st2{opacity:0.3;fill:url(#SVGID_3_);}
	.st3{opacity:0.3;fill:url(#SVGID_4_);}
	.st4{fill:#FFFFFF;}
	.st5{fill:#F0F0F0;}
	.st6{fill:#FCD2C5;}
	.st7{fill:url(#SVGID_5_);}
	.st8{fill:#4D3782;}
	.st9{fill:#CE61D4;}
	.st10{fill:url(#SVGID_6_);}
	.st11{fill:url(#SVGID_7_);}
	.st12{fill:url(#SVGID_8_);}
	.st13{fill:url(#SVGID_9_);}
</style>
<linearGradient id="SVGID_1_" gradientUnits="userSpaceOnUse" x1="-1529.8054" y1="1991.5417" x2="-1270.152" y2="1991.5417">
	<stop  offset="0" style="stop-color:#C66FD7"/>
	<stop  offset="1" style="stop-color:#5937E5"/>
</linearGradient>
<path class="st0" d="M-1356.5,1884c-91.7-5.1-170.7,77-173.3,122.7c-2.5,45.8,69.7,87,161.3,92.1c91.7,5.1,168-27.9,170.6-73.6
	C-1195.3,1979.4-1264.8,1889.1-1356.5,1884z"/>
<linearGradient id="SVGID_2_" gradientUnits="userSpaceOnUse" x1="-355.1806" y1="1475.5121" x2="-114.2421" y2="1475.5121">
	<stop  offset="0" style="stop-color:#C66FD7"/>
	<stop  offset="1" style="stop-color:#5937E5"/>
</linearGradient>
<path class="st1" d="M-282.3,1383.6c-83,34.1-136.6,95.4-119.5,136.9s116.5,91.9,199.5,57.8c83-34.1,118.3-139.9,101.2-181.4
	C-118.1,1355.4-199.2,1349.5-282.3,1383.6z"/>
<linearGradient id="SVGID_3_" gradientUnits="userSpaceOnUse" x1="-1529.072" y1="1418.6067" x2="-1298.6282" y2="1418.6067">
	<stop  offset="0" style="stop-color:#52C5F1"/>
	<stop  offset="1" style="stop-color:#5457E2"/>
</linearGradient>
<path class="st2" d="M-1437.3,1349.9c-62.1,25.5-102.1,71.4-89.4,102.4c12.7,31,87.1,68.7,149.2,43.2
	c62.1-25.5,88.5-104.7,75.7-135.7C-1314.5,1328.8-1375.2,1324.4-1437.3,1349.9z"/>
<linearGradient id="SVGID_4_" gradientUnits="userSpaceOnUse" x1="-498.7845" y1="1936.6973" x2="-24.1959" y2="1936.6973">
	<stop  offset="0" style="stop-color:#52C5F1"/>
	<stop  offset="1" style="stop-color:#5457E2"/>
</linearGradient>
<path class="st3" d="M-361.5,1736.5c-165.7,47.5-255.3,241.9-231.6,324.6c23.7,82.7,177.3,111.2,343,63.7
	c165.7-47.5,280.8-153.1,257.1-235.8S-195.8,1689-361.5,1736.5z"/>
<g>
	<g>
		<g>
			<rect x="26.1" y="166.2" class="st4" width="58.5" height="50.1"/>
		</g>
		<g>
			<rect x="4.6" y="166.2" class="st5" width="21.5" height="50.1"/>
		</g>
	</g>
</g>
<g>
	<g>
		<path class="st6" d="M42.8,83.7c0.8,0.5,1.7,1,2.6,1.3c-1.1-0.2-1.1,0.5-2.2,0.5c-0.4-0.1-1.8-1.6-1.5-2
			C42,82.9,42.4,83.4,42.8,83.7z"/>
		<path class="st6" d="M38.1,85.9c0.4-0.2,1.6-0.3,2.1-0.4c0.2,0,2.6-0.4,3.7-0.5c0.9,0,1.8,0,2.7,0.1c0,0,0.5,3.5,0.4,4.7
			c-1.5,0.1-6.3-0.1-6.4-0.1c-1.9,0.4-2.4-0.3-2.1-0.8c0.1-0.1-1.2-0.4-1-1c0,0-0.4-0.2-0.3-0.7C37.4,86.7,37.9,86,38.1,85.9z"/>
		<path class="st6" d="M79.1,48.6c0.3-0.9,10.9,2,12.4,3.2c3.6,2.7-4.9,24.9-9.3,32.2c-1.7,2.8-9.4,4.8-7.1-5.2
			C77,70.7,77.6,53.7,79.1,48.6z"/>
		
			<linearGradient id="SVGID_5_" gradientUnits="userSpaceOnUse" x1="64.3817" y1="61.0609" x2="81.9238" y2="61.0609" gradientTransform="matrix(-1 0 0 1 157.2635 0)">
			<stop  offset="0" style="stop-color:#C66FD7"/>
			<stop  offset="1" style="stop-color:#5937E5"/>
		</linearGradient>
		<path class="st7" d="M91.5,51.8c2.4,1.8,1.6,12.9-2,21.9c-1.1-0.1-4.3-1-5.4-1.2c-2.6-0.6-6.3-1.7-8.8-2.7
			c1.7-7.9,2.7-17.6,3.8-21.1C79.4,47.7,90,50.6,91.5,51.8z"/>
		<path class="st6" d="M78.1,78.6c0.3,0,0.7,0,1.1,0.1c1.8,0.4,3.9,2,2.8,5.4c-1.2,3.8-25.9,5.9-35.9,5.7c0.1-1.2,0-2.9-0.3-4.8
			C51.8,85.3,72.4,79.3,78.1,78.6z"/>
	</g>
	<path class="st6" d="M140.5,132.8c1,3.1,11.6,73.6,11.6,73.6c0,0.1-2.6,1.1-4.6,0.1c0,0-20.2-66.8-20.6-68.1
		C128.3,139.2,139,134.6,140.5,132.8z"/>
	<path class="st8" d="M146.6,206.6c0.5-0.9,0.9-2.3,0.9-2.3l4.1,1.1c0,0,0.4,0.3,0.5,1.5c0,0,0.8,1.2,0.4,2.4
		c-0.2,0.7-2.3,1.9-3.3,2.9c-0.8,0.8-2.3,1.3-4.1,1.6c-1.8,0.4-4.2,0-4.5-1.1C140.1,210.8,145.7,208.4,146.6,206.6z"/>
	<path class="st6" d="M151.9,205c0,0,0.1,0.8,0.2,2c0,0-2.1,1.4-2.9,1.1c-1.6-0.4-2.6-1.5-2.6-1.5c0.6-1.4,0.8-2.4,0.8-2.4
		L151.9,205z"/>
	<path class="st9" d="M133.3,84.6c0,0,9.5,44.8,11.7,67c2.5,25.7,7,52.5,7,52.5c-1.3,2.4-5.3,1.3-5.4,1.1c0,0-37.6-112-38.1-116.8
		C111.8,89.1,124.8,87.3,133.3,84.6z"/>
	<path class="st6" d="M112.8,136.5c0.2,3.2-6,74.3-6,74.3c0,0.1-2.8,0.4-4.5-1c0,0-3.9-69.7-4-71
		C99.4,139.9,110.9,137.9,112.8,136.5z"/>
	<path class="st8" d="M101.3,209.7c0.7-0.8,1.5-2,1.5-2l3.7,2.1c0,0,0.3,0.4,0.1,1.6c0,0,0.5,1.3-0.1,2.5c-0.4,0.7-2.9,1.7-3.9,2
		c-1.1,0.4-2.6,0.7-4.4,0.6c-1.8-0.1-4.1-1-4.1-2.1C94,212.2,100,211.2,101.3,209.7z"/>
	<path class="st6" d="M106.9,209.4c0,0-0.1,0.8-0.3,2c0,0-2.3,0.8-3.1,0.4c-1.4-0.8-2.2-2.1-2.2-2.1c0.9-1.2,1.3-2.2,1.3-2.2
		L106.9,209.4z"/>
	<path class="st9" d="M117.2,88v23.4c-1.7,1.4-1.3,22.3-4.4,44.4c-3.7,25.6-5.6,52.7-5.6,52.7c-1.8,2-5.4,0-5.5-0.2
		c0,0-10.2-117.7-9.5-122.4C95.2,87.3,108.2,88.6,117.2,88z"/>
	
		<linearGradient id="SVGID_6_" gradientUnits="userSpaceOnUse" x1="19.3395" y1="94.0221" x2="68.7636" y2="94.0221" gradientTransform="matrix(-1 0 0 1 157.2635 0)">
		<stop  offset="0" style="stop-color:#C66FD7"/>
		<stop  offset="1" style="stop-color:#5937E5"/>
	</linearGradient>
	<path class="st10" d="M137.9,93.4c0.1,1.9-16.1,4.7-24.3,8.2c-8.2,3.5-18.7,9.2-22.4,7.5c-1.7-0.8-2.8-14.7-2.8-14.7l44-15.8
		C132.5,78.6,137.7,88.4,137.9,93.4z"/>
	<path class="st6" d="M92.7,26.6c0.3,2.5,3,9,4.2,10c-0.7,5-7.9,7.1-9.2,4.6c0.3-3.1-2.4-8-2.5-8.5C87,32.5,92.2,27.2,92.7,26.6z"/>
	<path class="st6" d="M83.6,19.9c3.6-0.8,6.6,1.6,7.4,5.2c0,0,0.8,3.7,0.8,3.7c0.6,2.7-2.6,7.8-5,7.8c-5.8,0-9.1-9.8-9.2-11
		C77.4,22.3,80.3,20.6,83.6,19.9z"/>
	<path class="st8" d="M87.7,41.2c0,0,2,1.5,3.8,0.8c2.5-0.9,5.4-5.4,5.4-5.4s5.9-0.1,7.9-0.2c5.9-0.3,9.1,1.9,12.7,6.8
		c1.1,1.5,9.4,21.3,18.1,40.6c2.6,5.8-42.4,22.5-46.6,18.4c-1.7-1.7-1.6-7.4-9.6-44.3c-0.8-3.7-2-8.1,1.7-12
		C81.9,45,87.7,41.2,87.7,41.2z"/>
	<g>
		<g>
			<g>
				<rect x="45.6" y="75.2" class="st5" width="58.5" height="50.1"/>
			</g>
			<g>
				<rect x="24.1" y="75.2" class="st8" width="21.5" height="50.1"/>
			</g>
		</g>
	</g>
	<g>
		<path class="st6" d="M67.7,86.9c0.9,0.2,1.9,0.4,2.9,0.4c-1.1,0.2-0.8,0.8-1.9,1.2c-0.5,0-2.2-0.9-2.1-1.4
			C66.7,86.4,67.2,86.8,67.7,86.9z"/>
		<path class="st6" d="M64,89.8c0.2-0.1,2.9-1.4,4.2-1.8c1.1-0.4,2.2-0.7,3.2-0.9c0.1,0,2,3.1,2.3,4.3c-1.8,0.6-7.5,2.2-7.6,2.3
			c-2.1,1.1-2.9,0.6-2.8,0c0-0.2-1.6,0.1-1.6-0.6c0,0-0.5-0.1-0.6-0.6c-0.1-0.4,0.3-1.2,0.5-1.4C62,90.7,63.4,90.1,64,89.8z"/>
		<path class="st6" d="M101,40.2c0.3-0.9,10.9,2,12.4,3.1c3.6,2.6-4.8,24.9-9.2,32.2c-1.6,2.8-9.4,4.8-7.1-5.2
			C98.9,62.3,99.5,45.2,101,40.2z"/>
		
			<linearGradient id="SVGID_7_" gradientUnits="userSpaceOnUse" x1="41.3973" y1="51.5734" x2="59.9856" y2="51.5734" gradientTransform="matrix(-1 0 0 1 157.2635 0)">
			<stop  offset="0" style="stop-color:#C66FD7"/>
			<stop  offset="1" style="stop-color:#5937E5"/>
		</linearGradient>
		<path class="st11" d="M115.7,44.8c0.6,2.9-0.7,11.4-4.3,20.4c-5,0.2-11.1-1.8-14.2-3.9c1.7-7.9,1.5-18.1,3.7-21.1
			C103.9,36.3,114.3,37.3,115.7,44.8z"/>
		<path class="st6" d="M100.4,70.1c1.8-0.2,4.4,0.6,4.5,4.2c0.1,4-22.5,14.2-31.9,17.3c-0.3-1.2-1-2.7-1.9-4.4
			c5.8-1.7,23.2-14.3,28.3-16.8C99.6,70.3,100,70.2,100.4,70.1z"/>
	</g>
	
		<linearGradient id="SVGID_8_" gradientUnits="userSpaceOnUse" x1="61.8532" y1="23.1717" x2="81.552" y2="23.1717" gradientTransform="matrix(-1 0 0 1 157.2635 0)">
		<stop  offset="0" style="stop-color:#C66FD7"/>
		<stop  offset="1" style="stop-color:#5937E5"/>
	</linearGradient>
	<path class="st12" d="M78.4,19.9c0,0,6-6.7,12.1-3.8c9.1,4.4,2.8,14.5,2.8,14.5c-0.2-2.5-5.5-10.8-13.1-8.5c0,0-3.5,3.2-0.5,8.9
		C76.7,30.5,73.1,22.6,78.4,19.9z"/>
	<path class="st6" d="M90.5,23.8c0.9-0.3,2.2,0.6,2.5,1.5c0.3,0.8-0.3,2.5-1.1,3c-0.7-0.8-2-2.5-2.7-3.6
		C89.5,24.2,90.1,23.9,90.5,23.8z"/>
	
		<linearGradient id="SVGID_9_" gradientUnits="userSpaceOnUse" x1="35.1123" y1="25.8046" x2="68.4426" y2="25.8046" gradientTransform="matrix(-1 0 0 1 157.2635 0)">
		<stop  offset="0" style="stop-color:#C66FD7"/>
		<stop  offset="1" style="stop-color:#5937E5"/>
	</linearGradient>
	<path class="st13" d="M110.2,16.2c2.4,6.5,4.2,6.7,6.7,8.2c12.5,7.6-1,27.7-4.3,21.2c-1.3-2.5,5.6-7-5.2-10.1
		c-11.9-3.5-8.7-9.4-8.6-13.3c0.2-14.7-6.2-10.3-7.5-7.2c-0.7,1.8-1.8,1.2-2.3-0.2C86.9,9.1,102.2-5.5,110.2,16.2z"/>
	<path class="st8" d="M88.6,14.1c0.4-0.1,0.9-0.2,1.4,0c2.1,0.5,2.4,1.7,2.3,3c0,0-2.5-1.6-5.1-1.7C87.1,15.4,87.6,14.5,88.6,14.1z"
		/>
</g>
</svg>
