<?xml version="1.0" encoding="utf-8"?>
<!-- Generator: Adobe Illustrator 23.0.0, SVG Export Plug-In . SVG Version: 6.00 Build 0)  -->
<svg version="1.1" id="Capa_1" xmlns="http://www.w3.org/2000/svg" xmlns:xlink="http://www.w3.org/1999/xlink" x="0px" y="0px"
	 viewBox="0 0 512 512" style="enable-background:new 0 0 512 512;" xml:space="preserve">
<style type="text/css">
	.st0{fill:#D8D8E4;}
	.st1{fill:#A0E557;}
	.st2{fill:#7D9BFF;}
	.st3{fill:#FFDFE0;}
	.st4{fill:#FF5D5D;}
	.st5{fill:#FFC66C;}
	.st6{fill:#FFB954;}
	.st7{fill:#1E203D;}
</style>
<path class="st0" d="M425.9,435V278h-52.3H223.9h-51v157c0,37,30,67,67,67h119C395.9,502,425.9,472,425.9,435z"/>
<rect x="172.9" y="278" class="st1" width="253" height="64"/>
<g>
	<path class="st2" d="M137.9,309.1L137.9,309.1c-7-7-7-18.4,0-25.5l47.9-47.9c7-7,18.4-7,25.5,0l0,0c7,7,7,18.4,0,25.5l-47.9,47.9
		C156.4,316.1,145,316.1,137.9,309.1z"/>
	<path class="st2" d="M348.7,309.1l-47.3-47.3c-7-7-7-18.4,0-25.5l0,0c7-7,18.4-7,25.5,0l47.3,47.3c7,7,7,18.4,0,25.5l0,0
		C367.1,316.1,355.7,316.1,348.7,309.1z"/>
</g>
<path class="st3" d="M501.9,163.3V73.8c0-11.5-9.3-20.7-20.7-20.7h-43.5c-11.5,0-20.7,9.3-20.7,20.7v89.5c0,11.5,9.3,20.7,20.7,20.7
	h43.5C492.6,184,501.9,174.7,501.9,163.3z"/>
<path class="st4" d="M480.2,53h-41.5c-12,0-21.7,9.7-21.7,21.7V104h85V74.8C501.9,62.8,492.2,53,480.2,53z"/>
<g>
	<path class="st5" d="M453.5,10L453.5,10c-11.9,0-21.5,9.6-21.5,21.5V53h21.5c11.9,0,21.5-9.6,21.5-21.5l0,0
		C475,19.6,465.4,10,453.5,10z"/>
	<path class="st5" d="M410.5,10L410.5,10c11.9,0,21.5,9.6,21.5,21.5V53h-21.5c-11.9,0-21.5-9.6-21.5-21.5l0,0
		C388.9,19.6,398.6,10,410.5,10z"/>
</g>
<path class="st6" d="M183.7,78.9l0-36.9l-37,0c-2.1,0-4,0.8-5.5,2.3l-96.9,96.9c-3,3-3,7.9,0,11l29.2,29.2c3,3,7.9,3,11,0l96.9-96.9
	C182.9,82.9,183.7,81,183.7,78.9z"/>
<path class="st7" d="M258.6,492c-2.6,0-5.2,1.1-7.1,2.9c-1.9,1.9-2.9,4.4-2.9,7.1s1.1,5.2,2.9,7.1c1.9,1.9,4.4,2.9,7.1,2.9
	c2.6,0,5.2-1.1,7.1-2.9c1.9-1.9,2.9-4.4,2.9-7.1s-1.1-5.2-2.9-7.1C263.8,493.1,261.2,492,258.6,492z"/>
<path class="st7" d="M133.9,384v64c0,5.5,4.5,10,10,10s10-4.5,10-10v-64c0-5.5-4.5-10-10-10S133.9,378.5,133.9,384z"/>
<path class="st7" d="M189.9,384v64c0,5.5,4.5,10,10,10s10-4.5,10-10v-64c0-5.5-4.5-10-10-10C194.4,374,189.9,378.5,189.9,384z"/>
<path class="st7" d="M255.9,458c5.5,0,10-4.5,10-10v-64c0-5.5-4.5-10-10-10c-5.5,0-10,4.5-10,10v64C245.9,453.5,250.4,458,255.9,458
	z"/>
<path class="st7" d="M321.9,448v-64c0-5.5-4.5-10-10-10s-10,4.5-10,10v64c0,5.5,4.5,10,10,10S321.9,453.5,321.9,448z"/>
<path class="st7" d="M367.9,458c5.5,0,10-4.5,10-10v-64c0-5.5-4.5-10-10-10s-10,4.5-10,10v64C357.9,453.5,362.4,458,367.9,458z"/>
<path class="st7" d="M482.8,43.1c1.4-3.6,2.2-7.5,2.2-11.6C485,14.1,470.9,0,453.5,0c-8.3,0-15.9,3.2-21.5,8.5
	C426.3,3.3,418.8,0,410.5,0c-17.4,0-31.5,14.1-31.5,31.5c0,4.2,0.8,8.3,2.4,12c-14.4,2.5-25.4,15.1-25.4,30.3v89.5
	c0,17,13.8,30.7,30.7,30.7h94.5c17,0,30.7-13.8,30.7-30.7V73.8C511.9,57.4,499,43.9,482.8,43.1z M453.5,20c6.4,0,11.5,5.2,11.5,11.5
	S459.8,43,453.5,43H442V31.5C442,25.2,447.1,20,453.5,20z M410.5,20c6.4,0,11.5,5.2,11.5,11.5V43h-11.5c-6.4,0-11.5-5.2-11.5-11.5
	S404.1,20,410.5,20z M386.7,63h94.5c5.9,0,10.8,4.8,10.8,10.8V94h-116V73.8C375.9,67.9,380.7,63,386.7,63z M481.2,174h-94.5
	c-5.9,0-10.8-4.8-10.8-10.8V114h116v49.2C491.9,169.2,487.1,174,481.2,174z"/>
<path class="st7" d="M91.6,188.4C91.6,188.4,91.6,188.4,91.6,188.4l96.9-96.9c3.4-3.4,5.2-7.8,5.2-12.5l0-61.1
	c0-4.7-1.8-9.2-5.2-12.6C185.2,1.9,180.7,0,176,0l-61.2,0c0,0,0,0,0,0c-4.7,0-9.2,1.8-12.6,5.2L5.3,102.1c-3.4,3.4-5.2,7.8-5.2,12.6
	c0,4.7,1.8,9.2,5.2,12.6l61.2,61.2c3.5,3.5,8,5.2,12.6,5.2C83.6,193.6,88.1,191.9,91.6,188.4z M21,114.7L115.7,20l58,0l0,58
	L79,172.7L21,114.7z"/>
<path class="st7" d="M255.8,84.3c-5.9,0-10.7-3.9-10.7-8.7c0-5.5-4.5-10-10-10s-10,4.5-10,10c0,12.6,8.6,23.3,20.7,27.2v4.7
	c0,5.5,4.5,10,10,10c5.5,0,10-4.5,10-10v-4.7c12-3.9,20.7-14.6,20.7-27.2c0-15.9-13.8-28.7-30.7-28.7c-5.9,0-10.7-3.9-10.7-8.7
	s4.8-8.7,10.7-8.7s10.7,3.9,10.7,8.7c0,5.5,4.5,10,10,10s10-4.5,10-10c0-12.6-8.6-23.3-20.7-27.2V10c0-5.5-4.5-10-10-10
	s-10,4.5-10,10v0.9c-12,3.9-20.7,14.6-20.7,27.2c0,15.9,13.8,28.7,30.7,28.7c5.9,0,10.7,3.9,10.7,8.7
	C266.4,80.4,261.7,84.3,255.8,84.3z"/>
<path class="st7" d="M140.3,96.5c5.4-1,9.1-6.1,8.1-11.6c-1-5.4-6.1-9.1-11.6-8.1L76.5,87.4c-5.4,1-9.1,6.1-8.1,11.6
	c0.9,4.9,5.1,8.3,9.8,8.3c0.6,0,1.2-0.1,1.7-0.2L140.3,96.5z"/>
<path class="st7" d="M123.4,66.8c2.6,0,5.2-1.1,7.1-2.9s2.9-4.4,2.9-7.1s-1.1-5.2-2.9-7.1c-1.9-1.9-4.4-2.9-7.1-2.9
	s-5.2,1.1-7.1,2.9s-2.9,4.4-2.9,7.1s1.1,5.2,2.9,7.1C118.2,65.8,120.8,66.8,123.4,66.8z"/>
<path class="st7" d="M93.4,115c-2.6,0-5.2,1.1-7.1,2.9s-2.9,4.4-2.9,7.1s1.1,5.2,2.9,7.1s4.4,2.9,7.1,2.9s5.2-1.1,7.1-2.9
	c1.9-1.9,2.9-4.4,2.9-7.1s-1.1-5.2-2.9-7.1C98.6,116.1,96,115,93.4,115z"/>
<path class="st7" d="M159.9,140v68.2c0,5.5,4.5,10,10,10s10-4.5,10-10V140c0-5.5-4.5-10-10-10S159.9,134.5,159.9,140z"/>
<path class="st7" d="M255.9,164.1c-2.6,0-5.2,1.1-7.1,2.9c-1.9,1.9-2.9,4.4-2.9,7.1s1.1,5.2,2.9,7.1c1.9,1.9,4.4,2.9,7.1,2.9
	c2.6,0,5.2-1.1,7.1-2.9c1.9-1.9,2.9-4.4,2.9-7.1s-1.1-5.2-2.9-7.1C261.1,165.2,258.6,164.1,255.9,164.1z"/>
<path class="st7" d="M83.4,216.1c0,5.5,4.5,10,10,10c11.1,0,20.1,9,20.1,20.1c0,5.5,4.5,10,10,10s10-4.5,10-10
	c0-22.1-18-40.1-40.1-40.1C87.8,206.1,83.4,210.6,83.4,216.1z"/>
<path class="st7" d="M447.7,206.1c-35.1,0-64,27.4-66.4,61.9h-7.7c-0.3,0-0.6,0-0.9,0l-38.8-38.8c-5.3-5.3-12.3-8.2-19.8-8.2
	c-7.5,0-14.5,2.9-19.8,8.2c-5.3,5.3-8.2,12.3-8.2,19.8c0,7.1,2.6,13.8,7.4,18.9h-27.6v-59.5c0-5.5-4.5-10-10-10c-5.5,0-10,4.5-10,10
	V268h-27.3c5.1-5.3,8-12.2,8-19.5c0-7.5-2.9-14.5-8.2-19.8c-5.3-5.3-12.3-8.2-19.8-8.2s-14.5,2.9-19.8,8.2L139.4,268H85.9
	c-5.5,0-10,4.5-10,10v157c0,42.5,34.5,77,77,77h61.3c5.5,0,10-4.5,10-10s-4.5-10-10-10h-61.3c-31.4,0-57-25.6-57-57v-83h320v83
	c0,31.4-25.6,57-57,57h-60c-5.5,0-10,4.5-10,10s4.5,10,10,10h60c42.5,0,77-34.5,77-77V278c0-5.5-4.5-10-10-10h-24.6
	c2.4-23.5,22.3-41.9,46.4-41.9c5.5,0,10-4.5,10-10S453.2,206.1,447.7,206.1z M308.5,243.4c1.5-1.5,3.5-2.3,5.7-2.3
	c2.1,0,4.1,0.8,5.7,2.3l47.3,47.3c1.5,1.5,2.3,3.5,2.3,5.7s-0.8,4.1-2.3,5.7c-1.5,1.5-3.5,2.3-5.7,2.3s-4.1-0.8-5.7-2.3l-47.3-47.3
	c-1.5-1.5-2.3-3.5-2.3-5.7C306.1,246.9,307,244.9,308.5,243.4z M313.4,288C313.3,287.9,313.2,287.9,313.4,288L313.4,288z M145,290.7
	l47.9-47.9c1.5-1.5,3.5-2.3,5.7-2.3s4.1,0.8,5.7,2.3c1.5,1.5,2.3,3.5,2.3,5.7s-0.8,4.1-2.3,5.7L156.3,302c-1.5,1.5-3.5,2.3-5.7,2.3
	s-4.1-0.8-5.7-2.3c-1.5-1.5-2.3-3.5-2.3-5.7S143.5,292.2,145,290.7z M198.7,287.9L198.7,287.9C198.8,287.9,198.8,287.9,198.7,287.9z
	 M198.6,288L198.6,288C198.7,288,198.7,288,198.6,288z M139.2,268.2L139.2,268.2C139.1,268.2,139.1,268.2,139.2,268.2z M415.9,288
	v44h-320v-44h28c-0.8,2.7-1.3,5.5-1.3,8.4c0,7.5,2.9,14.5,8.2,19.8c5.3,5.3,12.3,8.2,19.8,8.2c7.5,0,14.5-2.9,19.8-8.2l28.2-28.2
	h113.3c0.9,0,1.3,0,1.5,0l28.2,28.2c5.3,5.3,12.3,8.2,19.8,8.2c7.5,0,14.5-2.9,19.8-8.2c5.3-5.3,8.2-12.3,8.2-19.8
	c0-2.9-0.4-5.7-1.3-8.4H415.9z"/>
<path class="st7" d="M322.1,151.2h3.8c5.5,0,10-4.5,10-10s-4.5-10-10-10h-3.8c-5.5,0-10,4.5-10,10S316.6,151.2,322.1,151.2z"/>
<path class="st7" d="M303.3,132.3c5.5,0,10-4.5,10-10v-4c0-5.5-4.5-10-10-10s-10,4.5-10,10v4C293.3,127.9,297.8,132.3,303.3,132.3z"
	/>
<path class="st7" d="M280.3,131.2c-5.5,0-10,4.5-10,10s4.5,10,10,10h4.2c5.5,0,10-4.5,10-10s-4.5-10-10-10H280.3z"/>
<path class="st7" d="M303.3,150c-5.5,0-10,4.5-10,10v3c0,5.5,4.5,10,10,10s10-4.5,10-10v-3C313.3,154.5,308.8,150,303.3,150z"/>
</svg>
