<?xml version="1.0" encoding="utf-8"?>
<!-- Generator: Adobe Illustrator 22.0.0, SVG Export Plug-In . SVG Version: 6.00 Build 0)  -->
<svg version="1.1" id="Capa_1" xmlns="http://www.w3.org/2000/svg" xmlns:xlink="http://www.w3.org/1999/xlink" x="0px" y="0px"
	 viewBox="0 0 116.8 122.3" style="enable-background:new 0 0 116.8 122.3;" xml:space="preserve">
<style type="text/css">
	.st0{fill:url(#SVGID_1_);}
	.st1{fill:#FFFFFF;}
</style>
<g>
	<radialGradient id="SVGID_1_" cx="59.1996" cy="139.8567" r="146.2427" gradientUnits="userSpaceOnUse">
		<stop  offset="0" style="stop-color:#3B5998"/>
		<stop  offset="0.301" style="stop-color:#3B5998"/>
		<stop  offset="1" style="stop-color:#5F83CF"/>
	</radialGradient>
	<path class="st0" d="M112.7,93.1c0,12.3-10,22.3-22.3,22.3h-64c-12.3,0-22.3-10-22.3-22.3v-64c0-12.3,10-22.3,22.3-22.3h64
		c12.3,0,22.3,10,22.3,22.3V93.1z"/>
	<path class="st1" d="M87.6,36.7h10V21H85.1l0,0h-2.6c0,0-9.4-0.2-15.5,7.6c0,0-4.1,3.9-4.2,15.2h0v11.8H48.1v16.7H63v43.2h17.1
		V72.3h14.7l2.1-16.7H80.1V43.7h0C80.1,42.4,80.7,36.6,87.6,36.7z"/>
</g>
</svg>
