<?xml version="1.0" encoding="iso-8859-1"?>
<!-- Generator: Adobe Illustrator 22.0.0, SVG Export Plug-In . SVG Version: 6.00 Build 0)  -->
<svg version="1.1" id="Capa_1" xmlns="http://www.w3.org/2000/svg" xmlns:xlink="http://www.w3.org/1999/xlink" x="0px" y="0px"
	 viewBox="-49 141 512 512" style="enable-background:new -49 141 512 512;" xml:space="preserve">
<polygon style="fill:#B7E5FF;" points="452.444,201.522 30.075,201.522 89.203,473.491 392.951,473.491 "/>
<path style="fill:#4DAAF5;" d="M99.733,481.991H399.75L463,193.023H36.925l-11.049-50.994H-49v16.998h61.142l22.149,101.989
	l3.697,16.998l11.049,50.994l3.697,16.998L63.782,397l3.697,16.998l29.56,135.985H401.45v-16.998H110.833L99.733,481.991z
	 M231.469,464.992h-34.26l-1.589-50.994h35.849V464.992z M231.469,397h-36.384l-1.589-50.994h37.974V397z M231.469,329.008H192.96
	l-1.589-50.994h40.099V329.008z M386.152,464.992h-34.566l6.374-50.994h39.308L386.152,464.992z M383.491,210.021h58.431
	l-11.151,50.994h-53.689L383.491,210.021z M374.992,278.013h52.057l-11.151,50.994h-47.314L374.992,278.013z M412.176,346.006
	L401.025,397h-40.94l6.374-50.994H412.176z M307.697,210.021h58.643l-6.374,50.994h-53.867L307.697,210.021z M305.572,278.013
	h52.261l-6.374,50.994h-47.484L305.572,278.013z M303.447,346.006h45.895L342.968,397h-41.118L303.447,346.006z M301.323,413.998
	h39.512l-6.374,50.994h-34.736L301.323,413.998z M248.467,210.021h42.232l-1.589,50.994h-40.642V210.021z M248.467,278.013h40.107
	l-1.589,50.994h-38.518V278.013z M248.467,346.006h37.982L284.86,397h-36.393V346.006z M248.467,413.998h35.858l-1.589,50.994
	h-34.268V413.998z M231.469,210.021v50.994h-40.634l-1.589-50.994H231.469z M180.211,464.992h-34.727l-6.374-50.994h39.512
	L180.211,464.992z M178.086,397h-41.101l-6.374-50.994h45.895L178.086,397z M175.961,329.008h-47.476l-6.374-50.994h52.261
	L175.961,329.008z M172.247,210.021l1.598,50.994h-53.858l-6.374-50.994H172.247z M96.487,210.021l6.374,50.994H51.705
	l-11.049-50.994H96.487z M55.411,278.013h49.575l6.374,50.994H66.485L55.411,278.013z M70.191,346.006h43.294L119.859,397H81.273
	L70.191,346.006z M96.053,464.992l-11.049-50.994h37.013l6.374,50.994H96.053z"/>
<path style="fill:#FEC007;" d="M154.977,651.972c-23.466,0-42.495-19.029-42.495-42.495c0-23.466,19.029-42.495,42.495-42.495
	s42.495,19.029,42.495,42.495C197.447,632.934,178.435,651.946,154.977,651.972z M154.977,583.979
	c-14.083,0-25.497,11.414-25.497,25.497s11.414,25.497,25.497,25.497s25.497-11.414,25.497-25.497S169.06,583.979,154.977,583.979z"
	/>
<rect x="-49" y="328.999" style="fill:#3F51B4;" width="33.996" height="16.998"/>
<path style="fill:#FEC007;" d="M341.956,651.972c-23.466,0-42.495-19.029-42.495-42.495c0-23.466,19.029-42.495,42.495-42.495
	s42.495,19.029,42.495,42.495C384.426,632.934,365.414,651.946,341.956,651.972z M341.956,583.979
	c-14.083,0-25.497,11.414-25.497,25.497s11.414,25.497,25.497,25.497s25.497-11.414,25.497-25.497S356.039,583.979,341.956,583.979z
	"/>
<g>
	<polygon style="fill:#3F51B4;" points="-32.002,261.015 -32.002,278.013 38.013,278.013 34.316,261.015 	"/>
	<polygon style="fill:#3F51B4;" points="18.992,329.008 18.992,346.006 52.793,346.006 49.096,329.008 	"/>
	<polygon style="fill:#3F51B4;" points="-15.004,397 -15.004,413.998 67.573,413.998 63.876,397 	"/>
</g>
<path style="fill:#A6D5FA;" d="M84.758,453.051l4.445,20.44h303.748l59.493-271.97h-11.117
	C377.865,344.637,240.869,441.28,84.758,453.051z"/>
<path style="fill:#2195F2;" d="M463,193.023h-17.941c-2.397,5.737-4.946,11.389-7.581,16.998h4.403l-11.151,50.994h-21.715
	c-3.757,5.762-7.649,11.431-11.669,16.998h29.67l-11.117,50.994h-47.314l2.235-17.848c-10.87,12.273-22.438,23.908-34.642,34.846
	h13.157L342.959,397h-41.11l0.748-23.891c-5.669,4.139-11.457,8.142-17.372,11.992L284.851,397h-18.927
	c-11.176,6.493-22.667,12.485-34.455,17.975v50.017h-34.26l-1.105-35.458c-5.558,1.989-11.151,3.927-16.82,5.694l0.926,29.747
	h-34.727l-2.55-20.296c-5.533,1.198-11.117,2.244-16.726,3.221l2.142,17.092H96.053l-2.737-12.596
	c-5.669,0.535-11.372,0.986-17.109,1.3l20.925,96.286H401.45v-16.998H110.833l-11.049-50.994H399.75L463,193.023z M282.727,464.992
	h-34.26v-50.994h35.858L282.727,464.992z M334.452,464.992h-34.727l1.598-50.994h39.512L334.452,464.992z M366.451,346.006h45.682
	L400.982,397h-40.897L366.451,346.006z M386.152,464.992h-34.566l6.374-50.994h39.308L386.152,464.992z"/>
</svg>
