<?xml version="1.0" encoding="iso-8859-1"?>
<!-- Generator: Adobe Illustrator 22.0.0, SVG Export Plug-In . SVG Version: 6.00 Build 0)  -->
<svg version="1.1" id="Capa_1" xmlns="http://www.w3.org/2000/svg" xmlns:xlink="http://www.w3.org/1999/xlink" x="0px" y="0px"
	 viewBox="-49 141 512 512" style="enable-background:new -49 141 512 512;" xml:space="preserve">
<path style="fill:#B7E5FF;" d="M39.276,193.966H-13.69c-19.5,0-35.31,15.81-35.31,35.31V653h512V229.276
	c0-19.5-15.81-35.31-35.31-35.31H39.276z"/>
<rect x="171.69" y="282.241" style="fill:#4DAAF5;" width="70.621" height="370.759"/>
<g>
	<rect x="198.172" y="326.379" style="fill:#B7E5FF;" width="17.655" height="17.655"/>
	<rect x="198.172" y="379.345" style="fill:#B7E5FF;" width="17.655" height="17.655"/>
	<rect x="198.172" y="432.31" style="fill:#B7E5FF;" width="17.655" height="17.655"/>
	<rect x="198.172" y="485.276" style="fill:#B7E5FF;" width="17.655" height="17.655"/>
	<rect x="198.172" y="538.241" style="fill:#B7E5FF;" width="17.655" height="17.655"/>
	<rect x="198.172" y="591.207" style="fill:#B7E5FF;" width="17.655" height="17.655"/>
</g>
<polygon style="fill:#4DAAF5;" points="410.034,370.517 321.759,370.517 321.759,423.483 365.897,441.138 410.034,423.483 "/>
<rect x="321.759" y="335.207" style="fill:#2195F2;" width="88.276" height="35.31"/>
<g>
	<path style="fill:#FEC007;" d="M-22.517,582.379L-22.517,582.379c24.373,0,44.138-19.765,44.138-44.138l0,0
		c0,24.373,19.765,44.138,44.138,44.138c-24.373,0-44.138,19.765-44.138,44.138l0,0C21.621,602.144,1.856,582.379-22.517,582.379z"
		/>
	<path style="fill:#FEC007;" d="M136.379,502.931L136.379,502.931c-19.5,0-35.31-15.81-35.31-35.31l0,0
		c0,19.5-15.81,35.31-35.31,35.31l0,0c19.5,0,35.31,15.81,35.31,35.31l0,0C101.069,518.741,116.879,502.931,136.379,502.931z"/>
</g>
<polygon style="fill:#3F51B4;" points="304.103,193.966 215.828,282.241 251.138,326.379 383.552,193.966 348.241,141 65.759,141 
	30.448,193.966 162.862,326.379 198.172,282.241 109.897,193.966 "/>
<path style="fill:#A6D5FA;" d="M463,361.584C438.044,483.607,362.754,589.424,255.658,653H463V361.584z"/>
</svg>
