<?xml version="1.0" encoding="iso-8859-1"?>
<!-- Generator: Adobe Illustrator 22.0.0, SVG Export Plug-In . SVG Version: 6.00 Build 0)  -->
<svg version="1.1" id="Capa_1" xmlns="http://www.w3.org/2000/svg" xmlns:xlink="http://www.w3.org/1999/xlink" x="0px" y="0px"
	 viewBox="-49 141 512 512" style="enable-background:new -49 141 512 512;" xml:space="preserve">
<g>
	<path style="fill:#FB4239;" d="M207,143.448L207,143.448c82.37,0,149.148,66.779,149.148,149.148v178.978H57.852V292.596
		C57.852,210.227,124.63,143.448,207,143.448z"/>
	<path style="fill:#4DAAF5;" d="M18.079,491.46v159.091h377.842V491.46c0-10.987-8.899-19.886-19.886-19.886H37.965
		C26.978,471.574,18.079,480.473,18.079,491.46z"/>
	<path style="fill:#EFC7B0;" d="M97.625,252.824h218.751v109.375c0,60.405-48.97,109.375-109.375,109.375l0,0
		c-60.405,0-109.375-48.97-109.375-109.375V252.824z"/>
	<g>
		<path style="fill:#3F51B4;" d="M187.114,322.426h-19.886v-9.943c0-5.489-4.455-9.943-9.943-9.943s-9.943,4.455-9.943,9.943v9.943
			h-19.886v-9.943c0-16.476,13.354-29.83,29.83-29.83s29.83,13.354,29.83,29.83V322.426z"/>
		<path style="fill:#3F51B4;" d="M286.546,322.426h-19.886v-9.943c0-5.489-4.455-9.943-9.943-9.943
			c-5.489,0-9.943,4.455-9.943,9.943v9.943h-19.886v-9.943c0-16.476,13.354-29.83,29.83-29.83s29.83,13.354,29.83,29.83V322.426z"/>
		<path style="fill:#3F51B4;" d="M177.17,372.142h59.659v9.943c0,16.476-13.354,29.83-29.83,29.83l0,0
			c-16.476,0-29.83-13.354-29.83-29.83V372.142z"/>
	</g>
	<g>
		<polygon style="fill:#A6D5FA;" points="366.091,620.722 306.432,620.722 306.432,600.836 346.205,600.836 346.205,541.177 
			366.091,541.177 		"/>
		<rect x="266.659" y="600.836" style="fill:#A6D5FA;" width="19.886" height="19.886"/>
		<rect x="187.114" y="501.404" style="fill:#A6D5FA;" width="39.773" height="19.886"/>
	</g>
</g>
</svg>
