<?xml version="1.0" encoding="iso-8859-1"?>
<!-- Generator: Adobe Illustrator 22.0.0, SVG Export Plug-In . SVG Version: 6.00 Build 0)  -->
<svg version="1.1" id="Capa_1" xmlns="http://www.w3.org/2000/svg" xmlns:xlink="http://www.w3.org/1999/xlink" x="0px" y="0px"
	 viewBox="-49 141 512 512" style="enable-background:new -49 141 512 512;" xml:space="preserve">
<polygon style="fill:#FECD39;" points="423.276,370.517 343.828,414.655 396.793,494.103 308.517,494.103 308.517,582.379 
	237.897,529.414 193.759,608.862 149.621,529.414 79,582.379 79,494.103 -9.276,494.103 43.69,414.655 -35.759,370.517 
	43.69,326.379 -9.276,255.759 70.172,255.759 70.172,167.483 149.621,220.448 193.759,141 237.897,220.448 308.517,167.483 
	308.517,255.759 396.793,255.759 343.828,326.379 "/>
<g>
	<path style="fill:#3F51B4;" d="M131.966,352.862c-19.5,0-35.31-15.81-35.31-35.31c0-19.5,15.81-35.31,35.31-35.31
		s35.31,15.81,35.31,35.31C167.276,337.052,151.466,352.862,131.966,352.862z M131.966,299.897c-9.754,0-17.655,7.901-17.655,17.655
		s7.901,17.655,17.655,17.655s17.655-7.901,17.655-17.655S141.72,299.897,131.966,299.897z"/>
	<path style="fill:#3F51B4;" d="M246.724,467.621c-19.5,0-35.31-15.81-35.31-35.31c0-19.5,15.81-35.31,35.31-35.31
		s35.31,15.81,35.31,35.31C282.034,451.81,266.224,467.621,246.724,467.621z M246.724,414.655c-9.754,0-17.655,7.901-17.655,17.655
		c0,9.754,7.901,17.655,17.655,17.655s17.655-7.901,17.655-17.655C264.379,422.556,256.479,414.655,246.724,414.655z"/>
</g>
<polygon style="fill:#E01717;" points="308.517,494.103 396.793,494.103 396.793,582.379 449.759,582.379 352.655,653 
	255.552,582.379 308.517,582.379 "/>
<rect x="58.264" y="366.099" transform="matrix(0.7071 -0.7071 0.7071 0.7071 -209.6554 243.6994)" style="fill:#3F51B4;" width="262.159" height="17.655"/>
<path style="fill:#FEC007;" d="M423.276,370.517l-79.448-44.138l52.966-70.621h-46.345
	c-12.526,124.937-77.727,238.61-179.244,312.497l22.554,40.607l44.138-79.448l70.621,52.966v-88.276h88.276l-52.966-79.448
	L423.276,370.517z"/>
</svg>
