<?xml version="1.0" encoding="iso-8859-1"?>
<!-- Generator: Adobe Illustrator 22.0.0, SVG Export Plug-In . SVG Version: 6.00 Build 0)  -->
<svg version="1.1" id="Capa_1" xmlns="http://www.w3.org/2000/svg" xmlns:xlink="http://www.w3.org/1999/xlink" x="0px" y="0px"
	 viewBox="-49 141 512 512" style="enable-background:new -49 141 512 512;" xml:space="preserve">
<path style="fill:#B7E5FF;" d="M289.441,302.584v104.136c0,9.589,7.767,17.356,17.356,17.356h128.13l-12.253-138.847H306.797
	C297.207,285.228,289.441,292.995,289.441,302.584z"/>
<path style="fill:#FB4239;" d="M-40.322,458.787V181.092c0-9.589,7.767-17.356,17.356-17.356h260.339
	c9.589,0,17.356,7.767,17.356,17.356v277.695H-40.322z"/>
<rect x="280.763" y="450.109" width="34.712" height="17.356"/>
<path style="fill:#FEC007;" d="M141.915,233.16L141.915,233.16c43.138,0,78.102,34.964,78.102,78.102l0,0
	c0,43.138-34.964,78.102-78.102,78.102l0,0c-43.138,0-78.102-34.964-78.102-78.102l0,0C63.814,268.124,98.777,233.16,141.915,233.16
	z"/>
<polygon style="fill:#3F51B4;" points="141.915,323.532 118.424,300.041 130.695,287.77 141.915,298.991 170.492,270.415 
	182.762,282.685 "/>
<g>
	<rect x="-49" y="302.584" style="fill:#FEC007;" width="86.78" height="17.356"/>
	<rect x="-31.644" y="337.296" style="fill:#FEC007;" width="69.424" height="17.356"/>
	<rect x="-14.288" y="267.872" style="fill:#FEC007;" width="52.068" height="17.356"/>
	<rect x="-49" y="267.872" style="fill:#FEC007;" width="17.356" height="17.356"/>
	<path style="fill:#FEC007;" d="M257.002,545.567h-91.327c3.037,11.368,3.037,23.344,0,34.712h91.327
		C253.965,568.902,253.965,556.935,257.002,545.567z"/>
	<path style="fill:#FEC007;" d="M31.375,545.567h-71.697v34.712h71.697C28.338,568.902,28.338,556.935,31.375,545.567z"/>
	<path style="fill:#FEC007;" d="M463,545.567h-71.697c3.037,11.368,3.037,23.344,0,34.712H463V545.567z"/>
</g>
<path style="fill:#3F51B4;" d="M98.525,493.499c31.631,0.035,59.244,21.443,67.15,52.068h91.327
	c9.52-37.09,47.304-59.427,84.393-49.907c24.489,6.292,43.615,25.418,49.907,49.907h54.341l-10.717-121.492h-128.13
	c-9.589,0-17.356-7.767-17.356-17.356V302.584c0-9.589,7.767-17.356,17.356-17.356h115.877l-1.666-18.883
	c-0.79-8.956-8.296-15.829-17.287-15.829H254.729v208.271H-40.322v86.78h71.697C39.281,514.942,66.894,493.534,98.525,493.499z"/>
<g>
	<path style="fill:#E01717;" d="M165.676,545.567c-9.58-35.927-46.479-57.292-82.406-47.711s-57.292,46.479-47.711,82.406
		c9.58,35.927,46.479,57.292,82.406,47.711c29.47-7.862,49.985-34.547,49.985-65.05
		C167.923,557.065,167.159,551.233,165.676,545.567z M98.525,597.635c-19.387,0.217-35.276-15.325-35.493-34.712
		c-0.217-19.387,15.325-35.276,34.712-35.493s35.276,15.325,35.493,34.712c0.069,6.37-1.597,12.635-4.816,18.137
		C122.268,590.987,110.874,597.609,98.525,597.635z"/>
	<path style="fill:#E01717;" d="M391.303,545.567c-9.58-35.927-46.479-57.292-82.406-47.711s-57.292,46.479-47.711,82.406
		c9.58,35.927,46.479,57.292,82.406,47.711c29.479-7.862,49.985-34.547,49.985-65.05
		C393.55,557.065,392.787,551.233,391.303,545.567z M324.153,597.635c-19.387,0.217-35.276-15.325-35.493-34.712
		c-0.217-19.387,15.325-35.276,34.712-35.493s35.276,15.325,35.493,34.712c0.069,6.37-1.597,12.635-4.816,18.137
		C347.895,590.987,336.501,597.609,324.153,597.635z"/>
</g>
<path style="fill:#A6D5FA;" d="M425.069,312.355c-31.779,44.24-71.559,82.128-117.283,111.72h127.132L425.069,312.355z"/>
</svg>
