<?xml version="1.0" encoding="iso-8859-1"?>
<!-- Generator: Adobe Illustrator 22.0.0, SVG Export Plug-In . SVG Version: 6.00 Build 0)  -->
<svg version="1.1" id="Capa_1" xmlns="http://www.w3.org/2000/svg" xmlns:xlink="http://www.w3.org/1999/xlink" x="0px" y="0px"
	 viewBox="-49 141 512 512" style="enable-background:new -49 141 512 512;" xml:space="preserve">
<path style="fill:#3F51B4;" d="M109.897,405.828V238.103c0-9.754,7.901-17.655,17.655-17.655h317.793
	c9.754,0,17.655,7.901,17.655,17.655v229.517c0,9.754-7.901,17.655-17.655,17.655H127.552c-9.754,0-17.655-7.901-17.655-17.655l0,0"
	/>
<rect x="357.069" y="326.379" style="fill:#FEC007;" width="70.621" height="52.966"/>
<rect x="383.552" y="344.034" style="fill:#E01717;" width="17.655" height="17.655"/>
<g>
	<rect x="304.103" y="282.241" style="fill:#B7E5FF;" width="132.414" height="17.655"/>
	<rect x="365.897" y="246.931" style="fill:#B7E5FF;" width="70.621" height="17.655"/>
	<rect x="224.655" y="246.931" style="fill:#B7E5FF;" width="123.586" height="17.655"/>
	<path style="fill:#B7E5FF;" d="M136.379,273.414c0-14.627,11.855-26.483,26.483-26.483h17.655
		c14.627,0,26.483,11.855,26.483,26.483c0,14.627-11.855,26.483-26.483,26.483h-17.655
		C148.235,299.897,136.379,288.041,136.379,273.414z M189.345,273.414c0-4.873-3.955-8.828-8.828-8.828h-17.655
		c-4.873,0-8.828,3.955-8.828,8.828s3.955,8.828,8.828,8.828h17.655C185.39,282.241,189.345,278.287,189.345,273.414z"/>
</g>
<path style="fill:#EFC7B0;" d="M-49,432.31L-49,432.31c29.158,0,58.041-5.561,85.116-16.393l6.312-2.525
	C69.502,402.561,98.394,397,127.552,397h103.786c7.027,0,13.762,2.79,18.723,7.759l0,0c10.346,10.337,10.346,27.11,0,37.455l0,0l0,0
	c-4.97,4.961-11.705,7.751-18.723,7.751H127.552c-9.754,0-17.655,7.901-17.655,17.655l0,0c0,9.754,7.901,17.655,17.655,17.655
	h211.862l0,0c-21.327,53.319-72.96,88.276-130.383,88.276H-49V432.31z"/>
</svg>
