<?xml version="1.0" encoding="utf-8"?>
<!-- Generator: Adobe Illustrator 22.0.0, SVG Export Plug-In . SVG Version: 6.00 Build 0)  -->
<svg version="1.1" id="Capa_1" xmlns="http://www.w3.org/2000/svg" xmlns:xlink="http://www.w3.org/1999/xlink" x="0px" y="0px"
	 viewBox="0 0 116.8 122.3" style="enable-background:new 0 0 116.8 122.3;" xml:space="preserve">
<style type="text/css">
	.st0{fill:url(#XMLID_2_);}
	.st1{fill:#FFFFFF;}
</style>
<linearGradient id="XMLID_2_" gradientUnits="userSpaceOnUse" x1="396.9" y1="1526.9" x2="396.9" y2="1637.1" gradientTransform="matrix(-1 0 0 1 455 -1521)">
	<stop  offset="0" style="stop-color:#FF8E42"/>
	<stop  offset="1" style="stop-color:#FF655E"/>
</linearGradient>
<path id="XMLID_95_" class="st0" d="M3,97.7c0,10.1,8.2,18.4,18.4,18.4h73.4c10.1,0,18.4-8.2,18.4-18.4V24.3
	c0-10.1-8.2-18.4-18.4-18.4H21.4C11.2,6,3,14.2,3,24.3V97.7z"/>
<rect id="XMLID_94_" x="66.5" y="50.2" class="st1" width="16.9" height="16.9"/>
<rect id="XMLID_93_" x="66.5" y="79.9" class="st1" width="16.9" height="17.7"/>
<rect id="XMLID_92_" x="39.2" y="22.9" class="st1" width="16.9" height="17.7"/>
<rect id="XMLID_83_" x="39.2" y="50.2" class="st1" width="16.9" height="16.9"/>
<rect id="XMLID_73_" x="38.4" y="78.5" transform="matrix(0.7071 -0.7071 0.7071 0.7071 -48.029 59.3103)" class="st1" width="18.3" height="18.3"/>
</svg>
