<?xml version="1.0" encoding="utf-8"?>
<!-- Generator: Adobe Illustrator 22.0.0, SVG Export Plug-In . SVG Version: 6.00 Build 0)  -->
<svg version="1.1" id="Capa_1" xmlns="http://www.w3.org/2000/svg" xmlns:xlink="http://www.w3.org/1999/xlink" x="0px" y="0px"
	 viewBox="0 0 116.8 122.3" style="enable-background:new 0 0 116.8 122.3;" xml:space="preserve">
<style type="text/css">
	.st0{fill:url(#SVGID_1_);}
	.st1{fill:url(#SVGID_2_);}
	.st2{fill:url(#SVGID_3_);}
	.st3{fill:url(#SVGID_4_);}
	.st4{fill:#FFFFFF;}
</style>
<g>
	<radialGradient id="SVGID_1_" cx="191.4562" cy="138.7546" r="144.8587" gradientUnits="userSpaceOnUse">
		<stop  offset="0.2602" style="stop-color:#36B649"/>
		<stop  offset="0.7602" style="stop-color:#57C965"/>
	</radialGradient>
	<path class="st0" d="M251.6,93c0,12.8-10.4,23.1-23.1,23.1h-66.3c-12.8,0-23.1-10.4-23.1-23.1V26.6c0-12.8,10.4-23.1,23.1-23.1
		h66.3c12.8,0,23.1,10.4,23.1,23.1V93z"/>
	<g>
		<radialGradient id="SVGID_2_" cx="179.7307" cy="103.6336" r="88.8634" gradientUnits="userSpaceOnUse">
			<stop  offset="0.2194" style="stop-color:#E7E7E7"/>
			<stop  offset="0.8827" style="stop-color:#FCFCFC"/>
		</radialGradient>
		<path class="st1" d="M196,18.3c-22.7,0-41.1,18.4-41.1,41.1c0,7.7,2.1,14.9,5.8,21l-5.2,20.9l20.6-5.9c5.9,3.3,12.7,5.2,19.9,5.2
			c22.7,0,41.1-18.4,41.1-41.1C237.1,36.7,218.7,18.3,196,18.3z M196.5,93.7c-7.2,0-13.8-2.2-19.3-6l-11.7,3.4l3-12.1
			c-3.8-5.5-6.1-12.2-6.1-19.4c0-18.9,15.3-34.1,34.1-34.1c18.9,0,34.1,15.3,34.1,34.1C230.6,78.4,215.3,93.7,196.5,93.7z"/>
		<radialGradient id="SVGID_3_" cx="180.6695" cy="85.0185" r="39.7541" gradientUnits="userSpaceOnUse">
			<stop  offset="0.2194" style="stop-color:#E7E7E7"/>
			<stop  offset="0.8827" style="stop-color:#FFFFFF"/>
		</radialGradient>
		<path class="st2" d="M185.6,56.2c0.5-0.5,1-1.1,1.4-1.6c0.8-0.9,2-1.8,2.1-3.2c0.1-1.3-0.4-2.6-0.9-3.7c-0.3-0.7-0.6-1.5-0.9-2.3
			c-0.5-1.4-1.2-3.3-1.9-4.1c-1-1.1-2.8-1.3-4.2-0.6c0,0-8.1,3.9-5.6,11.6c0,0,4.8,21.9,29,26.4c0,0,8.7,1.2,11-4
			c0.5-1.1,0.8-2.7,0.8-4c-0.1-1.2-0.9-2-1.9-2.6c-1.3-0.7-2.4-1.4-3.9-2.1c-1.3-0.6-2.7-1.5-4.2-1.1c-1.1,0.3-1.8,1.3-2.5,2
			c-0.9,1-1.9,2-2.9,3C201.1,69.8,188.9,65.3,185.6,56.2z"/>
	</g>
</g>
<g>
	<radialGradient id="SVGID_4_" cx="35.2347" cy="125.6808" r="148.0858" gradientUnits="userSpaceOnUse">
		<stop  offset="9.693880e-02" style="stop-color:#FFD879"/>
		<stop  offset="0.1539" style="stop-color:#FCCB76"/>
		<stop  offset="0.2583" style="stop-color:#F5AA6C"/>
		<stop  offset="0.3976" style="stop-color:#E9755E"/>
		<stop  offset="0.449" style="stop-color:#E45F58"/>
		<stop  offset="0.6786" style="stop-color:#D22A9C"/>
		<stop  offset="1" style="stop-color:#6968DF"/>
	</radialGradient>
	<path class="st3" d="M114.3,94.1c0,12.7-10.3,23-23,23H25.5c-12.7,0-23-10.3-23-23V28.2c0-12.7,10.3-23,23-23h65.8
		c12.7,0,23,10.3,23,23V94.1z"/>
	<g>
		<path class="st4" d="M74.5,19H42.2c-14.3,0-26,11.6-26,26v32.3c0,14.3,11.6,26,26,26h32.3c14.3,0,26-11.6,26-26V45
			C100.5,30.6,88.9,19,74.5,19z M92.4,74.2c0,11.6-9.4,21-21,21H45.3c-11.6,0-21-9.4-21-21V48.1c0-11.6,9.4-21,21-21h26.1
			c11.6,0,21,9.4,21,21V74.2z"/>
		<path class="st4" d="M59.5,39.1c-12.3,0-22.2,9.9-22.2,22.2c0,12.3,9.9,22.2,22.2,22.2c12.3,0,22.2-9.9,22.2-22.2
			C81.7,49,71.8,39.1,59.5,39.1z M59.5,74.7c-7.4,0-13.4-6-13.4-13.4c0-7.4,6-13.4,13.4-13.4c7.4,0,13.4,6,13.4,13.4
			C72.9,68.7,66.9,74.7,59.5,74.7z"/>
		<path class="st4" d="M85.8,38.8c0,3.1-2.5,5.6-5.6,5.6c-3.1,0-5.6-2.5-5.6-5.6c0-3.1,2.5-5.6,5.6-5.6
			C83.3,33.1,85.8,35.6,85.8,38.8z"/>
	</g>
</g>
</svg>
