<?xml version="1.0" encoding="utf-8"?>
<!-- Generator: Adobe Illustrator 23.0.0, SVG Export Plug-In . SVG Version: 6.00 Build 0)  -->
<svg version="1.1" id="Capa_1" xmlns="http://www.w3.org/2000/svg" xmlns:xlink="http://www.w3.org/1999/xlink" x="0px" y="0px"
	 viewBox="0 0 489 130" style="enable-background:new 0 0 489 130;" xml:space="preserve">
<style type="text/css">
	.st0{fill:url(#XMLID_8_);}
	.st1{fill:#FFFFFF;stroke:#FFFFFF;stroke-width:1.3228;stroke-miterlimit:10;}
	.st2{fill:#343241;}
</style>
<linearGradient id="XMLID_8_" gradientUnits="userSpaceOnUse" x1="768.05" y1="1506.7" x2="768.05" y2="1607.6" gradientTransform="matrix(-1 0 0 1 829 -1499)">
	<stop  offset="0" style="stop-color:#FF8E42"/>
	<stop  offset="1" style="stop-color:#FF655E"/>
</linearGradient>
<path id="XMLID_6_" class="st0" d="M9.7,91.8c0,9.3,7.6,16.8,17.1,16.8h68.3c9.4,0,17.1-7.5,17.1-16.8V24.5
	c0-9.3-7.6-16.8-17.1-16.8H26.8c-9.4,0-17.1,7.5-17.1,16.8C9.7,24.5,9.7,91.8,9.7,91.8z"/>
<path id="XMLID_5_" class="st1" d="M73.4,47.2h10.3c1.9,0,3.4,1.5,3.4,3.4v10.3c0,1.9-1.5,3.4-3.4,3.4H73.4c-1.9,0-3.4-1.5-3.4-3.4
	V50.6C70.1,48.7,71.6,47.2,73.4,47.2z"/>
<path id="XMLID_4_" class="st1" d="M73.4,77.1h10.3c1.9,0,3.4,1.5,3.4,3.4v11.1c0,1.9-1.5,3.4-3.4,3.4H73.4c-1.9,0-3.4-1.5-3.4-3.4
	V80.5C70.1,78.6,71.6,77.1,73.4,77.1z"/>
<path id="XMLID_3_" class="st1" d="M46,19.8h10.3c1.9,0,3.4,1.5,3.4,3.4v11.1c0,1.9-1.5,3.4-3.4,3.4H46c-1.9,0-3.4-1.5-3.4-3.4V23.1
	C42.6,21.3,44.1,19.8,46,19.8z"/>
<path id="XMLID_2_" class="st1" d="M46,47.2h10.3c1.9,0,3.4,1.5,3.4,3.4v10.3c0,1.9-1.5,3.4-3.4,3.4H46c-1.9,0-3.4-1.5-3.4-3.4V50.6
	C42.6,48.7,44.1,47.2,46,47.2z"/>
<path id="XMLID_1_" class="st1" d="M53.4,74.2l8.3,8.3c1.3,1.3,1.3,3.4,0,4.7l-8.3,8.3c-1.3,1.3-3.4,1.3-4.7,0l-8.3-8.3
	c-1.3-1.3-1.3-3.4,0-4.7l8.3-8.3C50,72.9,52.1,72.9,53.4,74.2z"/>
<g>
	<path class="st2" d="M218.5,74c0,15.2-11.3,26.8-26.6,26.8H152h-2c-1.8,0-2.9-1-2.9-2.9V19.3c0-1.8,1-2.9,2.9-2.9h13.7h18.5
		c14.4,0,24.9,9.7,24.9,22.8c0,3.7-1.1,7.3-3.1,10.3C212.8,54.1,218.5,63.1,218.5,74z M163.7,32v14.3H188c1.6-1.6,2.5-3.9,2.5-6.1
		c0-4.7-3.2-8.1-8.3-8.1L163.7,32z M201.9,73.2c0-6.8-3.9-12.2-12-12.2h-26.2v24.4h26.1C197.9,85.3,201.9,79.9,201.9,73.2z"/>
	<path class="st2" d="M227.7,29.3v-10c0-1.8,1-2.9,2.9-2.9h9.8c1.8,0,2.9,1,2.9,2.9v10c0,1.8-1,2.9-2.9,2.9h-9.8
		C228.7,32.1,227.7,31.1,227.7,29.3z M227.7,97.9V43.4c0-1.8,1-2.9,2.9-2.9h9.8c1.8,0,2.9,1,2.9,2.9v54.5c0,1.8-1,2.9-2.9,2.9h-9.8
		C228.7,100.8,227.7,99.8,227.7,97.9z"/>
	<path class="st2" d="M301.4,100.8h-10.2c-1.5,0-2.6-0.7-3.4-1.9L277.7,83l-10.1,15.9c-0.8,1.3-2,1.9-3.4,1.9H254
		c-2.3,0-3.2-1.5-1.9-3.4L269.5,70L253,44c-1.3-1.9-0.4-3.4,1.9-3.4h10.2c1.5,0,2.6,0.7,3.4,1.9l9.2,14.4l9.2-14.4
		c0.8-1.3,2-1.9,3.4-1.9h10.2c2.3,0,3.2,1.5,1.9,3.4l-16.5,26l17.4,27.4C304.6,99.3,303.7,100.8,301.4,100.8z"/>
	<path class="st2" d="M376.5,70.8c0,17.9-13.3,31.8-29.4,31.8c-8.8,0-15.3-3.3-19.6-8.7v28.4c0,1.8-1,2.9-2.9,2.9h-9.8
		c-1.8,0-2.9-1-2.9-2.9V43.4c0-1.8,1-2.9,2.9-2.9h9.8c1.8,0,2.9,1,2.9,2.9v4.3c4.3-5.5,10.7-8.7,19.6-8.7
		C363.2,38.9,376.5,52.8,376.5,70.8z M361,70.8c0-10.1-7.1-17-16.7-17c-9.6,0-16.7,6.9-16.7,17s7.1,17,16.7,17
		C353.8,87.8,361,80.8,361,70.8z"/>
	<path class="st2" d="M418.3,42.4v11.4c0,1.8-0.8,2.8-2.2,2.8c-7.3-0.1-14.3,3.7-14.3,14.5V98c0,1.8-1,2.9-2.9,2.9h-9.8
		c-1.8,0-2.9-1-2.9-2.9V43.4c0-1.8,1-2.9,2.9-2.9h9.8c1.8,0,2.9,1,2.9,2.9v6.2c2.6-6.1,7.6-9.3,13.6-10
		C417.3,39.3,418.3,40.5,418.3,42.4z"/>
	<path class="st2" d="M420.6,70.8c0-17.9,14.2-31.8,31.9-31.8c17.7,0,31.9,13.8,31.9,31.8c0,17.9-14.2,31.8-31.9,31.8
		C434.8,102.5,420.6,88.7,420.6,70.8z M468.8,70.8c0-9.8-7.1-16.6-16.3-16.6c-9.2,0-16.3,6.9-16.3,16.6c0,9.8,7.1,16.6,16.3,16.6
		C461.7,87.3,468.8,80.4,468.8,70.8z"/>
</g>
</svg>
