<?xml version="1.0" encoding="utf-8"?>
<!-- Generator: Adobe Illustrator 23.0.0, SVG Export Plug-In . SVG Version: 6.00 Build 0)  -->
<svg version="1.1" id="layer_1" xmlns="http://www.w3.org/2000/svg" xmlns:xlink="http://www.w3.org/1999/xlink" x="0px" y="0px"
	 viewBox="0 0 501.4 148.5" style="enable-background:new 0 0 501.4 148.5;" xml:space="preserve">
<style type="text/css">
	.st0{opacity:0.3;fill:url(#SVGID_1_);}
	.st1{opacity:0.3;fill:url(#SVGID_2_);}
	.st2{opacity:0.3;fill:url(#SVGID_3_);}
	.st3{opacity:0.3;fill:url(#SVGID_4_);}
	.st4{fill:#D5DBE0;}
	.st5{fill:#F0F0F0;}
</style>
<linearGradient id="SVGID_1_" gradientUnits="userSpaceOnUse" x1="-1601.4482" y1="1921.0417" x2="-1341.7948" y2="1921.0417">
	<stop  offset="0" style="stop-color:#C66FD7"/>
	<stop  offset="1" style="stop-color:#5937E5"/>
</linearGradient>
<path class="st0" d="M-1428.1,1813.5c-91.7-5.1-170.7,77-173.3,122.7c-2.5,45.8,69.7,87,161.3,92.1c91.7,5.1,168-27.9,170.6-73.6
	C-1266.9,1908.9-1336.4,1818.6-1428.1,1813.5z"/>
<linearGradient id="SVGID_2_" gradientUnits="userSpaceOnUse" x1="-426.8234" y1="1405.0121" x2="-185.8849" y2="1405.0121">
	<stop  offset="0" style="stop-color:#C66FD7"/>
	<stop  offset="1" style="stop-color:#5937E5"/>
</linearGradient>
<path class="st1" d="M-353.9,1313.1c-83,34.1-136.6,95.4-119.5,136.9s116.5,91.9,199.5,57.8c83-34.1,118.3-139.9,101.2-181.4
	C-189.8,1284.9-270.9,1279-353.9,1313.1z"/>
<linearGradient id="SVGID_3_" gradientUnits="userSpaceOnUse" x1="-1600.715" y1="1348.1067" x2="-1370.271" y2="1348.1067">
	<stop  offset="0" style="stop-color:#52C5F1"/>
	<stop  offset="1" style="stop-color:#5457E2"/>
</linearGradient>
<path class="st2" d="M-1509,1279.4c-62.1,25.5-102.1,71.4-89.4,102.4c12.7,31,87.1,68.7,149.2,43.2c62.1-25.5,88.5-104.7,75.7-135.7
	C-1386.1,1258.3-1446.8,1253.9-1509,1279.4z"/>
<linearGradient id="SVGID_4_" gradientUnits="userSpaceOnUse" x1="-570.4274" y1="1866.1973" x2="-95.8387" y2="1866.1973">
	<stop  offset="0" style="stop-color:#52C5F1"/>
	<stop  offset="1" style="stop-color:#5457E2"/>
</linearGradient>
<path class="st3" d="M-433.2,1666c-165.7,47.5-255.3,241.9-231.6,324.6c23.7,82.7,177.3,111.2,343,63.7
	c165.7-47.5,280.8-153.1,257.1-235.8S-267.5,1618.5-433.2,1666z"/>
<g>
	<polygon class="st4" points="173.3,126 182.6,126 183.9,115.8 168.7,115.8 	"/>
	<g>
		<path class="st4" d="M148.9,89.3l-10.6-1.6l7,12.7l8.9-2.9c0-0.1,0-4.7,0-4.7C154.1,90,151.8,89.3,148.9,89.3z"/>
		<path class="st4" d="M145.3,105.2l-7,12.7l10.6-1.6c2.9,0,5.2-0.6,5.2-3.5c0,0,0-4.5,0-4.7L145.3,105.2z"/>
	</g>
	<path class="st5" d="M136.2,103.4c0,0,72.5-0.1,72.6,0C200.3,73.4,140.3,90.1,136.2,103.4z"/>
	<path class="st4" d="M136.2,103.4c4,13.3,64.1,30,72.6,0C208.7,103.5,136.2,103.4,136.2,103.4z"/>
	<path class="st4" d="M179.4,93.4c-26.3,0-42.9,9.8-43.1,9.9h72.6C208.7,103.2,205.6,93.4,179.4,93.4z"/>
	<path class="st5" d="M179.4,113.3c26.2,0,29.3-9.8,29.5-9.9h-72.6C136.5,103.5,153.1,113.3,179.4,113.3z"/>
	<polygon class="st4" points="208.8,103.4 208.8,103.4 208.8,103.4 	"/>
</g>
<g>
	<path class="st5" d="M480.7,84.1c-2.9,0-5.4,1.5-7,3.5h14.1C486.1,85.6,483.5,84.1,480.7,84.1z"/>
	<path class="st5" d="M446.2,80.2c-3,0-5.3,3.6-8,2.9c-5.9-1.4-8.4-9-14.9-9c-5,0-7.9,6.2-12.6,5.8c-7.3-0.7-10.7-10.6-18.6-10.6
		c-7.3,0-10.9,8.5-17.7,9.2c-4,0.4-6.9-4.3-11.2-4.3c-8.2,0-8.9,3.2-16.4,5.6c-2.2,0.7-3.8,4.9-6.2,4.9c-2.9,0-5.4,0.9-7,2.9h124.8
		C456.3,83.6,451.6,80.2,446.2,80.2z"/>
</g>
<g>
	<path class="st5" d="M38.8,52c-2.9,0-5.4,1.5-7,3.5h14.1C44.2,53.5,41.7,52,38.8,52z"/>
	<path class="st5" d="M178.8,52.6c-2.4,0-0.3-4-6.2-4.9c-10.1-1.5-8.2-5.6-16.4-5.6c-4.3,0-7.2,4.8-11.2,4.3
		c-6.8-0.8-10.3-9.2-17.7-9.2c-7.9,0-11.2,9.9-18.6,10.6c-4.6,0.4-7.5-5.8-12.6-5.8c-6.5,0-8.9,7.6-14.9,9c-2.7,0.6-5-2.9-8-2.9
		c-5.5,0-10.2,3.4-12.2,7.4h124.8C184.2,53.5,181.7,52.6,178.8,52.6z"/>
</g>
</svg>
