<svg height="512pt" viewBox="0 -34 512 512" width="512pt" xmlns="http://www.w3.org/2000/svg"><path d="m413.539062 354.460938h-78.769531c-8.15625 0-14.769531 6.613281-14.769531 14.769531v19.691406c0 29.863281 24.292969 54.15625 54.152344 54.15625 29.863281 0 54.15625-24.292969 54.15625-54.15625v-19.691406c0-8.15625-6.613282-14.769531-14.769532-14.769531zm0 0" fill="#3440db"/><path d="m467.691406 59.078125h-388.921875c-4.339843 0-8.464843 1.910156-11.269531 5.222656s-4.011719 7.691407-3.300781 11.972657l39.386719 236.308593c1.1875 7.121094 7.347656 12.339844 14.566406 12.339844h349.539062c24.433594 0 44.308594-19.875 44.308594-44.304687v-177.234376c0-24.429687-19.875-44.304687-44.308594-44.304687zm0 0" fill="#fdd835"/><path d="m452.921875 206.769531h-14.769531v-29.539062h14.769531c8.15625 0 14.769531-6.613281 14.769531-14.769531s-6.613281-14.769532-14.769531-14.769532h-14.769531v-14.769531c0-8.15625-6.609375-14.769531-14.769532-14.769531-8.15625 0-14.765624 6.613281-14.765624 14.769531v14.769531h-49.234376v-14.769531c0-8.15625-6.609374-14.769531-14.765624-14.769531-8.160157 0-14.769532 6.613281-14.769532 14.769531v14.769531h-49.230468v-14.769531c0-8.15625-6.613282-14.769531-14.769532-14.769531s-14.769531 6.613281-14.769531 14.769531v14.769531h-49.230469v-14.769531c0-8.15625-6.613281-14.769531-14.769531-14.769531s-14.769531 6.613281-14.769531 14.769531v14.769531h-14.769532c-8.15625 0-14.769531 6.613282-14.769531 14.769532s6.613281 14.769531 14.769531 14.769531h14.769532v29.539062h-14.769532c-8.15625 0-14.769531 6.613281-14.769531 14.769531s6.613281 14.769532 14.769531 14.769532h14.769532v14.769531c0 8.15625 6.613281 14.769531 14.769531 14.769531s14.769531-6.613281 14.769531-14.769531v-14.769531h49.230469v14.769531c0 8.15625 6.613281 14.769531 14.769531 14.769531s14.769532-6.613281 14.769532-14.769531v-14.769531h49.230468v14.769531c0 8.15625 6.609375 14.769531 14.769532 14.769531 8.15625 0 14.765624-6.613281 14.765624-14.769531v-14.769531h49.234376v14.769531c0 8.15625 6.609374 14.769531 14.765624 14.769531 8.160157 0 14.769532-6.613281 14.769532-14.769531v-14.769531h14.769531c8.15625 0 14.769531-6.613282 14.769531-14.769532s-6.613281-14.769531-14.769531-14.769531zm-251.074219 0v-29.539062h49.230469v29.539062zm78.769532 0v-29.539062h49.230468v29.539062zm78.765624 0v-29.539062h49.234376v29.539062zm0 0" fill="#ffa000"/><path d="m216.617188 354.460938h-78.769532c-8.15625 0-14.769531 6.613281-14.769531 14.769531v19.691406c0 29.863281 24.292969 54.15625 54.152344 54.15625s54.152343-24.292969 54.152343-54.15625v-19.691406c0-8.15625-6.609374-14.769531-14.765624-14.769531zm0 0" fill="#5f69e3"/><path d="m472.617188 384h-384c-24.433594 0-44.308594-19.875-44.308594-44.308594 0-24.429687 19.875-44.308594 44.308594-44.308594h12.101562l-42.25-253.503906c-1.191406-7.152344-7.320312-12.339844-14.570312-12.339844h-29.128907c-8.15625 0-14.769531-6.613281-14.769531-14.769531s6.613281-14.769531 14.769531-14.769531h29.128907c21.75 0 40.128906 15.570312 43.707031 37.023438l45.117187 270.703124c.714844 4.28125-.492187 8.660157-3.300781 11.976563-2.804687 3.3125-6.925781 5.21875-11.269531 5.21875h-29.535156c-8.144532 0-14.769532 6.625-14.769532 14.769531 0 8.144532 6.625 14.769532 14.769532 14.769532h384c8.15625 0 14.765624 6.613281 14.765624 14.769531s-6.609374 14.769531-14.765624 14.769531zm0 0" fill="#ff3c7d"/><path d="m467.691406 59.078125h-162.460937v265.84375h162.460937c24.433594 0 44.308594-19.875 44.308594-44.304687v-177.234376c0-24.429687-19.875-44.304687-44.308594-44.304687zm0 0" fill="#fbc02d"/><path d="m452.921875 206.769531h-14.769531v-29.539062h14.769531c8.15625 0 14.769531-6.613281 14.769531-14.769531s-6.613281-14.769532-14.769531-14.769532h-14.769531v-14.769531c0-8.15625-6.609375-14.769531-14.769532-14.769531-8.15625 0-14.765624 6.613281-14.765624 14.769531v14.769531h-49.234376v-14.769531c0-8.15625-6.609374-14.769531-14.765624-14.769531-8.160157 0-14.769532 6.613281-14.769532 14.769531v14.769531h-24.617187v29.539063h24.617187v29.539062h-24.617187v29.539063h24.617187v14.769531c0 8.15625 6.609375 14.769531 14.769532 14.769531 8.15625 0 14.765624-6.613281 14.765624-14.769531v-14.769531h49.234376v14.769531c0 8.15625 6.609374 14.769531 14.765624 14.769531 8.160157 0 14.769532-6.613281 14.769532-14.769531v-14.769531h14.769531c8.15625 0 14.769531-6.613282 14.769531-14.769532s-6.613281-14.769531-14.769531-14.769531zm-44.304687 0h-49.234376v-29.539062h49.234376zm0 0" fill="#ee8700"/><path d="m472.617188 354.460938h-167.386719v29.539062h167.386719c8.15625 0 14.765624-6.613281 14.765624-14.769531s-6.609374-14.769531-14.765624-14.769531zm0 0" fill="#d10050"/></svg>