<?xml version="1.0" encoding="utf-8"?>
<!-- Generator: Adobe Illustrator 23.0.0, SVG Export Plug-In . SVG Version: 6.00 Build 0)  -->
<svg version="1.1" id="Capa_1" xmlns="http://www.w3.org/2000/svg" xmlns:xlink="http://www.w3.org/1999/xlink" x="0px" y="0px"
	 viewBox="0 0 414 414" style="enable-background:new 0 0 414 414;" xml:space="preserve">
<style type="text/css">
	.st0{fill:#D4E1F4;}
	.st1{fill:#1AE5BE;}
	.st2{fill:#FF7653;}
</style>
<path class="st0" d="M363.7,180.1H147.5l-15-94.5H97.8l19.7,124.5h216.2c12.2,0,23-7.7,27-19.2l3.8-10.8
	C364.2,180.1,364,180.1,363.7,180.1z"/>
<path class="st1" d="M163,402.6c-21.8,0-39.5-17.7-39.5-39.5c0-21.8,17.7-39.5,39.5-39.5c21.8,0,39.5,17.7,39.5,39.5
	C202.5,384.9,184.8,402.6,163,402.6z M163,337.7c-14.1,0-25.5,11.4-25.5,25.5c0,14.1,11.4,25.5,25.5,25.5
	c14.1,0,25.5-11.4,25.5-25.5C188.5,349.1,177.1,337.7,163,337.7z"/>
<path class="st1" d="M309.2,402.6c-21.8,0-39.5-17.7-39.5-39.5c0-21.8,17.7-39.5,39.5-39.5c21.8,0,39.5,17.7,39.5,39.5
	C348.6,384.9,331,402.6,309.2,402.6z M309.2,337.7c-14.1,0-25.5,11.4-25.5,25.5c0,14.1,11.4,25.5,25.5,25.5
	c14.1,0,25.5-11.4,25.5-25.5C334.6,349.1,323.2,337.7,309.2,337.7z"/>
<path class="st2" d="M407,71.6H95.6l-3.9-24.7c-3.2-20.7-21.1-36-42-35.9H7c-3.9,0-7,3.1-7,7c0,3.9,3.1,7,7,7h42.7
	c14.1-0.1,26,10.2,28.2,24.1l33.8,213.5c3.2,20.7,21.1,36,42,35.9h208.9c3.9,0,7-3.1,7-7c0-3.9-3.1-7-7-7H153.7
	c-14.1,0.1-26-10.2-28.2-24.1l-5.7-36.3h214c18.1,0,34.2-11.5,40.2-28.6l39.7-114.6c0.7-2.1,0.4-4.5-0.9-6.4
	C411.4,72.7,409.3,71.6,407,71.6z M360.7,190.9c-4,11.5-14.8,19.2-27,19.2H117.5l-6.4-40.3H368L360.7,190.9z M372.8,155.8H108.9
	l-2.5-16h272L372.8,155.8z M383.2,125.8h-279l-6.4-40.2h299.3L383.2,125.8z"/>
</svg>
