<?xml version="1.0" encoding="utf-8"?>
<!-- Generator: Adobe Illustrator 23.0.0, SVG Export Plug-In . SVG Version: 6.00 Build 0)  -->
<svg version="1.1" id="Capa_1" xmlns="http://www.w3.org/2000/svg" xmlns:xlink="http://www.w3.org/1999/xlink" x="0px" y="0px"
	 viewBox="0 0 487 487" style="enable-background:new 0 0 487 487;" xml:space="preserve">
<style type="text/css">
	.st0{fill:#D4E1F4;}
	.st1{fill:#1AE5BE;}
	.st2{fill:#FF7653;}
</style>
<path class="st0" d="M244.5,432.7c-14.5,0-26.3-11.6-26.5-26.1l28.2-202.3h-17.3c-4.8,0-8.9,3.5-9.6,8.2L188,436.6
	c0.3,14.5,12.1,26.1,26.5,26.1h192.9c14.5,0,26.3-11.6,26.6-26.1l-0.5-3.9H244.5z"/>
<path class="st0" d="M76,402.4c-18,0-32.7-14.5-33-32.5l34.6-248.3H63.1c-6.4,0-11.8,4.6-12.8,10.9L13.1,399.8
	c0.3,18,15,32.5,33,32.5h128.4l4.2-30H76z"/>
<path class="st1" d="M228.1,165.2c-3.9,0-7-3.1-7-7v-74c0-32.6-26.5-59.1-59.1-59.1c-32.6,0-59.1,26.5-59.1,59.1v74c0,3.9-3.1,7-7,7
	c-3.9,0-7-3.1-7-7v-74c0-40.4,32.7-73.1,73.1-73.1c40.4,0,73.1,32.7,73.1,73.1v74C235.1,162.1,231.9,165.2,228.1,165.2z"/>
<path class="st1" d="M311.9,331.8c-34.5,0-62.4-28-62.4-62.4v-32.1c0-3.9,3.1-7,7-7c3.9,0,7,3.1,7,7v32.1
	c0,26.7,21.7,48.4,48.4,48.4s48.4-21.7,48.4-48.4v-32.1c0-3.9,3.1-7,7-7c3.9,0,7,3.1,7,7v32.1C374.3,303.9,346.4,331.8,311.9,331.8z
	"/>
<g>
	<path class="st2" d="M156.8,184.5c6.7,6.7,17.6,6.7,24.3,0c6.7-6.7,6.7-17.6,0-24.3c-6.7-6.7-17.6-6.7-24.3,0
		c-3.2,3.2-5.1,7.6-5.1,12.1C151.8,177,153.6,181.3,156.8,184.5z M166.7,170.2c1.2-1.2,3.2-1.2,4.5,0c1.2,1.2,1.2,3.2,0,4.5
		c-1.2,1.2-3.2,1.2-4.5,0C165.5,173.4,165.5,171.4,166.7,170.2z"/>
	<path class="st2" d="M433.8,327.1l-16.2-116.6l0-0.1c-1.8-11.6-11.8-20.1-23.5-20.1h-99.2l-8.3-59.8l0-0.1
		c-2-13.2-13.4-22.9-26.7-22.8H64.1c-13.3-0.1-24.7,9.7-26.7,22.8l0,0.1L0.1,398.4c0,0.3-0.1,0.6-0.1,1c0,25.9,21.1,47,47,47h129.3
		c4.7,17.8,20.8,30.3,39.2,30.3h192.9c22.4,0,40.5-18.2,40.5-40.5c0-0.2,0-0.3,0-0.5c0.5-0.4,1.1-0.8,1.6-1.2l30.6-26.5
		c7.1-6.2,7.9-17,1.8-24.1L433.8,327.1z M175.4,432.4H47c-18,0-32.7-14.5-33-32.5l37.3-267.3c1-6.3,6.4-11,12.8-10.9h151l-17.2,15.6
		c-0.2,0-0.4,0-0.5,0l-42.9-0.2c-1.9,0-3.7,0.7-5,2.1l-53.9,53.9c-6.7,6.7-6.7,17.6,0,24.3l28.7,28.7c6.7,6.7,17.6,6.7,24.3,0
		l53.9-53.9c1.3-1.3,2.1-3.1,2.1-5l-0.2-36.8l28.9-26.1c0.8-0.7,1.4-1.6,1.8-2.5h24.9c6.4,0,11.8,4.6,12.8,10.9l8,57.8h-50.9
		c-11.7-0.1-21.7,8.5-23.5,20.1l0,0.1L175.4,432.4z M190.4,184.1L138.6,236c-1.2,1.2-3.2,1.2-4.5,0l-28.7-28.7
		c-1.2-1.2-1.2-3.2,0-4.5l51.8-51.8l33,0.2L190.4,184.1z M408.4,462.7H215.5c-14.5,0-26.3-11.6-26.5-26.1l31.2-224.1
		c0.7-4.7,4.8-8.2,9.6-8.2H394c4.8,0,8.9,3.5,9.6,8.2l15.4,110.9l-29.6-2l-23.7-28.6c-2.5-2.9-6.9-3.3-9.8-0.9c-3,2.4-3.4,6.8-1,9.8
		l23,27.8l-3.2,40.6c-0.1,1.9,0.5,3.7,1.7,5.1l49.7,57.5c2.2,2.6,5.2,4.5,8.6,5.4C433.8,451.9,422.3,462.7,408.4,462.7z M473,395.3
		c-0.1,0.8-0.4,1.6-1.1,2.1l-30.6,26.5c-1.3,1.1-3.3,1-4.4-0.3l-47.7-55.3l2.6-32.8l32.8,2.2l47.7,55.3
		C472.8,393.7,473.1,394.5,473,395.3L473,395.3z"/>
	<path class="st2" d="M412.6,341.1c-9.4-0.7-17.6,6.4-18.3,15.8s6.4,17.6,15.8,18.3c0.4,0,0.9,0,1.3,0c9.2,0,16.7-7.3,17-16.5
		C428.7,349.6,421.7,341.8,412.6,341.1L412.6,341.1z M413.3,360.6c-1.3,1.1-3.3,1-4.4-0.3s-1-3.3,0.3-4.4c1.3-1.1,3.3-1,4.4,0.3
		C414.8,357.5,414.7,359.5,413.3,360.6z"/>
</g>
</svg>
