<?xml version="1.0" encoding="utf-8"?>
<!-- Generator: Adobe Illustrator 23.0.0, SVG Export Plug-In . SVG Version: 6.00 Build 0)  -->
<svg version="1.1" id="Capa_1" xmlns="http://www.w3.org/2000/svg" xmlns:xlink="http://www.w3.org/1999/xlink" x="0px" y="0px"
	 viewBox="0 0 465 465" style="enable-background:new 0 0 465 465;" xml:space="preserve">
<style type="text/css">
	.st0{fill:#1AE5BE;}
	.st1{fill:#FF7653;}
	.st2{fill:#D4E1F4;}
</style>
<path class="st0" d="M236.4,153.9c-3.9,0-7-3.1-7-7V73c0-32.6-26.4-59-59-59c-32.6,0-59,26.4-59,59v73.9c0,3.9-3.1,7-7,7s-7-3.1-7-7
	V73c0-40.3,32.7-73,73-73c40.3,0,73,32.7,73,73v73.9C243.4,150.8,240.3,153.9,236.4,153.9z"/>
<path class="st0" d="M320.2,320.3c-34.4,0-62.3-27.9-62.4-62.3v-32c0-3.9,3.1-7,7-7s7,3.1,7,7v32c0,26.7,21.7,48.4,48.4,48.4
	c26.7,0,48.4-21.7,48.4-48.4v-32c0-3.9,3.1-7,7-7s7,3.1,7,7v32C382.5,292.4,354.6,320.3,320.2,320.3z"/>
<path class="st1" d="M425.7,199.1l0-0.1c-1.8-11.6-11.7-20.1-23.5-20.1h-99l-8.3-59.7l0-0.1c-2-13.1-13.3-22.8-26.6-22.8H72.7
	C59.4,96.3,48,106,46,119.1l0,0.1L8.7,386.8c0,0.3-0.1,0.6-0.1,1c0,25.9,21,46.9,46.9,46.9h129.1c4.7,17.8,20.8,30.3,39.2,30.3
	h192.6c22.4,0,40.5-18.1,40.5-40.5c0-0.3,0-0.6-0.1-1L425.7,199.1z M183.9,420.7H55.6c-18,0-32.7-14.5-33-32.5l37.2-267
	c1-6.3,6.4-10.9,12.8-10.9h195.5c6.4,0,11.8,4.6,12.8,10.9l8,57.7h-50.8c-11.7-0.1-21.7,8.5-23.5,20.1l0,0.1L183.9,420.7z
	 M416.5,451H223.9c-14.5,0-26.2-11.6-26.5-26.1l31.2-223.8c0.7-4.7,4.8-8.2,9.6-8.2h164c4.8,0,8.9,3.5,9.6,8.2L443,425
	C442.8,439.4,431,451,416.5,451z"/>
<g>
	<path class="st2" d="M253.9,421.1c-14.5,0-26.2-11.6-26.5-26.1l28.2-202.1h-17.3c-4.8,0-8.9,3.5-9.6,8.2L197.4,425
		c0.3,14.5,12,26,26.5,26.1h192.6c14.5,0,26.3-11.6,26.5-26.1l-0.5-3.9H253.9z"/>
	<path class="st2" d="M85.6,390.8c-18,0-32.7-14.5-33-32.5l34.6-247.9H72.7c-6.4,0-11.8,4.6-12.8,10.9l-37.2,267
		c0.3,18,14.9,32.5,33,32.5h128.3l4.2-30H85.6z"/>
</g>
</svg>
