<?xml version="1.0" encoding="utf-8"?>
<!-- Generator: Adobe Illustrator 23.0.0, SVG Export Plug-In . SVG Version: 6.00 Build 0)  -->
<svg version="1.1" id="Capa_1" xmlns="http://www.w3.org/2000/svg" xmlns:xlink="http://www.w3.org/1999/xlink" x="0px" y="0px"
	 viewBox="0 0 460 460" style="enable-background:new 0 0 460 460;" xml:space="preserve">
<style type="text/css">
	.st0{fill:#1AE5BE;}
	.st1{fill:#FF7653;}
	.st2{fill:#D4E1F4;}
</style>
<path class="st0" d="M230.2,401.8c-53.5,0-96.9-43.4-96.9-96.9c0-53.5,43.4-96.9,96.9-96.9s96.9,43.4,96.9,96.9
	C327.1,358.4,283.7,401.8,230.2,401.8z M230.2,222c-45.8,0-82.9,37.1-82.9,82.9s37.1,82.9,82.9,82.9s82.9-37.1,82.9-82.9
	C313.1,259.2,276,222.1,230.2,222z"/>
<path class="st0" d="M218.4,343.2c-1.9,0-3.6-0.7-4.9-2l-33.9-33.9c-2.7-2.7-2.7-7.2,0-9.9c2.7-2.7,7.2-2.7,9.9,0l29.1,29.1
	l54.8-52.3c1.8-1.8,4.4-2.4,6.8-1.7c2.4,0.7,4.3,2.6,4.9,5.1c0.6,2.4-0.2,5-2,6.7l-59.7,57.1C221.9,342.5,220.2,343.2,218.4,343.2z"
	/>
<path class="st1" d="M381.2,144.7c-2.4-15.3-15.6-26.6-31.1-26.5h-31.9V87.9c0-48.6-39.4-87.9-87.9-87.9s-87.9,39.4-87.9,87.9v30.2
	h-31.9c-15.5-0.1-28.7,11.2-31.1,26.5L33.6,402.8c-0.1,0.4-0.1,0.8-0.1,1.2c0,30.9,25.1,55.9,56,56h281.6c30.9,0,55.9-25.1,56-56
	c0-0.4,0-0.8-0.1-1.2L381.2,144.7z M156.3,87.9c0-40.8,33.1-73.9,73.9-73.9c40.8,0,73.9,33.1,73.9,73.9v30.2H156.3V87.9z M371.1,446
	H89.4c-22.9,0-41.6-18.4-42-41.4l45.6-257.5c0,0,0-0.1,0-0.1c1.3-8.5,8.7-14.8,17.3-14.8h31.9v46.4c0,3.9,3.1,7,7,7s7-3.1,7-7v-46.4
	h147.9v46.4c0,3.9,3.1,7,7,7c3.9,0,7-3.1,7-7v-46.4h31.9c8.6,0,16,6.3,17.3,14.8c0,0,0,0.1,0,0.1l45.6,257.5
	C412.7,427.6,394,446,371.1,446L371.1,446z"/>
<path class="st2" d="M411,416H129.4c-22.9,0-41.6-18.4-42-41.4l43-242.5h-20c-8.6,0-16,6.3-17.3,14.8c0,0,0,0.1,0,0.1L47.4,404.6
	c0.4,22.9,19,41.4,42,41.4h281.6c18.6,0,34.9-12.2,40.2-30C411.2,416,411.1,416,411,416z"/>
</svg>
