<?xml version="1.0" encoding="utf-8"?>
<!-- Generator: Adobe Illustrator 22.0.0, SVG Export Plug-In . SVG Version: 6.00 Build 0)  -->
<svg version="1.1" id="Capa_1" xmlns="http://www.w3.org/2000/svg" xmlns:xlink="http://www.w3.org/1999/xlink" x="0px" y="0px"
	 viewBox="0 0 116.8 122.3" style="enable-background:new 0 0 116.8 122.3;" xml:space="preserve">
<style type="text/css">
	.st0{fill:#FEC007;}
	.st1{fill:#4DAAF5;}
	.st2{fill:#2195F2;}
	.st3{fill:#B7E5FF;}
	.st4{fill:#3F51B4;}
</style>
<g>
	<polygon class="st0" points="51.5,42.3 101.3,42.3 101.3,93.8 15.5,93.8 15.5,42.3 30.9,42.3 	"/>
	<g>
		<rect x="67" y="49.1" class="st1" width="27.5" height="10.3"/>
		<rect x="60.1" y="11.4" class="st1" width="41.2" height="20.6"/>
	</g>
	<polygon class="st2" points="8.6,110.9 108.2,110.9 108.2,93.8 13.7,93.8 8.6,93.8 	"/>
	<rect x="24" y="57.7" class="st1" width="34.3" height="3.4"/>
	<rect x="29.2" y="32" class="st3" width="24" height="27.5"/>
	<rect x="75.5" y="32" class="st0" width="10.3" height="10.3"/>
	<g>
		<rect x="92.7" y="64.6" class="st4" width="3.4" height="3.4"/>
		<rect x="85.8" y="64.6" class="st4" width="3.4" height="3.4"/>
		<rect x="79" y="64.6" class="st4" width="3.4" height="3.4"/>
		<rect x="72.1" y="64.6" class="st4" width="3.4" height="3.4"/>
		<rect x="65.3" y="64.6" class="st4" width="3.4" height="3.4"/>
		<rect x="92.6" y="71.5" class="st4" width="3.4" height="3.4"/>
		<rect x="85.7" y="71.5" class="st4" width="3.4" height="3.4"/>
		<rect x="78.9" y="71.5" class="st4" width="3.4" height="3.4"/>
		<rect x="72" y="71.5" class="st4" width="3.4" height="3.4"/>
		<rect x="65.2" y="71.5" class="st4" width="3.4" height="3.4"/>
		<rect x="92.7" y="78.3" class="st4" width="3.4" height="3.4"/>
		<rect x="85.8" y="78.3" class="st4" width="3.4" height="3.4"/>
		<rect x="79" y="78.3" class="st4" width="3.4" height="3.4"/>
		<rect x="72.1" y="78.3" class="st4" width="3.4" height="3.4"/>
		<rect x="65.3" y="78.3" class="st4" width="3.4" height="3.4"/>
		<rect x="92.6" y="85.2" class="st4" width="3.4" height="3.4"/>
		<rect x="85.7" y="85.2" class="st4" width="3.4" height="3.4"/>
		<rect x="78.9" y="85.2" class="st4" width="3.4" height="3.4"/>
		<rect x="72" y="85.2" class="st4" width="3.4" height="3.4"/>
		<rect x="65.2" y="85.2" class="st4" width="3.4" height="3.4"/>
		<rect x="30.9" y="85.2" class="st4" width="6.9" height="3.4"/>
		<rect x="44.6" y="85.2" class="st4" width="6.9" height="3.4"/>
		<rect x="30.9" y="78.3" class="st4" width="6.9" height="3.4"/>
		<rect x="44.6" y="78.3" class="st4" width="6.9" height="3.4"/>
		<rect x="54.9" y="85.2" class="st4" width="3.4" height="3.4"/>
		<rect x="24" y="85.2" class="st4" width="3.4" height="3.4"/>
		<rect x="24" y="78.3" class="st4" width="3.4" height="3.4"/>
		<rect x="54.9" y="78.3" class="st4" width="3.4" height="3.4"/>
	</g>
	<g>
		<path class="st2" d="M60.1,30.2V32h41.2V19.7C88.7,26.6,74.5,30.3,60.1,30.2z"/>
		<path class="st2" d="M74.9,59.4h19.5V49.1h-1.7C87.2,53.3,81.2,56.7,74.9,59.4z"/>
	</g>
</g>
</svg>
