<?xml version="1.0" encoding="utf-8"?>
<!-- Generator: Adobe Illustrator 23.0.0, SVG Export Plug-In . SVG Version: 6.00 Build 0)  -->
<svg version="1.1" xmlns="http://www.w3.org/2000/svg" xmlns:xlink="http://www.w3.org/1999/xlink" x="0px" y="0px"
	 viewBox="0 0 750 500" style="enable-background:new 0 0 750 500;" xml:space="preserve">
<style type="text/css">
	.st0{fill:url(#SVGID_1_);}
	.st1{opacity:0.4;fill:url(#SVGID_2_);}
	.st2{opacity:0.31;fill:url(#SVGID_3_);}
	.st3{fill:url(#SVGID_4_);}
	.st4{fill:url(#SVGID_5_);}
	.st5{fill:url(#SVGID_6_);}
	.st6{fill:url(#SVGID_7_);}
	.st7{fill:url(#SVGID_8_);}
	.st8{opacity:0.42;fill:url(#SVGID_9_);}
	.st9{fill:url(#SVGID_10_);}
	.st10{fill:url(#SVGID_11_);}
	.st11{opacity:0.5;fill:url(#SVGID_12_);}
	.st12{fill:url(#SVGID_13_);}
	.st13{fill:url(#SVGID_14_);}
	.st14{fill:url(#SVGID_15_);}
	.st15{fill:url(#SVGID_16_);}
	.st16{fill:url(#SVGID_17_);}
	.st17{fill:url(#SVGID_18_);}
	.st18{opacity:0.5;fill:url(#SVGID_19_);}
	.st19{fill:url(#SVGID_20_);}
	.st20{fill:url(#SVGID_21_);}
	.st21{fill:none;}
</style>
<g id="BACKGROUND_2">
	<linearGradient id="SVGID_1_" gradientUnits="userSpaceOnUse" x1="489.3446" y1="-4.3024" x2="239.3445" y2="551.6978">
		<stop  offset="0" style="stop-color:#017EFE"/>
		<stop  offset="0.0746" style="stop-color:#0274F6"/>
		<stop  offset="0.3425" style="stop-color:#0556DF"/>
		<stop  offset="0.4938" style="stop-color:#064BD6"/>
		<stop  offset="1" style="stop-color:#072074"/>
	</linearGradient>
	<rect class="st0" width="750" height="500"/>
	
		<radialGradient id="SVGID_2_" cx="240.0571" cy="256.4107" r="116.1907" fx="297.6089" fy="201.107" gradientUnits="userSpaceOnUse">
		<stop  offset="4.810700e-04" style="stop-color:#787878"/>
		<stop  offset="0.2195" style="stop-color:#575757"/>
		<stop  offset="0.5736" style="stop-color:#282828"/>
		<stop  offset="0.8453" style="stop-color:#0B0B0B"/>
		<stop  offset="1" style="stop-color:#000000"/>
	</radialGradient>
	<circle class="st1" cx="240.06" cy="256.41" r="116.19"/>
	
		<radialGradient id="SVGID_3_" cx="354.7808" cy="255.7956" r="99.2305" fx="403.9319" fy="208.5644" gradientUnits="userSpaceOnUse">
		<stop  offset="4.810700e-04" style="stop-color:#787878"/>
		<stop  offset="0.2195" style="stop-color:#575757"/>
		<stop  offset="0.5736" style="stop-color:#282828"/>
		<stop  offset="0.8453" style="stop-color:#0B0B0B"/>
		<stop  offset="1" style="stop-color:#000000"/>
	</radialGradient>
	<circle class="st2" cx="354.78" cy="255.8" r="99.23"/>
	<linearGradient id="SVGID_4_" gradientUnits="userSpaceOnUse" x1="696.2194" y1="109.1473" x2="515.369" y2="589.2233">
		<stop  offset="0" style="stop-color:#017EFE"/>
		<stop  offset="0.0746" style="stop-color:#0274F6"/>
		<stop  offset="0.3425" style="stop-color:#0556DF"/>
		<stop  offset="0.4938" style="stop-color:#064BD6"/>
		<stop  offset="1" style="stop-color:#072074"/>
	</linearGradient>
	<polygon class="st3" points="348.41,500 750,98.41 750,498.8 	"/>
	<linearGradient id="SVGID_5_" gradientUnits="userSpaceOnUse" x1="608.6061" y1="-83.0714" x2="364.1531" y2="161.3817">
		<stop  offset="0" style="stop-color:#017EFE"/>
		<stop  offset="1" style="stop-color:#017EFE;stop-opacity:0"/>
	</linearGradient>
	<path class="st4" d="M590.23-66.76c-36.97-35.95-96.64-35.34-132.9,1.32c-26.14,26.43-33.49,64.45-22.05,97.4
		c2.88,8.28,0.8,17.46-5.53,23.52c-0.15,0.15-0.3,0.29-0.45,0.44c-4.87,4.87-7.6,11.06-8.19,17.42c-0.44,4.69-5.07,7.69-9.51,6.11
		c-20.68-7.39-44.78-2.42-60.84,14.91c-20.39,22-19.95,56.6,0.95,78.12c22.13,22.78,58.54,22.99,80.92,0.6
		c1.97-1.97,3.77-4.06,5.39-6.23c9.83-13.17,25.84-20.55,42.16-18.59c16.71,2.01,34.14-3.4,46.96-16.23
		c7.5-7.5,12.46-16.58,14.88-26.16c1.88-7.45,7.34-13.57,14.57-16.18c12.63-4.56,24.47-11.89,34.59-22.01
		C628.37,30.5,628.05-29.98,590.23-66.76z"/>
	<linearGradient id="SVGID_6_" gradientUnits="userSpaceOnUse" x1="214.8085" y1="-5.4709" x2="42.6998" y2="447.5201">
		<stop  offset="0" style="stop-color:#017EFE"/>
		<stop  offset="0.0746" style="stop-color:#0274F6"/>
		<stop  offset="0.3425" style="stop-color:#0556DF"/>
		<stop  offset="0.4938" style="stop-color:#064BD6"/>
		<stop  offset="1" style="stop-color:#072074"/>
	</linearGradient>
	<polygon class="st5" points="425.46,0 0,427.03 0,0 	"/>
	<linearGradient id="SVGID_7_" gradientUnits="userSpaceOnUse" x1="353.2106" y1="101.4323" x2="271.012" y2="183.6309">
		<stop  offset="0" style="stop-color:#017EFE"/>
		<stop  offset="1" style="stop-color:#017EFE;stop-opacity:0"/>
	</linearGradient>
	<circle class="st6" cx="307.22" cy="147.43" r="56.8"/>
	<linearGradient id="SVGID_8_" gradientUnits="userSpaceOnUse" x1="181.3218" y1="339.3816" x2="97.705" y2="422.9984">
		<stop  offset="0" style="stop-color:#017EFE"/>
		<stop  offset="1" style="stop-color:#017EFE;stop-opacity:0"/>
	</linearGradient>
	<path class="st7" d="M174.48,344.43c-15.84-14.94-40.93-15.24-57.1-0.66c-9.84,8.87-14.47,21.18-13.92,33.29
		c0.34,7.38-3.13,14.29-8.7,19.14c-0.58,0.5-1.13,1.04-1.66,1.62c-7.3,7.89-7.42,20.32-0.25,28.33c8.14,9.1,22.13,9.39,30.64,0.88
		c0.3-0.3,0.59-0.61,0.87-0.92c5.08-5.72,12.25-9.08,19.89-8.84c11.23,0.35,22.57-3.75,31.14-12.33
		C192.15,388.18,191.85,360.81,174.48,344.43z"/>
	<linearGradient id="SVGID_9_" gradientUnits="userSpaceOnUse" x1="623.546" y1="263.1324" x2="405.8555" y2="480.823">
		<stop  offset="0" style="stop-color:#017EFE"/>
		<stop  offset="1" style="stop-color:#017EFE;stop-opacity:0"/>
	</linearGradient>
	<path class="st8" d="M607.13,277.61c-36.75-35.74-95.79-36.21-133.07-1.01c-25.75,24.31-35.04,59.21-27.87,91.16
		c2.87,12.78-5.58,25.33-18.56,27.14c-12.82,1.79-25.15,7.96-34.56,18.52c-19.21,21.55-19.01,54.61,0.44,75.95
		c21.98,24.11,59.37,24.76,82.19,1.94c9.11-9.11,14.48-20.55,16.1-32.41c1.76-12.89,14.35-21.29,27.04-18.43
		c31.12,7.01,65.04-1.6,89.27-25.82C646.01,376.75,645.68,315.1,607.13,277.61z"/>
	<linearGradient id="SVGID_10_" gradientUnits="userSpaceOnUse" x1="436.8846" y1="176.0757" x2="401.3949" y2="211.5655">
		<stop  offset="0" style="stop-color:#017EFE"/>
		<stop  offset="1" style="stop-color:#017EFE;stop-opacity:0"/>
	</linearGradient>
	<circle class="st9" cx="417.03" cy="195.93" r="24.52"/>
	<linearGradient id="SVGID_11_" gradientUnits="userSpaceOnUse" x1="390.1606" y1="387.5687" x2="329.3851" y2="448.3442">
		<stop  offset="0" style="stop-color:#017EFE"/>
		<stop  offset="1" style="stop-color:#017EFE;stop-opacity:0"/>
	</linearGradient>
	<circle class="st10" cx="356.15" cy="421.58" r="42"/>
	<linearGradient id="SVGID_12_" gradientUnits="userSpaceOnUse" x1="337.972" y1="-52.2305" x2="64.6772" y2="221.0643">
		<stop  offset="0" style="stop-color:#017EFE"/>
		<stop  offset="1" style="stop-color:#017EFE;stop-opacity:0"/>
	</linearGradient>
	<path class="st11" d="M317.95-33.47c-23.37-22.72-61.01-23.07-84.78-0.77c-8.3,7.79-13.94,17.3-16.92,27.42
		c-4.76,16.19-20.5,26.45-37.27,24.57c-29.47-3.31-60.12,6.34-82.72,28.94c-25.39,25.39-34.43,60.95-27.11,93.58
		c3.01,13.43-2.37,27.38-13.4,35.6c-2.25,1.68-4.36,3.64-6.28,5.87c-12.39,14.41-12.34,36.09,0.13,50.44
		c14.87,17.12,40.84,17.81,56.6,2.05c1.52-1.52,2.89-3.14,4.1-4.83c7.93-11.05,21.9-15.79,35.18-12.82
		c32.63,7.32,68.18-1.72,93.58-27.11c22.6-22.6,32.24-53.24,28.94-82.71c-1.9-16.91,8.62-32.48,24.92-37.38
		c9.39-2.82,18.25-7.95,25.67-15.37C342.78,29.82,342.57-9.54,317.95-33.47z"/>
	
		<linearGradient id="SVGID_13_" gradientUnits="userSpaceOnUse" x1="1011.8466" y1="160.3589" x2="1222.4639" y2="160.3589" gradientTransform="matrix(0.7071 -0.7071 0.7071 0.7071 -226.9222 946.4349)">
		<stop  offset="0" style="stop-color:#017EFE"/>
		<stop  offset="1" style="stop-color:#017EFE;stop-opacity:0"/>
	</linearGradient>
	<path class="st12" d="M709.56,194.39c-6.96,6.31-10.23,15.05-9.82,23.65c0.64,13.57-4.78,26.73-14.38,36.33l-0.33,0.33
		c-11.34,11.34-27.51,16.14-43.3,13.35c-14.01-2.48-28.96,1.69-39.78,12.51c-17.36,17.35-17.57,45.73-0.46,63.33
		c17.57,18.07,46.47,18.22,64.23,0.46c10.9-10.9,15.06-26,12.46-40.1c-2.91-15.8,2.43-32.01,13.8-43.37l0.16-0.16
		c9.66-9.66,22.95-14.56,36.61-14.14c7.98,0.25,16.03-2.67,22.12-8.76c12.04-12.04,11.7-31.77-1.03-43.37
		C738.51,184.1,720.93,184.08,709.56,194.39z"/>
	
		<linearGradient id="SVGID_14_" gradientUnits="userSpaceOnUse" x1="558.058" y1="-308.3596" x2="861.4822" y2="-308.3596" gradientTransform="matrix(0.7071 -0.7071 0.7071 0.7071 -226.9222 946.4349)">
		<stop  offset="0" style="stop-color:#017EFE"/>
		<stop  offset="1" style="stop-color:#017EFE;stop-opacity:0"/>
	</linearGradient>
	<path class="st13" d="M104.68,117.76c-10.02,9.1-14.74,21.69-14.15,34.07c0.93,19.55-6.88,38.5-20.72,52.34l-0.48,0.48
		C53,220.98,29.7,227.9,6.95,223.88c-20.18-3.57-41.71,2.44-57.3,18.02c-25.01,25-25.31,65.89-0.66,91.23
		c25.32,26.03,66.94,26.25,92.53,0.66c15.71-15.71,21.69-37.46,17.95-57.78c-4.2-22.76,3.51-46.11,19.87-62.48l0.23-0.23
		c13.92-13.92,33.06-20.98,52.74-20.37c11.49,0.35,23.1-3.85,31.87-12.62c17.34-17.34,16.85-45.76-1.48-62.48
		C146.38,102.94,121.05,102.9,104.68,117.76z"/>
	
		<linearGradient id="SVGID_15_" gradientUnits="userSpaceOnUse" x1="702.6249" y1="-308.3596" x2="855.5884" y2="-308.3596" gradientTransform="matrix(-0.7071 0.7071 -0.7071 -0.7071 532.3953 -685.0468)">
		<stop  offset="0" style="stop-color:#017EFE"/>
		<stop  offset="1" style="stop-color:#017EFE;stop-opacity:0"/>
	</linearGradient>
	<path class="st14" d="M175.45,138.73c5.05-4.59,7.43-10.93,7.13-17.18c-0.47-9.85,3.47-19.41,10.44-26.39l0.24-0.24
		c8.23-8.23,19.98-11.72,31.45-9.7c10.17,1.8,21.03-1.23,28.89-9.09c12.61-12.6,12.76-33.21,0.33-45.99
		c-12.76-13.12-33.75-13.23-46.65-0.33c-7.92,7.92-10.94,18.89-9.05,29.13c2.12,11.48-1.77,23.24-10.02,31.5l-0.12,0.12
		c-7.02,7.02-16.67,10.58-26.59,10.27c-5.79-0.18-11.64,1.94-16.07,6.36c-8.74,8.74-8.49,23.07,0.74,31.5
		C154.43,146.2,167.2,146.22,175.45,138.73z"/>
	
		<linearGradient id="SVGID_16_" gradientUnits="userSpaceOnUse" x1="680.6458" y1="-727.6565" x2="807.2119" y2="-727.6565" gradientTransform="matrix(0.7071 -0.7071 0.7071 0.7071 469.323 1455.506)">
		<stop  offset="0" style="stop-color:#017EFE"/>
		<stop  offset="1" style="stop-color:#017EFE;stop-opacity:0"/>
	</linearGradient>
	<path class="st15" d="M500.75,369.58c-4.18,3.79-6.15,9.05-5.9,14.21c0.39,8.15-2.87,16.06-8.64,21.83l-0.2,0.2
		c-6.81,6.81-16.53,9.7-26.02,8.02c-8.42-1.49-17.4,1.02-23.9,7.52c-10.43,10.43-10.56,27.48-0.28,38.06
		c10.56,10.86,27.92,10.95,38.6,0.27c6.55-6.55,9.05-15.63,7.49-24.1c-1.75-9.5,1.46-19.23,8.29-26.06l0.1-0.1
		c5.81-5.81,13.79-8.75,22-8.5c4.79,0.15,9.63-1.61,13.29-5.27c7.23-7.23,7.03-19.09-0.62-26.06
		C518.15,363.4,507.58,363.39,500.75,369.58z"/>
	<linearGradient id="SVGID_17_" gradientUnits="userSpaceOnUse" x1="613.5591" y1="213.5989" x2="587.2207" y2="239.9373">
		<stop  offset="0" style="stop-color:#017EFE"/>
		<stop  offset="1" style="stop-color:#017EFE;stop-opacity:0"/>
	</linearGradient>
	<circle class="st16" cx="598.82" cy="228.34" r="18.2"/>
	<linearGradient id="SVGID_18_" gradientUnits="userSpaceOnUse" x1="215.6864" y1="400.4091" x2="207.1569" y2="408.9386">
		<stop  offset="0" style="stop-color:#017EFE"/>
		<stop  offset="1" style="stop-color:#017EFE;stop-opacity:0"/>
	</linearGradient>
	<path class="st17" d="M215.08,409.35c-2.3,2.3-6.03,2.3-8.34,0c-2.3-2.3-2.3-6.03,0-8.34c2.3-2.3,6.03-2.3,8.34,0
		C217.38,403.32,217.38,407.05,215.08,409.35z"/>
	
		<radialGradient id="SVGID_19_" cx="579.2508" cy="449.3849" r="45.2324" fx="601.6555" fy="427.8554" gradientUnits="userSpaceOnUse">
		<stop  offset="4.810700e-04" style="stop-color:#787878"/>
		<stop  offset="0.2195" style="stop-color:#575757"/>
		<stop  offset="0.5736" style="stop-color:#282828"/>
		<stop  offset="0.8453" style="stop-color:#0B0B0B"/>
		<stop  offset="1" style="stop-color:#000000"/>
	</radialGradient>
	<circle class="st18" cx="579.25" cy="449.38" r="45.23"/>
	<linearGradient id="SVGID_20_" gradientUnits="userSpaceOnUse" x1="591.8017" y1="436.5551" x2="574.7425" y2="453.6143">
		<stop  offset="0" style="stop-color:#017EFE"/>
		<stop  offset="1" style="stop-color:#017EFE;stop-opacity:0"/>
	</linearGradient>
	<circle class="st19" cx="582.26" cy="446.1" r="11.79"/>
	<linearGradient id="SVGID_21_" gradientUnits="userSpaceOnUse" x1="164.6921" y1="435.8991" x2="137.4154" y2="463.1758">
		<stop  offset="0" style="stop-color:#017EFE"/>
		<stop  offset="1" style="stop-color:#017EFE;stop-opacity:0"/>
	</linearGradient>
	<circle class="st20" cx="149.43" cy="451.16" r="18.85"/>
	<rect class="st21" width="750" height="500"/>
</g>
<g id="DESIGNED_BY_FREEPIK">
</g>
</svg>
