<?xml version="1.0" encoding="utf-8"?>
<!-- Generator: Adobe Illustrator 23.0.0, SVG Export Plug-In . SVG Version: 6.00 Build 0)  -->
<svg version="1.1" id="Capa_1" xmlns="http://www.w3.org/2000/svg" xmlns:xlink="http://www.w3.org/1999/xlink" x="0px" y="0px"
	 viewBox="0 0 487 487" style="enable-background:new 0 0 487 487;" xml:space="preserve">
<style type="text/css">
	.st0{fill:#D4E1F4;}
	.st1{fill:#1AE5BE;}
	.st2{fill:#FF7653;}
	.st3{fill:none;stroke:#FF7653;stroke-width:10.0965;stroke-miterlimit:10;}
	.st4{fill:none;stroke:#1AE5BE;stroke-width:10.0965;stroke-miterlimit:10;}
	.st5{fill:none;stroke:#FF7653;stroke-width:5.6092;stroke-miterlimit:10;}
	.st6{font-family:'MyriadPro-Regular';}
	.st7{font-size:40.3859px;}
</style>
<path class="st0" d="M270.3,378.2c-12.3,0-22.4-9.9-22.6-22.2l24-172.3H257c-4.1,0-7.6,3-8.2,7l-26.6,190.9
	c0.2,12.3,10.3,22.2,22.6,22.2H409c12.3,0,22.4-9.9,22.6-22.2l-0.5-3.3L270.3,378.2L270.3,378.2z"/>
<path class="st0" d="M126.8,352.4c-15.4,0-27.9-12.4-28.1-27.7l29.5-211.4h-12.4c-5.4,0-10.1,3.9-10.9,9.3L73.1,350.2
	c0.2,15.4,12.7,27.7,28.1,27.7h109.4l3.6-25.5L126.8,352.4L126.8,352.4z"/>
<path class="st1" d="M256.2,150.4c-3.3,0-6-2.7-6-6v-63c0-27.8-22.5-50.3-50.3-50.3s-50.3,22.5-50.3,50.3v63c0,3.3-2.7,6-6,6
	s-6-2.7-6-6v-63c0-34.4,27.9-62.2,62.2-62.2c34.4,0,62.2,27.9,62.2,62.2v63C262.2,147.7,259.5,150.4,256.2,150.4z"/>
<path class="st1" d="M327.7,292.3c-29.4,0-53.1-23.8-53.2-53.2v-27.3c0-3.3,2.7-6,6-6s6,2.7,6,6v27.3c0,22.8,18.5,41.3,41.3,41.3
	s41.3-18.5,41.3-41.3v-27.3c0-3.3,2.7-6,6-6s6,2.7,6,6v27.3C380.8,268.5,357,292.3,327.7,292.3z"/>
<g>
	<path class="st2" d="M195.6,166.9c5.7,5.7,15,5.7,20.7,0s5.7-15,0-20.7s-15-5.7-20.7,0c-2.8,2.7-4.3,6.4-4.3,10.3
		C191.2,160.4,192.8,164.1,195.6,166.9z M204,154.6c1.1-1.1,2.8-1.1,3.8,0c1.1,1.1,1.1,2.8,0,3.8c-1.1,1.1-2.8,1.1-3.8,0
		S202.9,155.7,204,154.6z"/>
	<path class="st2" d="M431.4,288.3L417.6,189v-0.1c-1.5-9.9-10-17.1-20-17.1h-84.5l-7.1-50.9v-0.1c-1.7-11.2-11.4-19.5-22.7-19.4
		H116.6c-11.3,0-21,8.2-22.7,19.4v0.1L62,349c0,0.3-0.1,0.5-0.1,0.8c0,22.1,17.9,40,40,40H212c4,15.2,17.7,25.8,33.4,25.8h164.3
		c19.1,0,34.5-15.5,34.5-34.5c0-0.1,0-0.3,0-0.4c0.5-0.3,0.9-0.6,1.3-1l26.1-22.5c6.1-5.3,6.8-14.5,1.5-20.6L431.4,288.3z
		 M211.4,377.9H102c-15.4,0-27.9-12.3-28.1-27.7l31.7-227.7c0.8-5.4,5.5-9.3,10.9-9.3h128.6l-14.7,13.3c-0.2,0-0.3,0-0.5,0
		l-36.5-0.2c-1.6,0-3.1,0.6-4.2,1.7l-45.9,46c-5.7,5.7-5.7,15,0,20.7l24.5,24.5c5.7,5.7,15,5.7,20.7,0l45.9-45.9
		c1.1-1.1,1.8-2.7,1.7-4.2l-0.2-31.3l24.6-22.2c0.7-0.6,1.2-1.3,1.5-2.2h21.2c5.4,0,10.1,3.9,10.9,9.3l6.9,49.2h-43.3
		c-10,0-18.5,7.2-20,17.1v0.1L211.4,377.9z M224.2,166.5L180,210.7c-1.1,1.1-2.8,1.1-3.8,0l-24.5-24.5c-1.1-1.1-1.1-2.8,0-3.8
		l44.2-44.2l28.1,0.1L224.2,166.5z M409.8,403.8H245.5c-12.3,0-22.4-9.9-22.6-22.2l26.6-190.9c0.6-4,4.1-7,8.2-7h139.8
		c4.1,0,7.6,3,8.2,7l13.2,94.4l-25.2-1.7L373.6,259c-2.1-2.5-5.8-2.8-8.4-0.7c-2.5,2.1-2.9,5.8-0.8,8.3l19.6,23.7l-2.7,34.6
		c-0.1,1.6,0.4,3.2,1.4,4.4l42.3,49c1.9,2.2,4.5,3.8,7.3,4.6C431.5,394.6,421.6,403.8,409.8,403.8z M464.9,346.4
		c0,0.7-0.4,1.4-0.9,1.8l-26.1,22.5c-1.1,1-2.8,0.8-3.8-0.3l-40.7-47.1l2.2-27.9l27.9,1.9l40.7,47.1
		C464.7,345,464.9,345.7,464.9,346.4L464.9,346.4z"/>
	<path class="st2" d="M413.4,300.3c-8-0.6-15,5.4-15.6,13.5s5.4,15,13.5,15.6c0.4,0,0.7,0,1.1,0c7.8,0,14.2-6.2,14.5-14.1
		C427.1,307.5,421.2,300.8,413.4,300.3L413.4,300.3z M414.1,316.8c-1.1,1-2.8,0.8-3.7-0.3c-1-1.1-0.8-2.8,0.3-3.7
		c1.1-1,2.8-0.8,3.7,0.3C415.3,314.2,415.2,315.8,414.1,316.8z"/>
</g>
<circle class="st3" cx="404.2" cy="52.3" r="27.4"/>
<path class="st4" d="M90.1,432.9l7.3-3.5c4-1.9,8.6,1.2,8.2,5.6l-0.6,8.1l-0.6,8.1c-0.3,4.4-5.3,6.8-9,4.3l-6.7-4.6l-6.7-4.6
	c-3.7-2.5-3.2-8,0.8-10L90.1,432.9z"/>
<text transform="matrix(1 0 0 1 453.9297 101.3203)" class="st5 st6 st7">+</text>
<text transform="matrix(1 0 0 1 30.9995 191.2803)" class="st5 st6 st7">+</text>
</svg>
