<?xml version="1.0" encoding="utf-8"?>
<!-- Generator: Adobe Illustrator 23.0.0, SVG Export Plug-In . SVG Version: 6.00 Build 0)  -->
<svg version="1.1" id="Capa_1" xmlns="http://www.w3.org/2000/svg" xmlns:xlink="http://www.w3.org/1999/xlink" x="0px" y="0px"
	 viewBox="0 0 512 512" style="enable-background:new 0 0 512 512;" xml:space="preserve">
<style type="text/css">
	.st0{fill:#FF7653;}
	.st1{fill:#EDF2FA;}
	.st2{fill:#FF927D;}
	.st3{fill:#FFFFFF;}
	.st4{fill:#C9F3FF;}
	.st5{fill:#FFB954;}
	.st6{fill:#D8FB93;}
	.st7{fill:#A0E557;}
	.st8{fill:#1E203D;}
</style>
<rect x="195" y="462" class="st0" width="124" height="40"/>
<rect x="227.5" y="408" class="st1" width="42.5" height="54"/>
<rect x="101" y="350" class="st2" width="347.9" height="58"/>
<rect x="10" y="95" class="st3" width="47" height="255"/>
<rect x="402.3" y="95" class="st2" width="45.7" height="153"/>
<g>
	<rect x="57" y="75.2" class="st3" width="344" height="274.8"/>
	<path class="st3" d="M317,300.7c0-1.2,39.4-55.8,92.5-71.6c-9-2.7-18.3-4.3-28-4.3c-66.5,0-120.5,74.5-120.5,75.9
		c0,0.9,54,75.9,120.5,75.9c9.7,0,19-1.6,28-4.3C356.5,356.4,317,301.5,317,300.7z"/>
</g>
<path class="st4" d="M502,300.7c0-0.8-39.5-55.7-92.5-71.6c-53,15.8-92.5,70.4-92.5,71.6c0,0.8,39.5,55.7,92.5,71.6
	C462.6,356.5,502,301.9,502,300.7z"/>
<path class="st3" d="M373.4,300.7c0-16.9,10.1-31.4,24.7-37.7c-5.1-2.2-10.6-3.5-16.5-3.5c-22.7,0-41.2,18.4-41.2,41.2
	s18.4,41.2,41.2,41.2c5.9,0,11.4-1.2,16.5-3.5C383.5,332,373.4,317.5,373.4,300.7z"/>
<path class="st5" d="M422.7,300.7c0-16.9-10.1-31.4-24.7-37.7c-14.5,6.4-24.7,20.8-24.7,37.7s10.1,31.4,24.7,37.7
	C412.5,332,422.7,317.5,422.7,300.7z"/>
<path class="st6" d="M172,81.1c12.2-5.9,20.6-18.4,20.6-32.8V10h-41.1v38.3C151.5,62.7,159.9,75.2,172,81.1z"/>
<path class="st7" d="M99.5,80.9c12-5.9,20.3-18.3,20.3-32.6V10H79.2v38.3C79.2,62.6,87.5,75,99.5,80.9z"/>
<path class="st6" d="M316.5,81.6c12.8-5.6,21.7-18.4,21.7-33.3V10h-43.5v38.3C294.7,63.2,303.7,75.9,316.5,81.6z"/>
<g>
	<path class="st7" d="M243.4,81.7c13-5.6,22-18.4,22-33.4V10h-44.1v38.3C221.4,63.3,230.4,76.1,243.4,81.7z"/>
	<path class="st7" d="M388.5,81.9c13.2-5.5,22.5-18.5,22.5-33.7V10h-45.1v38.3C365.9,63.5,375.3,76.5,388.5,81.9z"/>
</g>
<rect x="142.5" y="128.3" class="st0" width="54.5" height="96"/>
<path class="st8" d="M500.1,281.9c-5.7-6.7-15-16.8-26.9-27.1c-5-4.4-10.1-8.4-15.2-12V95c0-5.5-4.5-10-10-10h-37v-8
	c6.3-7.9,10-17.9,10-28.7V10c0-5.5-4.5-10-10-10h-72.8h-72.8h-72.8h-72.8H47c-5.5,0-10,4.5-10,10v38.3c0,10.8,3.7,20.8,10,28.7v8H10
	C4.5,85,0,89.5,0,95v313c0,5.5,4.5,10,10,10h169v34h-39c-5.5,0-10,4.5-10,10v40c0,5.5,4.5,10,10,10h178c5.5,0,10-4.5,10-10v-40
	c0-5.5-4.5-10-10-10h-39v-34h169c5.5,0,10-4.5,10-10v-49.3c5.6-4,10.7-8.1,15.2-12c12-10.3,21.3-20.5,26.9-27.1
	c11.8-14,11.8-16.1,11.8-18.9C512,297.9,512,295.9,500.1,281.9z M438,105v125.2c-9-4.8-18-8.5-27-11.1V105H438z M262.9,319.4
	c4.5,5.3,11.2,12.7,19.6,20.6H67V91.7c5.1,1.9,10.6,3,16.4,3c14.7,0,27.9-6.9,36.4-17.7c8.5,10.8,21.7,17.7,36.4,17.7
	s27.9-6.9,36.4-17.7c8.5,10.8,21.7,17.7,36.4,17.7s27.9-6.9,36.4-17.7c8.5,10.8,21.7,17.7,36.4,17.7s27.9-6.9,36.4-17.7
	c8.5,10.8,21.7,17.7,36.4,17.7c5.8,0,11.3-1.1,16.4-3v123.6c-3.2-0.3-6.4-0.5-9.5-0.5c-37.6,0-70.6,21.7-91.7,39.8
	c-12,10.3-21.3,20.5-26.9,27.1c-11.8,14-11.8,16.1-11.8,18.9C251,303.5,251,305.5,262.9,319.4z M401,48.3
	c0,14.6-11.8,26.4-26.4,26.4s-26.4-11.8-26.4-26.4V20H401V48.3z M328.2,48.3c0,14.6-11.8,26.4-26.4,26.4s-26.4-11.8-26.4-26.4V20
	h52.8V48.3z M255.4,48.3c0,14.6-11.8,26.4-26.4,26.4s-26.4-11.8-26.4-26.4V20h52.8L255.4,48.3L255.4,48.3z M182.6,48.3
	c0,14.6-11.8,26.4-26.4,26.4s-26.4-11.8-26.4-26.4V20h52.8L182.6,48.3L182.6,48.3z M57,20h52.8v28.3c0,14.6-11.8,26.4-26.4,26.4
	S57,62.8,57,48.3V20z M47,105v235H20V105L47,105L47,105z M308.1,492H150v-20h158L308.1,492L308.1,492z M259,452h-60v-34h60V452z
	 M438,398H20v-38h36.8c0.1,0,0.2,0,0.2,0s0.2,0,0.2,0H307c24.9,17.4,50.4,26.6,74.5,26.6c20.6,0,39.9-6.5,56.5-15.4V398z
	 M381.5,366.6c-51.7,0-95.7-50.2-108.2-66.1c13.3-17.3,58.3-65.7,108.2-65.7c51.7,0,95.7,50.2,108.2,66.1
	C476.4,318.1,431.4,366.6,381.5,366.6z"/>
<path class="st8" d="M381.5,249.5c-28.2,0-51.2,23-51.2,51.2s23,51.2,51.2,51.2s51.2-23,51.2-51.2S409.7,249.5,381.5,249.5z
	 M381.5,331.8c-17.2,0-31.2-14-31.2-31.2c0-17.2,14-31.2,31.2-31.2s31.2,14,31.2,31.2C412.7,317.8,398.7,331.8,381.5,331.8z"/>
<path class="st8" d="M381.5,290.7c-2.6,0-5.2,1.1-7.1,2.9c-1.9,1.9-2.9,4.4-2.9,7.1c0,2.6,1.1,5.2,2.9,7.1c1.9,1.9,4.4,2.9,7.1,2.9
	s5.2-1.1,7.1-2.9s2.9-4.4,2.9-7.1c0-2.6-1.1-5.2-2.9-7.1C386.7,291.7,384.1,290.7,381.5,290.7z"/>
<path class="st8" d="M101,234.3h96c5.5,0,10-4.5,10-10v-96c0-5.5-4.5-10-10-10h-96c-5.5,0-10,4.5-10,10v96
	C91,229.9,95.5,234.3,101,234.3z M111,138.3h76v76h-76V138.3z"/>
<path class="st8" d="M357,138.3c2.6,0,5.2-1.1,7.1-2.9c1.9-1.9,2.9-4.4,2.9-7.1s-1.1-5.2-2.9-7.1s-4.4-2.9-7.1-2.9s-5.2,1.1-7.1,2.9
	c-1.9,1.9-2.9,4.4-2.9,7.1c0,2.6,1.1,5.2,2.9,7.1C351.8,137.3,354.4,138.3,357,138.3z"/>
<path class="st8" d="M251,138.3h64c5.5,0,10-4.5,10-10s-4.5-10-10-10h-64c-5.5,0-10,4.5-10,10C241,133.9,245.5,138.3,251,138.3z"/>
<path class="st8" d="M251,178.3h106c5.5,0,10-4.5,10-10s-4.5-10-10-10H251c-5.5,0-10,4.5-10,10S245.5,178.3,251,178.3z"/>
<path class="st8" d="M301.7,208.3c0-5.5-4.5-10-10-10H251c-5.5,0-10,4.5-10,10s4.5,10,10,10h40.7
	C297.2,218.3,301.7,213.9,301.7,208.3z"/>
<path class="st8" d="M207,302.3H101c-5.5,0-10,4.5-10,10s4.5,10,10,10h106c5.5,0,10-4.5,10-10S212.5,302.3,207,302.3z"/>
<path class="st8" d="M101,282.3c2.6,0,5.2-1.1,7.1-2.9s2.9-4.4,2.9-7.1c0-2.6-1.1-5.2-2.9-7.1c-1.9-1.9-4.4-2.9-7.1-2.9
	s-5.2,1.1-7.1,2.9s-2.9,4.4-2.9,7.1s1.1,5.2,2.9,7.1C95.8,281.3,98.4,282.3,101,282.3z"/>
<path class="st8" d="M207,262.3h-66.1c-5.5,0-10,4.5-10,10s4.5,10,10,10H207c5.5,0,10-4.5,10-10S212.5,262.3,207,262.3z"/>
</svg>
