<?xml version="1.0" encoding="utf-8"?>
<!-- Generator: Adobe Illustrator 22.0.0, SVG Export Plug-In . SVG Version: 6.00 Build 0)  -->
<svg version="1.1" id="Capa_1" xmlns="http://www.w3.org/2000/svg" xmlns:xlink="http://www.w3.org/1999/xlink" x="0px" y="0px"
	 viewBox="0 0 200 168" style="enable-background:new 0 0 200 168;" xml:space="preserve">
<style type="text/css">
	.st0{fill:#464655;}
	.st1{fill:#FFFFFF;}
	.st2{fill:#BEC8DC;}
	.st3{fill:#AFBBD0;}
	.st4{fill:#96A5B9;}
	.st5{fill:#E4EAF6;}
	.st6{fill:#FF6469;}
</style>
<g>
	<path class="st0" d="M188.4,3.6H11.2c-3.6,0-6.6,2.9-6.6,6.6v105H195v-105C195,6.5,192.1,3.6,188.4,3.6L188.4,3.6z M185.2,105.4
		H14.5V13.4h170.7V105.4z M185.2,105.4"/>
	<path class="st1" d="M80.1,54.5c0.9,0,1.6,0.7,1.6,1.6h4.9v-4.9h-6.6c-0.9,0-1.6-0.7-1.6-1.6c0-0.9,0.7-1.6,1.6-1.6h6.6V26.6H57.1
		v29.5h21.3C78.5,55.2,79.2,54.5,80.1,54.5L80.1,54.5z M80.1,54.5"/>
	<path class="st1" d="M14.5,105.4h170.7V13.4H14.5V105.4z M86.7,97.2h-6.6c-0.9,0-1.6-0.7-1.6-1.6c0-0.9,0.7-1.6,1.6-1.6h6.6
		c0.9,0,1.6,0.7,1.6,1.6C88.3,96.4,87.6,97.2,86.7,97.2L86.7,97.2z M80.1,80.7c0.9,0,1.6,0.7,1.6,1.6v6.6c0,0.9-0.7,1.6-1.6,1.6
		s-1.6-0.7-1.6-1.6v-6.6C78.5,81.5,79.2,80.7,80.1,80.7L80.1,80.7z M78.5,75.8v-6.6c0-0.9,0.7-1.6,1.6-1.6c0.9,0,1.6,0.7,1.6,1.6
		v6.6c0,0.9-0.7,1.6-1.6,1.6C79.2,77.5,78.5,76.7,78.5,75.8L78.5,75.8z M99.8,97.2h-6.6c-0.9,0-1.6-0.7-1.6-1.6
		c0-0.9,0.7-1.6,1.6-1.6h6.6c0.9,0,1.6,0.7,1.6,1.6C101.4,96.4,100.7,97.2,99.8,97.2L99.8,97.2z M127.7,88.9c0,0.9-0.7,1.6-1.6,1.6
		c-0.9,0-1.6-0.7-1.6-1.6v-6.6c0-0.9,0.7-1.6,1.6-1.6c0.9,0,1.6,0.7,1.6,1.6V88.9z M127.7,75.8c0,0.9-0.7,1.6-1.6,1.6
		c-0.9,0-1.6-0.7-1.6-1.6v-6.6c0-0.9,0.7-1.6,1.6-1.6c0.9,0,1.6,0.7,1.6,1.6V75.8z M127.7,62.7c0,0.9-0.7,1.6-1.6,1.6
		c-0.9,0-1.6-0.7-1.6-1.6v-6.6c0-0.9,0.7-1.6,1.6-1.6c0.9,0,1.6,0.7,1.6,1.6V62.7z M142.5,66V23.3c0-1.8,1.5-3.3,3.3-3.3h29.5
		c1.8,0,3.3,1.5,3.3,3.3v72.2c0,1.8-1.5,3.3-3.3,3.3h-29.5c-1.8,0-3.3-1.5-3.3-3.3V66z M119.5,47.9h6.6c0.9,0,1.6,0.7,1.6,1.6
		c0,0.9-0.7,1.6-1.6,1.6h-6.6c-0.9,0-1.6-0.7-1.6-1.6C117.9,48.6,118.6,47.9,119.5,47.9L119.5,47.9z M119.5,93.9h6.6
		c0.9,0,1.6,0.7,1.6,1.6c0,0.9-0.7,1.6-1.6,1.6h-6.6c-0.9,0-1.6-0.7-1.6-1.6C117.9,94.6,118.6,93.9,119.5,93.9L119.5,93.9z
		 M106.4,47.9h6.6c0.9,0,1.6,0.7,1.6,1.6c0,0.9-0.7,1.6-1.6,1.6h-6.6c-0.9,0-1.6-0.7-1.6-1.6C104.7,48.6,105.5,47.9,106.4,47.9
		L106.4,47.9z M106.4,93.9h6.6c0.9,0,1.6,0.7,1.6,1.6c0,0.9-0.7,1.6-1.6,1.6h-6.6c-0.9,0-1.6-0.7-1.6-1.6
		C104.7,94.6,105.5,93.9,106.4,93.9L106.4,93.9z M50.6,23.3c0-1.8,1.5-3.3,3.3-3.3H90c1.8,0,3.3,1.5,3.3,3.3v24.6h6.6
		c0.9,0,1.6,0.7,1.6,1.6c0,0.9-0.7,1.6-1.6,1.6h-6.6v8.2c0,0.4-0.1,0.7-0.2,1l8.6,7.7c0.7,0.6,0.5,1.8-0.3,2.2l-3.3,1.4l2.9,6.6
		c0.4,0.8,0,1.8-0.8,2.2c-0.2,0.1-0.4,0.1-0.7,0.1c-0.6,0-1.2-0.4-1.5-1l-2.9-6.6l-3.3,1.4c-0.9,0.4-1.9-0.3-1.8-1.2l0.1-10.6
		c0,0-0.1,0-0.1,0h-8.2c0,0.9-0.7,1.6-1.6,1.6s-1.6-0.7-1.6-1.6H53.8c-1.8,0-3.3-1.5-3.3-3.3V23.3z M21,23.3c0-1.8,1.5-3.3,3.3-3.3
		h9.8c1.8,0,3.3,1.5,3.3,3.3v72.2c0,1.8-1.5,3.3-3.3,3.3h-9.8c-1.8,0-3.3-1.5-3.3-3.3V23.3z M21,23.3"/>
	<path class="st2" d="M4.6,128.3c0,3.6,2.9,6.6,6.6,6.6h177.3c3.6,0,6.6-2.9,6.6-6.6v-13.1H4.6V128.3z M99.8,120.1
		c2.7,0,4.9,2.2,4.9,4.9c0,2.7-2.2,4.9-4.9,4.9c-2.7,0-4.9-2.2-4.9-4.9C94.9,122.3,97.1,120.1,99.8,120.1L99.8,120.1z M99.8,120.1"
		/>
	<path class="st3" d="M70.7,157.9h58.3l-2.1-16.4H72.7L70.7,157.9z M70.7,157.9"/>
	<path class="st2" d="M70.3,157.9c-1.8,0-3.3,1.5-3.3,3.3c0,1.8,1.5,3.3,3.3,3.3h59.1c1.8,0,3.3-1.5,3.3-3.3c0-1.8-1.5-3.3-3.3-3.3
		H70.3z M70.3,157.9"/>
	<path class="st4" d="M72.7,141.5h54.2l-0.8-6.6H73.5L72.7,141.5z M72.7,141.5"/>
	<path class="st4" d="M104.7,125.1c0,2.7-2.2,4.9-4.9,4.9c-2.7,0-4.9-2.2-4.9-4.9c0-2.7,2.2-4.9,4.9-4.9
		C102.5,120.1,104.7,122.3,104.7,125.1L104.7,125.1z M104.7,125.1"/>
	<path class="st2" d="M24.3,98.8h9.8c1.8,0,3.3-1.5,3.3-3.3V23.3c0-1.8-1.5-3.3-3.3-3.3h-9.8c-1.8,0-3.3,1.5-3.3,3.3v72.2
		C21,97.3,22.5,98.8,24.3,98.8L24.3,98.8z M27.6,26.6h3.3c1.8,0,3.3,1.5,3.3,3.3c0,1.8-1.5,3.3-3.3,3.3h-3.3c-1.8,0-3.3-1.5-3.3-3.3
		C24.3,28,25.8,26.6,27.6,26.6L27.6,26.6z M27.6,36.4h3.3c1.8,0,3.3,1.5,3.3,3.3c0,1.8-1.5,3.3-3.3,3.3h-3.3c-1.8,0-3.3-1.5-3.3-3.3
		C24.3,37.9,25.8,36.4,27.6,36.4L27.6,36.4z M27.6,46.3h3.3c1.8,0,3.3,1.5,3.3,3.3c0,1.8-1.5,3.3-3.3,3.3h-3.3
		c-1.8,0-3.3-1.5-3.3-3.3C24.3,47.7,25.8,46.3,27.6,46.3L27.6,46.3z M27.6,56.1h3.3c1.8,0,3.3,1.5,3.3,3.3c0,1.8-1.5,3.3-3.3,3.3
		h-3.3c-1.8,0-3.3-1.5-3.3-3.3C24.3,57.6,25.8,56.1,27.6,56.1L27.6,56.1z M27.6,66h3.3c1.8,0,3.3,1.5,3.3,3.3c0,1.8-1.5,3.3-3.3,3.3
		h-3.3c-1.8,0-3.3-1.5-3.3-3.3C24.3,67.4,25.8,66,27.6,66L27.6,66z M24.3,82.4c0-1.8,1.5-3.3,3.3-3.3h3.3c1.8,0,3.3,1.5,3.3,3.3v6.6
		c0,1.8-1.5,3.3-3.3,3.3h-3.3c-1.8,0-3.3-1.5-3.3-3.3V82.4z M24.3,82.4"/>
	<path class="st5" d="M27.6,33.1h3.3c1.8,0,3.3-1.5,3.3-3.3c0-1.8-1.5-3.3-3.3-3.3h-3.3c-1.8,0-3.3,1.5-3.3,3.3
		C24.3,31.7,25.8,33.1,27.6,33.1L27.6,33.1z M27.6,33.1"/>
	<path class="st4" d="M27.6,43h3.3c1.8,0,3.3-1.5,3.3-3.3c0-1.8-1.5-3.3-3.3-3.3h-3.3c-1.8,0-3.3,1.5-3.3,3.3
		C24.3,41.5,25.8,43,27.6,43L27.6,43z M27.6,43"/>
	<path class="st5" d="M27.6,52.8h3.3c1.8,0,3.3-1.5,3.3-3.3c0-1.8-1.5-3.3-3.3-3.3h-3.3c-1.8,0-3.3,1.5-3.3,3.3
		C24.3,51.4,25.8,52.8,27.6,52.8L27.6,52.8z M27.6,52.8"/>
	<path class="st5" d="M27.6,62.7h3.3c1.8,0,3.3-1.5,3.3-3.3c0-1.8-1.5-3.3-3.3-3.3h-3.3c-1.8,0-3.3,1.5-3.3,3.3
		C24.3,61.2,25.8,62.7,27.6,62.7L27.6,62.7z M27.6,62.7"/>
	<path class="st5" d="M27.6,72.5h3.3c1.8,0,3.3-1.5,3.3-3.3c0-1.8-1.5-3.3-3.3-3.3h-3.3c-1.8,0-3.3,1.5-3.3,3.3
		C24.3,71.1,25.8,72.5,27.6,72.5L27.6,72.5z M27.6,72.5"/>
	<path class="st4" d="M27.6,92.2h3.3c1.8,0,3.3-1.5,3.3-3.3v-6.6c0-1.8-1.5-3.3-3.3-3.3h-3.3c-1.8,0-3.3,1.5-3.3,3.3v6.6
		C24.3,90.8,25.8,92.2,27.6,92.2L27.6,92.2z M27.6,92.2"/>
	<path class="st2" d="M178.6,23.3c0-1.8-1.5-3.3-3.3-3.3h-29.5c-1.8,0-3.3,1.5-3.3,3.3V43h36.1V23.3z M173.7,39.7h-26.3
		c-0.9,0-1.6-0.7-1.6-1.6c0-0.9,0.7-1.6,1.6-1.6h26.3c0.9,0,1.6,0.7,1.6,1.6C175.3,39,174.6,39.7,173.7,39.7L173.7,39.7z
		 M173.7,33.1h-26.3c-0.9,0-1.6-0.7-1.6-1.6c0-0.9,0.7-1.6,1.6-1.6h26.3c0.9,0,1.6,0.7,1.6,1.6C175.3,32.4,174.6,33.1,173.7,33.1
		L173.7,33.1z M173.7,26.6h-26.3c-0.9,0-1.6-0.7-1.6-1.6c0-0.9,0.7-1.6,1.6-1.6h26.3c0.9,0,1.6,0.7,1.6,1.6
		C175.3,25.8,174.6,26.6,173.7,26.6L173.7,26.6z M173.7,26.6"/>
	<path class="st2" d="M145.8,98.8h29.5c1.8,0,3.3-1.5,3.3-3.3V66h-36.1v29.5C142.5,97.3,143.9,98.8,145.8,98.8L145.8,98.8z
		 M160.5,69.2h13.1c0.9,0,1.6,0.7,1.6,1.6s-0.7,1.6-1.6,1.6h-13.1c-0.9,0-1.6-0.7-1.6-1.6S159.6,69.2,160.5,69.2L160.5,69.2z
		 M160.5,75.8h13.1c0.9,0,1.6,0.7,1.6,1.6c0,0.9-0.7,1.6-1.6,1.6h-13.1c-0.9,0-1.6-0.7-1.6-1.6C158.9,76.5,159.6,75.8,160.5,75.8
		L160.5,75.8z M160.5,82.4h13.1c0.9,0,1.6,0.7,1.6,1.6c0,0.9-0.7,1.6-1.6,1.6h-13.1c-0.9,0-1.6-0.7-1.6-1.6
		C158.9,83.1,159.6,82.4,160.5,82.4L160.5,82.4z M160.5,88.9h13.1c0.9,0,1.6,0.7,1.6,1.6s-0.7,1.6-1.6,1.6h-13.1
		c-0.9,0-1.6-0.7-1.6-1.6S159.6,88.9,160.5,88.9L160.5,88.9z M154,69.2c0.9,0,1.6,0.7,1.6,1.6s-0.7,1.6-1.6,1.6
		c-0.9,0-1.6-0.7-1.6-1.6S153.1,69.2,154,69.2L154,69.2z M154,75.8c0.9,0,1.6,0.7,1.6,1.6c0,0.9-0.7,1.6-1.6,1.6
		c-0.9,0-1.6-0.7-1.6-1.6C152.3,76.5,153.1,75.8,154,75.8L154,75.8z M154,82.4c0.9,0,1.6,0.7,1.6,1.6c0,0.9-0.7,1.6-1.6,1.6
		c-0.9,0-1.6-0.7-1.6-1.6C152.3,83.1,153.1,82.4,154,82.4L154,82.4z M154,88.9c0.9,0,1.6,0.7,1.6,1.6s-0.7,1.6-1.6,1.6
		c-0.9,0-1.6-0.7-1.6-1.6S153.1,88.9,154,88.9L154,88.9z M147.4,69.2c0.9,0,1.6,0.7,1.6,1.6s-0.7,1.6-1.6,1.6
		c-0.9,0-1.6-0.7-1.6-1.6S146.5,69.2,147.4,69.2L147.4,69.2z M147.4,75.8c0.9,0,1.6,0.7,1.6,1.6c0,0.9-0.7,1.6-1.6,1.6
		c-0.9,0-1.6-0.7-1.6-1.6C145.8,76.5,146.5,75.8,147.4,75.8L147.4,75.8z M147.4,82.4c0.9,0,1.6,0.7,1.6,1.6c0,0.9-0.7,1.6-1.6,1.6
		c-0.9,0-1.6-0.7-1.6-1.6C145.8,83.1,146.5,82.4,147.4,82.4L147.4,82.4z M147.4,88.9c0.9,0,1.6,0.7,1.6,1.6s-0.7,1.6-1.6,1.6
		c-0.9,0-1.6-0.7-1.6-1.6S146.5,88.9,147.4,88.9L147.4,88.9z M147.4,88.9"/>
	<path class="st4" d="M178.6,43h-36.1v23h36.1V43z M150.7,62.7h-3.3c-0.9,0-1.6-0.7-1.6-1.6c0-0.9,0.7-1.6,1.6-1.6h3.3
		c0.9,0,1.6,0.7,1.6,1.6C152.3,61.9,151.6,62.7,150.7,62.7L150.7,62.7z M150.7,56.1h-3.3c-0.9,0-1.6-0.7-1.6-1.6
		c0-0.9,0.7-1.6,1.6-1.6h3.3c0.9,0,1.6,0.7,1.6,1.6C152.3,55.4,151.6,56.1,150.7,56.1L150.7,56.1z M150.7,49.6h-3.3
		c-0.9,0-1.6-0.7-1.6-1.6c0-0.9,0.7-1.6,1.6-1.6h3.3c0.9,0,1.6,0.7,1.6,1.6C152.3,48.8,151.6,49.6,150.7,49.6L150.7,49.6z
		 M173.7,62.7h-16.4c-0.9,0-1.6-0.7-1.6-1.6c0-0.9,0.7-1.6,1.6-1.6h16.4c0.9,0,1.6,0.7,1.6,1.6C175.3,61.9,174.6,62.7,173.7,62.7
		L173.7,62.7z M173.7,56.1h-16.4c-0.9,0-1.6-0.7-1.6-1.6c0-0.9,0.7-1.6,1.6-1.6h16.4c0.9,0,1.6,0.7,1.6,1.6
		C175.3,55.4,174.6,56.1,173.7,56.1L173.7,56.1z M173.7,49.6h-16.4c-0.9,0-1.6-0.7-1.6-1.6c0-0.9,0.7-1.6,1.6-1.6h16.4
		c0.9,0,1.6,0.7,1.6,1.6C175.3,48.8,174.6,49.6,173.7,49.6L173.7,49.6z M173.7,49.6"/>
	<path class="st4" d="M173.7,23.3H154c0.9,0,1.6,0.7,1.6,1.6c0,0.9-0.7,1.6-1.6,1.6h19.7c0.9,0,1.6-0.7,1.6-1.6
		C175.3,24,174.6,23.3,173.7,23.3L173.7,23.3z M173.7,23.3"/>
	<path class="st4" d="M149,24.9c0-0.9,0.7-1.6,1.6-1.6h-3.3c-0.9,0-1.6,0.7-1.6,1.6c0,0.9,0.7,1.6,1.6,1.6h3.3
		C149.8,26.6,149,25.8,149,24.9L149,24.9z M149,24.9"/>
	<path class="st4" d="M173.7,36.4h-13.1c0.9,0,1.6,0.7,1.6,1.6c0,0.9-0.7,1.6-1.6,1.6h13.1c0.9,0,1.6-0.7,1.6-1.6
		C175.3,37.2,174.6,36.4,173.7,36.4L173.7,36.4z M173.7,36.4"/>
	<path class="st4" d="M155.6,38.1c0-0.9,0.7-1.6,1.6-1.6h-9.8c-0.9,0-1.6,0.7-1.6,1.6c0,0.9,0.7,1.6,1.6,1.6h9.8
		C156.3,39.7,155.6,39,155.6,38.1L155.6,38.1z M155.6,38.1"/>
	<path class="st2" d="M173.7,46.3h-16.4c-0.9,0-1.6,0.7-1.6,1.6c0,0.9,0.7,1.6,1.6,1.6h16.4c0.9,0,1.6-0.7,1.6-1.6
		C175.3,47,174.6,46.3,173.7,46.3L173.7,46.3z M173.7,46.3"/>
	<path class="st4" d="M165.5,31.5c0-0.9,0.7-1.6,1.6-1.6h-19.7c-0.9,0-1.6,0.7-1.6,1.6c0,0.9,0.7,1.6,1.6,1.6h19.7
		C166.2,33.1,165.5,32.4,165.5,31.5L165.5,31.5z M165.5,31.5"/>
	<path class="st4" d="M173.7,29.9h-3.3c0.9,0,1.6,0.7,1.6,1.6c0,0.9-0.7,1.6-1.6,1.6h3.3c0.9,0,1.6-0.7,1.6-1.6
		C175.3,30.6,174.6,29.9,173.7,29.9L173.7,29.9z M173.7,29.9"/>
	<path class="st5" d="M155.6,24.9c0-0.9-0.7-1.6-1.6-1.6h-3.3c-0.9,0-1.6,0.7-1.6,1.6c0,0.9,0.7,1.6,1.6,1.6h3.3
		C154.9,26.6,155.6,25.8,155.6,24.9L155.6,24.9z M155.6,24.9"/>
	<path class="st5" d="M162.2,38.1c0-0.9-0.7-1.6-1.6-1.6h-3.3c-0.9,0-1.6,0.7-1.6,1.6c0,0.9,0.7,1.6,1.6,1.6h3.3
		C161.4,39.7,162.2,39,162.2,38.1L162.2,38.1z M162.2,38.1"/>
	<path class="st5" d="M150.7,46.3h-3.3c-0.9,0-1.6,0.7-1.6,1.6c0,0.9,0.7,1.6,1.6,1.6h3.3c0.9,0,1.6-0.7,1.6-1.6
		C152.3,47,151.6,46.3,150.7,46.3L150.7,46.3z M150.7,46.3"/>
	<path class="st2" d="M173.7,52.8h-16.4c-0.9,0-1.6,0.7-1.6,1.6c0,0.9,0.7,1.6,1.6,1.6h16.4c0.9,0,1.6-0.7,1.6-1.6
		C175.3,53.6,174.6,52.8,173.7,52.8L173.7,52.8z M173.7,52.8"/>
	<path class="st5" d="M150.7,52.8h-3.3c-0.9,0-1.6,0.7-1.6,1.6c0,0.9,0.7,1.6,1.6,1.6h3.3c0.9,0,1.6-0.7,1.6-1.6
		C152.3,53.6,151.6,52.8,150.7,52.8L150.7,52.8z M150.7,52.8"/>
	<path class="st2" d="M173.7,59.4h-16.4c-0.9,0-1.6,0.7-1.6,1.6c0,0.9,0.7,1.6,1.6,1.6h16.4c0.9,0,1.6-0.7,1.6-1.6
		C175.3,60.1,174.6,59.4,173.7,59.4L173.7,59.4z M173.7,59.4"/>
	<path class="st5" d="M150.7,59.4h-3.3c-0.9,0-1.6,0.7-1.6,1.6c0,0.9,0.7,1.6,1.6,1.6h3.3c0.9,0,1.6-0.7,1.6-1.6
		C152.3,60.1,151.6,59.4,150.7,59.4L150.7,59.4z M150.7,59.4"/>
	<path class="st5" d="M147.4,79.1c0.9,0,1.6-0.7,1.6-1.6c0-0.9-0.7-1.6-1.6-1.6c-0.9,0-1.6,0.7-1.6,1.6
		C145.8,78.4,146.5,79.1,147.4,79.1L147.4,79.1z M147.4,79.1"/>
	<path class="st5" d="M147.4,72.5c0.9,0,1.6-0.7,1.6-1.6c0-0.9-0.7-1.6-1.6-1.6c-0.9,0-1.6,0.7-1.6,1.6
		C145.8,71.8,146.5,72.5,147.4,72.5L147.4,72.5z M147.4,72.5"/>
	<path class="st5" d="M147.4,92.2c0.9,0,1.6-0.7,1.6-1.6s-0.7-1.6-1.6-1.6c-0.9,0-1.6,0.7-1.6,1.6S146.5,92.2,147.4,92.2L147.4,92.2
		z M147.4,92.2"/>
	<path class="st5" d="M147.4,85.7c0.9,0,1.6-0.7,1.6-1.6c0-0.9-0.7-1.6-1.6-1.6c-0.9,0-1.6,0.7-1.6,1.6
		C145.8,84.9,146.5,85.7,147.4,85.7L147.4,85.7z M147.4,85.7"/>
	<path class="st4" d="M154,79.1c0.9,0,1.6-0.7,1.6-1.6c0-0.9-0.7-1.6-1.6-1.6c-0.9,0-1.6,0.7-1.6,1.6
		C152.3,78.4,153.1,79.1,154,79.1L154,79.1z M154,79.1"/>
	<path class="st4" d="M154,72.5c0.9,0,1.6-0.7,1.6-1.6c0-0.9-0.7-1.6-1.6-1.6c-0.9,0-1.6,0.7-1.6,1.6
		C152.3,71.8,153.1,72.5,154,72.5L154,72.5z M154,72.5"/>
	<path class="st4" d="M154,92.2c0.9,0,1.6-0.7,1.6-1.6s-0.7-1.6-1.6-1.6c-0.9,0-1.6,0.7-1.6,1.6S153.1,92.2,154,92.2L154,92.2z
		 M154,92.2"/>
	<path class="st4" d="M154,85.7c0.9,0,1.6-0.7,1.6-1.6c0-0.9-0.7-1.6-1.6-1.6c-0.9,0-1.6,0.7-1.6,1.6
		C152.3,84.9,153.1,85.7,154,85.7L154,85.7z M154,85.7"/>
	<path class="st4" d="M160.5,79.1h13.1c0.9,0,1.6-0.7,1.6-1.6c0-0.9-0.7-1.6-1.6-1.6h-13.1c-0.9,0-1.6,0.7-1.6,1.6
		C158.9,78.4,159.6,79.1,160.5,79.1L160.5,79.1z M160.5,79.1"/>
	<path class="st4" d="M160.5,72.5h13.1c0.9,0,1.6-0.7,1.6-1.6c0-0.9-0.7-1.6-1.6-1.6h-13.1c-0.9,0-1.6,0.7-1.6,1.6
		C158.9,71.8,159.6,72.5,160.5,72.5L160.5,72.5z M160.5,72.5"/>
	<path class="st4" d="M160.5,92.2h13.1c0.9,0,1.6-0.7,1.6-1.6s-0.7-1.6-1.6-1.6h-13.1c-0.9,0-1.6,0.7-1.6,1.6S159.6,92.2,160.5,92.2
		L160.5,92.2z M160.5,92.2"/>
	<path class="st4" d="M160.5,85.7h13.1c0.9,0,1.6-0.7,1.6-1.6c0-0.9-0.7-1.6-1.6-1.6h-13.1c-0.9,0-1.6,0.7-1.6,1.6
		C158.9,84.9,159.6,85.7,160.5,85.7L160.5,85.7z M160.5,85.7"/>
	<path class="st5" d="M172,31.5c0-0.9-0.7-1.6-1.6-1.6h-3.3c-0.9,0-1.6,0.7-1.6,1.6c0,0.9,0.7,1.6,1.6,1.6h3.3
		C171.3,33.1,172,32.4,172,31.5L172,31.5z M172,31.5"/>
	<path class="st6" d="M53.8,62.7h24.6v-6.6H57.1V26.6h29.5v21.3c0.9,0,1.6,0.7,1.6,1.6c0,0.9-0.7,1.6-1.6,1.6v4.9h-4.9v6.6H90
		c0,0,0.1,0,0.1,0l0-2c0-1.1,1.4-1.7,2.2-1l0.8,0.7c0.1-0.3,0.2-0.7,0.2-1v-8.2c-0.9,0-1.6-0.7-1.6-1.6c0-0.9,0.7-1.6,1.6-1.6V23.3
		c0-1.8-1.5-3.3-3.3-3.3H53.8c-1.8,0-3.3,1.5-3.3,3.3v36.1C50.6,61.2,52,62.7,53.8,62.7L53.8,62.7z M53.8,62.7"/>
	<path class="st4" d="M80.1,77.5c0.9,0,1.6-0.7,1.6-1.6v-6.6c0-0.9-0.7-1.6-1.6-1.6s-1.6,0.7-1.6,1.6v6.6
		C78.5,76.7,79.2,77.5,80.1,77.5L80.1,77.5z M80.1,77.5"/>
	<path class="st4" d="M119.5,97.2h6.6c0.9,0,1.6-0.7,1.6-1.6c0-0.9-0.7-1.6-1.6-1.6h-6.6c-0.9,0-1.6,0.7-1.6,1.6
		C117.9,96.4,118.6,97.2,119.5,97.2L119.5,97.2z M119.5,97.2"/>
	<path class="st4" d="M126.1,80.7c-0.9,0-1.6,0.7-1.6,1.6v6.6c0,0.9,0.7,1.6,1.6,1.6c0.9,0,1.6-0.7,1.6-1.6v-6.6
		C127.7,81.5,127,80.7,126.1,80.7L126.1,80.7z M126.1,80.7"/>
	<path class="st4" d="M119.5,51.2h6.6c0.9,0,1.6-0.7,1.6-1.6c0-0.9-0.7-1.6-1.6-1.6h-6.6c-0.9,0-1.6,0.7-1.6,1.6
		C117.9,50.5,118.6,51.2,119.5,51.2L119.5,51.2z M119.5,51.2"/>
	<path class="st4" d="M126.1,54.5c-0.9,0-1.6,0.7-1.6,1.6v6.6c0,0.9,0.7,1.6,1.6,1.6c0.9,0,1.6-0.7,1.6-1.6v-6.6
		C127.7,55.2,127,54.5,126.1,54.5L126.1,54.5z M126.1,54.5"/>
	<path class="st4" d="M99.8,93.9h-6.6c-0.9,0-1.6,0.7-1.6,1.6c0,0.9,0.7,1.6,1.6,1.6h6.6c0.9,0,1.6-0.7,1.6-1.6
		C101.4,94.6,100.7,93.9,99.8,93.9L99.8,93.9z M99.8,93.9"/>
	<path class="st4" d="M80.1,54.5c-0.9,0-1.6,0.7-1.6,1.6v6.6c0,0.9,0.7,1.6,1.6,1.6s1.6-0.7,1.6-1.6v-6.6
		C81.7,55.2,81,54.5,80.1,54.5L80.1,54.5z M80.1,54.5"/>
	<path class="st4" d="M86.7,93.9h-6.6c-0.9,0-1.6,0.7-1.6,1.6c0,0.9,0.7,1.6,1.6,1.6h6.6c0.9,0,1.6-0.7,1.6-1.6
		C88.3,94.6,87.6,93.9,86.7,93.9L86.7,93.9z M86.7,93.9"/>
	<path class="st4" d="M78.5,88.9c0,0.9,0.7,1.6,1.6,1.6c0.9,0,1.6-0.7,1.6-1.6v-6.6c0-0.9-0.7-1.6-1.6-1.6c-0.9,0-1.6,0.7-1.6,1.6
		V88.9z M78.5,88.9"/>
	<path class="st4" d="M126.1,67.6c-0.9,0-1.6,0.7-1.6,1.6v6.6c0,0.9,0.7,1.6,1.6,1.6c0.9,0,1.6-0.7,1.6-1.6v-6.6
		C127.7,68.3,127,67.6,126.1,67.6L126.1,67.6z M126.1,67.6"/>
	<path class="st4" d="M106.4,51.2h6.6c0.9,0,1.6-0.7,1.6-1.6c0-0.9-0.7-1.6-1.6-1.6h-6.6c-0.9,0-1.6,0.7-1.6,1.6
		C104.7,50.5,105.5,51.2,106.4,51.2L106.4,51.2z M106.4,51.2"/>
	<path class="st4" d="M78.5,49.6c0,0.9,0.7,1.6,1.6,1.6h6.6c0.9,0,1.6-0.7,1.6-1.6c0-0.9-0.7-1.6-1.6-1.6h-6.6
		C79.2,47.9,78.5,48.6,78.5,49.6L78.5,49.6z M78.5,49.6"/>
	<path class="st4" d="M106.4,97.2h6.6c0.9,0,1.6-0.7,1.6-1.6c0-0.9-0.7-1.6-1.6-1.6h-6.6c-0.9,0-1.6,0.7-1.6,1.6
		C104.7,96.4,105.5,97.2,106.4,97.2L106.4,97.2z M106.4,97.2"/>
	<path class="st4" d="M91.6,49.6c0,0.9,0.7,1.6,1.6,1.6h6.6c0.9,0,1.6-0.7,1.6-1.6c0-0.9-0.7-1.6-1.6-1.6h-6.6
		C92.3,47.9,91.6,48.6,91.6,49.6L91.6,49.6z M91.6,49.6"/>
	<path class="st0" d="M90.1,60.7l0,2L90,73.3c0,1,1,1.6,1.8,1.2l3.3-1.4l2.9,6.6c0.3,0.6,0.9,1,1.5,1c0.2,0,0.4,0,0.7-0.1
		c0.8-0.4,1.2-1.3,0.8-2.2l-2.9-6.6l3.3-1.4c0.9-0.4,1.1-1.5,0.3-2.2l-8.6-7.7l-0.8-0.7C91.5,59,90.1,59.6,90.1,60.7L90.1,60.7z
		 M90.1,60.7"/>
</g>
</svg>
