<?xml version="1.0" encoding="utf-8"?>
<!-- Generator: Adobe Illustrator 22.0.0, SVG Export Plug-In . SVG Version: 6.00 Build 0)  -->
<svg version="1.1" id="Capa_1" xmlns="http://www.w3.org/2000/svg" xmlns:xlink="http://www.w3.org/1999/xlink" x="0px" y="0px"
	 viewBox="0 0 116.8 122.3" style="enable-background:new 0 0 116.8 122.3;" xml:space="preserve">
<style type="text/css">
	.st0{fill:url(#SVGID_1_);}
	.st1{fill:url(#SVGID_2_);}
	.st2{fill:url(#SVGID_3_);}
</style>
<g>
	<radialGradient id="SVGID_1_" cx="54.4562" cy="140.1046" r="144.8587" gradientUnits="userSpaceOnUse">
		<stop  offset="0.2602" style="stop-color:#36B649"/>
		<stop  offset="0.7602" style="stop-color:#57C965"/>
	</radialGradient>
	<path class="st0" d="M114.6,94.3c0,12.8-10.4,23.1-23.1,23.1H25.1C12.3,117.4,2,107.1,2,94.3V28C2,15.2,12.3,4.9,25.1,4.9h66.3
		c12.8,0,23.1,10.4,23.1,23.1V94.3z"/>
	<g>
		<radialGradient id="SVGID_2_" cx="42.7307" cy="104.9836" r="88.8634" gradientUnits="userSpaceOnUse">
			<stop  offset="0.2194" style="stop-color:#E7E7E7"/>
			<stop  offset="0.8827" style="stop-color:#FCFCFC"/>
		</radialGradient>
		<path class="st1" d="M59,19.6c-22.7,0-41.1,18.4-41.1,41.1c0,7.7,2.1,14.9,5.8,21l-5.2,20.9l20.6-5.9c5.9,3.3,12.7,5.2,19.9,5.2
			c22.7,0,41.1-18.4,41.1-41.1C100.1,38,81.7,19.6,59,19.6z M59.5,95.1c-7.2,0-13.8-2.2-19.3-6l-11.7,3.4l3-12.1
			c-3.8-5.5-6.1-12.2-6.1-19.4c0-18.9,15.3-34.1,34.1-34.1c18.9,0,34.1,15.3,34.1,34.1C93.6,79.8,78.3,95.1,59.5,95.1z"/>
		<radialGradient id="SVGID_3_" cx="43.6695" cy="86.3685" r="39.7541" gradientUnits="userSpaceOnUse">
			<stop  offset="0.2194" style="stop-color:#E7E7E7"/>
			<stop  offset="0.8827" style="stop-color:#FFFFFF"/>
		</radialGradient>
		<path class="st2" d="M48.6,57.5c0.5-0.5,1-1.1,1.4-1.6c0.8-0.9,2-1.8,2.1-3.2c0.1-1.3-0.4-2.6-0.9-3.7c-0.3-0.7-0.6-1.5-0.9-2.3
			c-0.5-1.4-1.2-3.3-1.9-4.1c-1-1.1-2.8-1.3-4.2-0.6c0,0-8.1,3.9-5.6,11.6c0,0,4.8,21.9,29,26.4c0,0,8.7,1.2,11-4
			c0.5-1.1,0.8-2.7,0.8-4c-0.1-1.2-0.9-2-1.9-2.6c-1.3-0.7-2.4-1.4-3.9-2.1c-1.3-0.6-2.7-1.5-4.2-1.1c-1.1,0.3-1.8,1.3-2.5,2
			c-0.9,1-1.9,2-2.9,3C64.1,71.2,51.9,66.7,48.6,57.5z"/>
	</g>
</g>
</svg>
